<?xml version="1.0" encoding="utf-8"?>
<!-- Generator: Adobe Illustrator 22.0.1, SVG Export Plug-In . SVG Version: 6.00 Build 0)  -->
<svg version="1.1" id="Capa_1" xmlns="http://www.w3.org/2000/svg" xmlns:xlink="http://www.w3.org/1999/xlink" x="0px" y="0px"
	 viewBox="0 0 30 30" style="enable-background:new 0 0 30 30;" xml:space="preserve">
<style type="text/css">
	.st0{fill:#FFFFFF;}
</style>
<g id="Capa_1_1_">
	<g>
		<path class="st0" d="M6.9,13.8C6.9,13.8,7,13.7,6.9,13.8c0,0-0.9,2.8-0.3,3.3c0.6,0.6,3.5-0.1,3.5-0.1l0,0
			c-1.8,1.7-5.3,2.9-5.8,2.3C3.8,18.3,5.2,15.5,6.9,13.8z"/>
		<g>
			<path class="st0" d="M20.4,3.9c1.1,1.1,2.1,1.8,2.7,2.2c0.1-0.2,0.1-0.4,0.2-0.6c0.5-2.3,0.6-4,0.6-4.1c0-0.2-0.1-0.3-0.2-0.4
				s-0.3-0.2-0.4-0.2s-1.8,0-4.1,0.6c-0.3,0.1-0.5,0.1-0.8,0.2C18.7,2.1,19.4,2.9,20.4,3.9z"/>
			<path class="st0" d="M22.6,7.7c-0.7-0.4-1.9-1.2-3.3-2.6c-1.3-1.3-2.1-2.3-2.5-2.9c-1.6,0.6-3.4,1.6-4.9,3.1
				c-0.1,0.1-0.1,0.1-0.2,0.2c-2-0.4-3.8,0.2-5.3,1.4C5,8,4.4,9.2,4.3,9.2c-0.1,0.2-0.1,0.4,0,0.6c0.1,0.2,0.3,0.3,0.5,0.3l3.5,0.2
				l-0.7,2.4c-0.1,0.1-0.2,0.3-0.2,0.4c0,0.2,0.1,0.3,0.2,0.4l3.1,3.1c0.1,0.1,0.3,0.2,0.4,0.2c0.2,0,0.3-0.1,0.4-0.2l2.5-0.4
				l0.2,3.5c0,0.2,0.1,0.4,0.3,0.5c0.1,0,0.2,0.1,0.3,0.1s0.2,0,0.3-0.1c0,0,1.3-0.7,2.3-2.1c1.3-1.6,1.8-3.4,1.6-5.2
				c0.1-0.1,0.2-0.1,0.3-0.3C21,11.2,21.9,9.4,22.6,7.7z M16.5,10.4c-1.4,0-2.5-1.1-2.5-2.5s1.1-2.5,2.5-2.5S19,6.5,19,7.9
				S17.9,10.4,16.5,10.4z"/>
		</g>
		<path class="st0" d="M26.7,3.3h-2.1c-0.1,0.7-0.1,1-0.2,1.7h2.3c0.4,0,0.8,0.4,0.8,0.8v10.6v4.1c0,0.4-0.4,0.8-0.8,0.8H3.2
			c-0.4,0-0.8-0.5-0.8-0.9V5.8C2.3,5.4,2.7,5,3.2,5h7.5c0.6-0.6,1.2-1.1,2-1.7h-0.5h-9c-1.4,0-2.4,1.2-2.4,2.5v16.7
			C0.8,23.9,2,25,3.3,25h7.3l-1.2,2.6H6.6c-0.4,0-0.8,0.4-0.8,0.8s0.4,0.8,0.8,0.8h16.7c0.4,0,0.8-0.4,0.8-0.8s-0.4-0.8-0.8-0.8
			h-2.7L19.4,25h7.3c1.4,0,2.5-1.2,2.5-2.5V5.8C29.2,4.4,28.1,3.3,26.7,3.3z"/>
	</g>
</g>
</svg>
