<?xml version="1.0" encoding="utf-8"?>
<!-- Generator: Adobe Illustrator 22.0.1, SVG Export Plug-In . SVG Version: 6.00 Build 0)  -->
<svg version="1.1" id="Capa_1" xmlns="http://www.w3.org/2000/svg" xmlns:xlink="http://www.w3.org/1999/xlink" x="0px" y="0px"
	 width="32px" height="32px" viewBox="0 0 32 32" style="enable-background:new 0 0 32 32;" xml:space="preserve">
<style type="text/css">
	.st0{fill:#FFFFFF;}
</style>
<g>
	<path class="st0" d="M27.4,4.6c-3.5-3.5-9.2-3.5-12.8,0C11.2,8,11.1,13.5,14.2,17l0.1,0.1c-0.3,0.7-0.9,1.6-1.9,2.1
		c-0.3,0.2-0.2,0.6,0.1,0.7c1,0.2,2.5,0,3.8-1l0,0c3.5,2,8,1.6,11-1.4C30.9,13.9,30.9,8.2,27.4,4.6z M15.1,10H15
		c-0.4-0.1-0.7-0.5-0.6-0.9c0,0,0.2-1.2,0.9-2.4c1-1.6,2.4-2.6,4.2-3c0.4-0.1,0.8,0.2,0.9,0.6s-0.2,0.8-0.6,0.9
		c-1.4,0.2-2.5,1-3.2,2.3c-0.6,0.9-0.7,1.8-0.7,1.8C15.7,9.7,15.4,10,15.1,10z"/>
</g>
<g>
	<g>
		<path class="st0" d="M21.1,25.9l-3-3c-0.6-0.6-1.6-0.6-2.2,0l-1.5,1.5c-0.1-0.1-0.2-0.1-0.3-0.2c-1-0.5-2.3-1.3-3.7-2.6
			C9,20.3,8.3,18.9,7.7,18c-0.1-0.1-0.1-0.2-0.2-0.3l1-1L9,16.2c0.6-0.6,0.6-1.6,0-2.2l-3-3c-0.6-0.6-1.6-0.6-2.2,0L3,11.8l0,0
			c-0.3,0.4-0.5,0.8-0.7,1.2S2,13.8,2,14.3c-0.4,3.3,1.1,6.3,5.2,10.4c5.7,5.7,10.2,5.2,10.4,5.2c0.4-0.1,0.8-0.2,1.3-0.3
			c0.4-0.2,0.9-0.4,1.2-0.7l0,0l0.9-0.8C21.7,27.5,21.7,26.5,21.1,25.9z"/>
	</g>
</g>
</svg>
