<?xml version="1.0" encoding="utf-8"?>
<!-- Generator: Adobe Illustrator 22.0.1, SVG Export Plug-In . SVG Version: 6.00 Build 0)  -->
<svg version="1.1" id="Capa_1" xmlns="http://www.w3.org/2000/svg" xmlns:xlink="http://www.w3.org/1999/xlink" x="0px" y="0px"
	 width="30px" height="30px" viewBox="0 0 30 30" style="enable-background:new 0 0 30 30;" xml:space="preserve">
<style type="text/css">
	.st0{fill:#FFFFFF;}
</style>
<g>
	<circle class="st0" cx="15" cy="4" r="1.9"/>
	<circle class="st0" cx="15" cy="9.1" r="1.9"/>
	<circle class="st0" cx="10" cy="9.1" r="1.9"/>
	<circle class="st0" cx="20" cy="9.1" r="1.9"/>
	<circle class="st0" cx="10" cy="14.3" r="1.9"/>
	<circle class="st0" cx="20" cy="14.3" r="1.9"/>
	<circle class="st0" cx="15" cy="14.3" r="1.9"/>
	<path class="st0" d="M17.3,17.2c-0.1-0.3-0.4-0.5-0.7-0.5c-0.2,0-0.2,0-0.3,0h-2.6c-0.1,0-0.2,0-0.3,0c-0.4,0-0.6,0.2-0.7,0.5
		l-1.4,4.2c-0.1,0.4,0,0.7,0.4,0.9c0.3,0.1,0.7,0,0.9-0.4l0.4-1c0,0,0-0.1,0,0.3V27c0,0.5,0.4,0.9,0.9,0.9s0.9-0.4,0.9-0.9v-3.8l0,0
		c0.1,0,0.3,0,0.3,0l0,0V27c0,0.5,0.4,0.9,0.9,0.9c0.5,0,0.9-0.4,0.9-0.9v-5.8c0-0.4,0-0.3,0-0.3l0.4,0.9c0.1,0.4,0.5,0.5,0.9,0.4
		c0.3-0.1,0.5-0.5,0.4-0.9L17.3,17.2z"/>
	<circle class="st0" cx="25" cy="14.3" r="1.9"/>
	<path class="st0" d="M28.8,21.3l-1.7-4c-0.1-0.2-0.2-0.5-0.6-0.5c-0.1,0-0.3,0-0.5,0h-2c-0.2,0-0.3,0-0.5,0c-0.4,0-0.6,0.3-0.7,0.5
		l-1.7,4c-0.2,0.3,0,0.7,0.3,0.9c0.3,0.2,0.7,0,0.9-0.3l0.1-0.3c0,0,0-0.1,0,0c-0.1,0.5-0.4,2-0.4,2c-0.1,0.3,0.1,0.6,0.5,0.6
		c0,0,0.6,0,0.8,0c0.1,0,0,0,0,0v3c0,0.5,0.3,0.8,0.7,0.8c0.4,0,0.7-0.3,0.7-0.8v-3l0,0c0,0,0.1,0,0.2,0l0,0v3
		c0,0.5,0.3,0.8,0.7,0.8c0.4,0,0.7-0.3,0.7-0.8v-3c0,0,0,0,0.1,0c0.2,0,0.8,0,0.8,0c0.3,0,0.5-0.3,0.5-0.6c0,0-0.3-1.6-0.3-2
		c0-0.1,0.2,0.3,0.2,0.3c0.2,0.3,0.5,0.5,0.8,0.3C28.8,22,28.9,21.6,28.8,21.3z"/>
	<circle class="st0" cx="5" cy="14.3" r="1.9"/>
	<path class="st0" d="M8.9,21.3l-1.7-4C7.1,17,7,16.8,6.6,16.8c-0.1,0-0.3,0-0.5,0h-2c-0.2,0-0.3,0-0.5,0c-0.4,0-0.6,0.3-0.7,0.5
		l-1.7,4c-0.2,0.3,0,0.7,0.3,0.9c0.3,0.2,0.7,0,0.9-0.3l0.1-0.3c0,0,0-0.1,0,0c-0.1,0.5-0.4,2-0.4,2c-0.1,0.3,0.1,0.6,0.5,0.6
		c0,0,0.6,0,0.8,0c0.1,0,0,0,0,0v3c0,0.5,0.3,0.8,0.7,0.8s0.7-0.3,0.7-0.8v-3l0,0c0,0,0.1,0,0.2,0l0,0v3C5,27.7,5.3,28,5.7,28
		c0.4,0,0.7-0.3,0.7-0.8v-3c0,0,0,0,0.1,0c0.2,0,0.8,0,0.8,0c0.3,0,0.5-0.3,0.5-0.6c0,0-0.3-1.6-0.3-2c0-0.1,0.2,0.3,0.2,0.3
		c0.2,0.3,0.5,0.5,0.8,0.3C8.9,22,9,21.6,8.9,21.3z"/>
</g>
</svg>
