<?xml version="1.0" encoding="utf-8"?>
<!-- Generator: Adobe Illustrator 26.2.1, SVG Export Plug-In . SVG Version: 6.00 Build 0)  -->
<svg version="1.1" id="Capa_1" xmlns="http://www.w3.org/2000/svg" xmlns:xlink="http://www.w3.org/1999/xlink" x="0px" y="0px"
	 viewBox="0 0 210 210" style="enable-background:new 0 0 210 210;" xml:space="preserve">
<style type="text/css">
	.st0{fill:#006E63;}
	.st1{fill:#3BBFAD;}
	.st2{fill:#A3D300;}
</style>
<g>
	<path class="st0" d="M37.5,201.6l5.6-14.9h3.2l5.6,14.9h-3.3l-0.9-2.6h-6.1l-0.9,2.6H37.5z M44.6,190.5l-2.1,5.8h4.2L44.6,190.5
		L44.6,190.5z"/>
	<path class="st0" d="M60,186.4c3.7,0,6.7,2.2,7.2,5.8h-3.3c-0.4-1.9-2-2.9-3.9-2.9c-2.7,0-4.3,1.9-4.3,4.8c0,2.9,1.5,4.8,4.3,4.8
		c2,0,3.5-1,3.9-2.9h3.3c-0.6,3.6-3.5,5.8-7.2,5.8c-4.3,0-7.5-3.1-7.5-7.7C52.5,189.5,55.7,186.4,60,186.4z"/>
	<path class="st0" d="M76.5,186.4c3.7,0,6.7,2.2,7.2,5.8h-3.3c-0.4-1.9-2-2.9-3.9-2.9c-2.7,0-4.3,1.9-4.3,4.8c0,2.9,1.5,4.8,4.3,4.8
		c2,0,3.5-1,3.9-2.9h3.3c-0.6,3.6-3.5,5.8-7.2,5.8c-4.3,0-7.5-3.1-7.5-7.7C69,189.5,72.2,186.4,76.5,186.4z"/>
	<path class="st0" d="M94.3,201.6l-2.8-5.6h-2.9v5.6h-3.1v-14.9h6.8c3.3,0,5,1.9,5,4.7c0,2-0.9,3.5-2.6,4.3l3.3,6H94.3z M92.3,189.6
		h-3.7v3.6h3.7c1.3,0,1.9-0.7,1.9-1.8C94.2,190.3,93.6,189.6,92.3,189.6z"/>
	<path class="st0" d="M110.8,201.6h-10.7v-14.9h10.7v2.8h-7.7v3.1h7.3v2.8h-7.3v3.3h7.7V201.6z"/>
	<path class="st0" d="M113.8,201.6v-14.9h5.4c5.1,0,7.9,3.1,7.9,7.5c0,4.3-2.8,7.5-7.9,7.5H113.8z M119.1,189.6h-2.2v9.3h2.2
		c3.3,0,4.7-1.8,4.7-4.6C123.8,191.4,122.4,189.6,119.1,189.6z"/>
	<path class="st0" d="M132.1,201.6H129v-14.9h3.1V201.6z"/>
	<path class="st0" d="M145.2,189.6h-4.1v12h-3.1v-12H134v-2.9h11.3V189.6z"/>
	<path class="st0" d="M157.1,201.6h-10.7v-14.9h10.7v2.8h-7.7v3.1h7.3v2.8h-7.3v3.3h7.7V201.6z"/>
	<path class="st0" d="M159.6,201.6v-14.9h5.4c5.1,0,7.9,3.1,7.9,7.5c0,4.3-2.8,7.5-7.9,7.5H159.6z M164.8,189.6h-2.2v9.3h2.2
		c3.3,0,4.7-1.8,4.7-4.6C169.5,191.4,168.1,189.6,164.8,189.6z"/>
	<polygon class="st1" points="129.7,51.9 129.7,95.7 173.5,139.6 173.5,51.9 	"/>
	<polygon class="st2" points="129.7,8.1 42,8.1 85.9,51.9 129.7,51.9 	"/>
	<rect x="129.7" y="8.1" class="st0" width="43.8" height="43.8"/>
	<polygon class="st1" points="81.3,100.3 81.3,56.4 37.5,12.6 37.5,100.3 	"/>
	<polygon class="st2" points="81.3,144.1 169,144.1 125.1,100.3 81.3,100.3 	"/>
	<rect x="37.5" y="100.3" class="st0" width="43.8" height="43.8"/>
	<path class="st0" d="M36,180.5l11.7-31.2h6.8l11.7,31.2h-6.9l-1.9-5.4H44.6l-1.9,5.4H36z M51,157.2l-4.3,12.2h8.7L51,157.2
		L51,157.2z"/>
	<path class="st0" d="M64.9,180.5l11.7-31.2h6.8l11.7,31.2h-6.9l-1.9-5.4H73.5l-1.9,5.4H64.9z M79.9,157.2l-4.3,12.2h8.7L79.9,157.2
		L79.9,157.2z"/>
	<path class="st0" d="M142.4,171.8c0-6.2-16.7-1.3-16.7-13.5c0-5.3,4.2-9.6,11.4-9.6c7.3,0,11.4,4.8,11.6,10.4h-6.3
		c-0.1-2.7-2.1-4.7-5.4-4.7c-3,0-5,1.5-5,3.5c0,6.2,16.9,1.3,16.9,13.7c0,5.6-4.9,9.5-12.4,9.5c-8.7,0-11.9-5.4-12-10.5h6.3
		c0.2,2.6,2,4.8,6.1,4.8C140.3,175.4,142.4,174.1,142.4,171.8z"/>
	<path class="st0" d="M151,180.5v-31.2h13.2c7.2,0,10.4,3.8,10.4,8.6c0,3.3-1.7,5.7-4.4,6.9c2.9,1.1,4.8,3.6,4.8,6.9
		c0,5.4-3.5,8.8-10.2,8.8H151z M157.3,155.1v6.8h6.9c2.5,0,4-1.1,4-3.4c0-1.8-1.1-3.4-4-3.4H157.3z M157.3,167.6v7.1h7.3
		c2.7,0,4-1.4,4-3.6c0-2.1-1.2-3.6-4-3.6H157.3z"/>
	<path class="st0" d="M116.6,170.6c-1.4,2.8-4.1,4.4-7.6,4.4c-5.7,0-8.9-4-8.9-10.1c0-6.2,3.2-10.1,8.9-10.1c4.2,0,7.3,2.2,8.3,6.1
		h6.9c-1.2-7.6-7.3-12.2-15.1-12.2c-9,0-15.7,6.5-15.7,16.2c0,9.8,6.7,16.2,15.7,16.2c7.2,0,12.9-3.9,14.7-10.5H116.6z"/>
</g>
</svg>
