<?xml version="1.0" encoding="utf-8"?>
<!-- Generator: Adobe Illustrator 26.1.0, SVG Export Plug-In . SVG Version: 6.00 Build 0)  -->
<svg version="1.1" id="Capa_1" xmlns="http://www.w3.org/2000/svg" xmlns:xlink="http://www.w3.org/1999/xlink" x="0px" y="0px"
	 viewBox="0 0 210 210" style="enable-background:new 0 0 210 210;" xml:space="preserve">
<style type="text/css">
	.st0{fill:#E8442A;}
	.st1{fill:#FFFFFF;}
</style>
<g>
	<polygon class="st0" points="60.99,60.95 60.99,148.7 148.89,148.7 148.89,60.95 60.99,60.95 	"/>
	<path class="st1" d="M60.4,60.33v89.17h89.2V60.33H60.4L60.4,60.33z M148.36,61.57c0,1.21,0,85.48,0,86.69c-1.21,0-85.5,0-86.71,0
		c0-1.21,0-85.48,0-86.69C62.86,61.57,147.14,61.57,148.36,61.57L148.36,61.57z"/>
	<path class="st1" d="M103.99,107.81h-4.68c-0.1,0-0.19,0.05-0.24,0.13l0,0c-0.58,1-1.86,2.63-4.3,2.63c-3.19,0-5.16-2.8-5.16-5.71
		c0-2.72,1.84-5.6,5.14-5.6c2.26,0,3.65,1.4,4.34,2.69c0.01,0.02,0.02,0.04,0.03,0.05c0.05,0.08,0.14,0.13,0.24,0.13h4.69
		c0.16,0,0.29-0.13,0.29-0.29c0-0.03,0-0.05-0.01-0.07c0-0.01-0.01-0.03-0.01-0.04c-0.92-2.96-4.08-6.78-9.54-6.78
		c-6.28,0-10.06,5.03-10.06,9.93c0,5.19,4.1,9.98,10.12,9.98c4.33,0,8.04-2.62,9.43-6.66c0-0.01,0.01-0.02,0.01-0.02
		c0.01-0.03,0.02-0.06,0.02-0.09C104.28,107.94,104.15,107.81,103.99,107.81L103.99,107.81z"/>
	<path class="st1" d="M124.81,107.81h-4.68c-0.1,0-0.19,0.05-0.24,0.13l0,0c-0.58,1-1.86,2.63-4.3,2.63c-3.19,0-5.16-2.8-5.16-5.71
		c0-2.72,1.84-5.6,5.14-5.6c2.26,0,3.65,1.4,4.34,2.69c0.01,0.02,0.02,0.04,0.03,0.05c0.05,0.08,0.14,0.13,0.24,0.13h4.69
		c0.16,0,0.29-0.13,0.29-0.29c0-0.03,0-0.05-0.01-0.07c0-0.01-0.01-0.03-0.01-0.04c-0.92-2.96-4.08-6.78-9.54-6.78
		c-6.28,0-10.06,5.03-10.06,9.93c0,5.19,4.1,9.98,10.12,9.98c4.33,0,8.04-2.62,9.43-6.66c0-0.01,0.01-0.02,0.01-0.02
		c0.01-0.03,0.02-0.06,0.02-0.09C125.1,107.94,124.97,107.81,124.81,107.81L124.81,107.81z"/>
	<path class="st1" d="M78.92,111.91c-0.04-0.1-0.15-0.18-0.27-0.18H72.4c-0.12,0-0.22,0.07-0.27,0.18l-0.88,2.42l0,0
		c-0.04,0.1-0.15,0.18-0.26,0.18h-4.64c-0.16,0-0.29-0.13-0.29-0.29c0-0.04,0.01-0.07,0.02-0.1l0.01-0.01l7.46-18.59l0.01-0.02
		c0.05-0.1,0.15-0.17,0.26-0.17h3.48c0.11,0,0.21,0.07,0.26,0.16l0.01,0.04l7.38,18.57l0.02,0.04c0.01,0.03,0.01,0.06,0.01,0.09
		c0,0.16-0.13,0.29-0.29,0.29H80c-0.12,0-0.22-0.07-0.27-0.18l0-0.01L78.92,111.91L78.92,111.91z M77.5,107.64l-0.01-0.03
		l-1.77-5.92c-0.02-0.08-0.09-0.13-0.17-0.13c-0.08,0-0.15,0.05-0.17,0.13l-1.78,5.94l-0.01,0.02c0,0.01,0,0.02,0,0.03
		c0,0.09,0.08,0.17,0.17,0.17h3.56c0.09,0,0.17-0.08,0.17-0.17C77.5,107.66,77.5,107.65,77.5,107.64L77.5,107.64z"/>
	<path class="st1" d="M137.89,111.91c-0.04-0.1-0.15-0.18-0.27-0.18h-6.25c-0.12,0-0.22,0.07-0.27,0.18l-0.88,2.42l0,0
		c-0.04,0.1-0.15,0.18-0.26,0.18h-4.64c-0.16,0-0.29-0.13-0.29-0.29c0-0.04,0.01-0.07,0.02-0.1l0.01-0.01l7.46-18.59l0.01-0.02
		c0.04-0.1,0.15-0.17,0.26-0.17h3.48c0.11,0,0.21,0.07,0.26,0.16l0.01,0.04l7.38,18.57l0.02,0.04c0.01,0.03,0.02,0.06,0.02,0.09
		c0,0.16-0.13,0.29-0.29,0.29h-4.69c-0.12,0-0.22-0.07-0.27-0.18l0-0.01L137.89,111.91L137.89,111.91z M136.47,107.64l-0.01-0.03
		l-1.77-5.92c-0.02-0.08-0.09-0.13-0.17-0.13c-0.08,0-0.15,0.05-0.17,0.13l-1.78,5.94l-0.01,0.02c0,0.01,0,0.02,0,0.03
		c0,0.09,0.08,0.17,0.17,0.17h3.56c0.09,0,0.17-0.08,0.17-0.17C136.48,107.66,136.47,107.65,136.47,107.64L136.47,107.64z"/>
	<polygon class="st0" points="7.28,98.93 7.28,114.87 35.24,114.87 35.24,98.93 7.28,98.93 	"/>
	<polygon class="st0" points="174.76,98.93 174.76,114.87 202.72,114.87 202.72,98.93 174.76,98.93 	"/>
	<path class="st0" d="M11.51,132.26l1.58,4.5l7.96-2.8l1.16,3.29c1.51,4.29,4.13,7.03,8.91,5.35c4.84-1.71,4.96-5.7,3.47-9.93
		l-2.67-7.58L11.51,132.26L11.51,132.26z M29.7,130.91l0.81,2.31c0.61,1.73,1.07,3.96-1.03,4.7c-1.9,0.67-3.01-0.72-3.57-2.31
		l-1.06-3L29.7,130.91L29.7,130.91z M20.31,153.13l2.62,3.98l7.22-4.75l1.29,1.97l-4.74,8.53l3.14,4.77l4.61-9.62
		c2.14,2.25,5,2.31,7.52,0.65c4.21-2.77,3.44-6.72,1-10.42l-4.6-6.99L20.31,153.13L20.31,153.13z M37.63,147.43l1.71,2.6
		c0.96,1.45,1.75,3.27-0.06,4.46c-1.97,1.29-3.26-0.56-4.22-2.02l-1.55-2.35L37.63,147.43L37.63,147.43z M41.14,164.09
		c-4.48,5.3-3.58,11.85,1.57,16.21c5.16,4.36,11.77,4.15,16.25-1.14c4.48-5.3,3.58-11.85-1.57-16.21
		C52.24,158.59,45.62,158.79,41.14,164.09L41.14,164.09z M44.92,167.29c2.6-3.08,6.53-3.6,9.63-0.98c3.1,2.62,3.24,6.58,0.64,9.66
		c-2.6,3.08-6.53,3.6-9.63,0.98C42.45,174.32,42.31,170.37,44.92,167.29L44.92,167.29z M83.28,187.22l-7.84-3.2l-1.66,4.07
		l3.59,1.47l-1.33,3.25c-1.01,0.12-2.64,0.08-4.56-0.71c-3.76-1.54-5.11-5.26-3.59-8.99c1.53-3.73,5.1-5.44,8.86-3.91
		c2.23,0.91,3.41,2.15,4.09,3.88l4.5-2.12c-1.25-2.69-3.76-4.54-6.93-5.83c-6.25-2.55-12.48-0.31-15.11,6.11
		c-2.62,6.42,0.25,12.38,6.51,14.93c2.94,1.2,6.03,1.8,9.19,1.51L83.28,187.22L83.28,187.22z M87.27,200.75l4.74,0.54l0.98-8.59
		l2.34,0.27l3.51,9.1l5.68,0.65l-4.43-9.7c3.1-0.2,4.98-2.35,5.32-5.36c0.57-5.01-2.96-6.95-7.36-7.45l-8.32-0.95L87.27,200.75
		L87.27,200.75z M94.01,183.81l3.1,0.35c1.73,0.2,3.64,0.75,3.39,2.91c-0.27,2.34-2.52,2.14-4.25,1.94l-2.79-0.32L94.01,183.81
		L94.01,183.81z M110.7,202.53l5.19-0.86l1.03-4.82l8.29-1.37l2.59,4.22l5.31-0.88l-12.82-19.8l-3.89,0.64L110.7,202.53
		L110.7,202.53z M122.95,191.77l-5.21,0.86l1.49-7.06L122.95,191.77L122.95,191.77z M141.01,195.86l4.22-2.22l-7.74-14.67l0.05-0.03
		l12.58,12.12l3.22-1.7l-2.72-17.32l0.05-0.03l7.74,14.67l4.22-2.22l-10.1-19.13l-6.35,3.35l2.16,14.82l-0.05,0.03l-10.99-10.16
		l-6.38,3.37L141.01,195.86L141.01,195.86z M172.09,176.17l3.08-3.64l-12.67-10.71l0.04-0.05l16.2,6.53l2.35-2.78l-9-15.05
		l0.04-0.05l12.67,10.71l3.08-3.64l-16.52-13.97l-4.64,5.48l7.54,12.94l-0.04,0.05l-14-5.31l-4.66,5.51L172.09,176.17L172.09,176.17
		z M192.47,147.99l5.77-14.11l-4.07-1.66l-3.97,9.7l-4.07-1.66l3.55-8.68l-4.07-1.66l-3.55,8.68l-3.73-1.53l3.76-9.19L178,126.2
		l-5.56,13.6L192.47,147.99L192.47,147.99z"/>
	<path class="st0" d="M29.8,91.12l1.62-5l-3.8-3.13L30.22,75l4.94-0.36l1.66-5.11L13.33,71.8l-1.22,3.75L29.8,91.12L29.8,91.12z
		 M25.88,75.29l-1.63,5.03l-5.58-4.57L25.88,75.29L25.88,75.29z M34.18,41.18c-2.98,0.09-5.45,2.08-6.87,4.03
		c-3.98,5.45-3.3,12.04,2.31,16.13c5.6,4.09,12.08,2.72,16.06-2.73c1.75-2.39,2.58-5.56,1.57-8.53l-4.74,1.46
		c0.61,1.65,0.38,3.42-0.75,4.97c-2.03,2.79-5.97,3.21-9.23,0.83c-3.26-2.38-4.06-6.25-1.94-9.16c1.04-1.43,2.37-2.16,3.84-2.26
		L34.18,41.18L34.18,41.18z M55.43,23.51c-2.89-0.75-5.81,0.45-7.73,1.92c-5.36,4.11-6.57,10.62-2.35,16.12
		c4.22,5.5,10.82,6.03,16.18,1.92c2.35-1.8,4.05-4.61,3.92-7.74l-4.96,0.06c0.12,1.76-0.6,3.39-2.13,4.56
		c-2.74,2.1-6.64,1.39-9.09-1.81c-2.45-3.2-2.13-7.15,0.73-9.34c1.41-1.08,2.89-1.41,4.33-1.08L55.43,23.51L55.43,23.51z
		 M71.6,36.55l4.46-1.69l-3.07-8.08l2.2-0.84l7.3,6.47l5.34-2.03l-8.39-6.58c2.66-1.6,3.34-4.37,2.26-7.2
		c-1.79-4.71-5.82-4.82-9.96-3.24l-7.83,2.97L71.6,36.55L71.6,36.55z M69.81,18.41l2.91-1.11c1.63-0.62,3.58-1,4.35,1.03
		c0.84,2.2-1.26,3.06-2.88,3.68l-2.63,1L69.81,18.41L69.81,18.41z M92.65,29.79l15.22-0.96l-0.28-4.39L97.13,25.1l-0.28-4.39
		l9.36-0.59l-0.28-4.39l-9.36,0.59l-0.26-4.02l9.91-0.63l-0.28-4.39L91.28,8.21L92.65,29.79L92.65,29.79z M113.85,29.08l7.57,1.85
		c6.26,1.53,12.71-0.77,14.37-7.56c1.88-7.69-3.09-11.95-9.86-13.6l-6.95-1.69L113.85,29.08L113.85,29.08z M122.56,13.47l2.73,0.67
		c3.92,0.96,6.74,3.69,5.74,7.81c-1.17,4.78-4.8,5.62-9.11,4.57l-2.4-0.59L122.56,13.47L122.56,13.47z M137.31,36.36l4.27,2.12
		l9.63-19.37l-4.27-2.12L137.31,36.36L137.31,36.36z M149.69,43.72l3.78,2.9l10.6-13.82l4.9,3.75l2.57-3.35L157.96,22.8l-2.57,3.35
		l4.9,3.75L149.69,43.72L149.69,43.72z M161.14,53.62l9.28,12.1l3.49-2.68l-6.38-8.32l3.49-2.68l5.71,7.44l3.49-2.68l-5.71-7.44
		l3.2-2.45l6.04,7.88l3.49-2.68l-8.94-11.66L161.14,53.62L161.14,53.62z M173.41,71.03l2.59,7.35c2.14,6.08,7.59,10.22,14.19,7.9
		c7.47-2.63,8.32-9.12,6.01-15.69l-2.38-6.74L173.41,71.03L173.41,71.03z M191.25,69.8l0.93,2.65c1.34,3.8,0.59,7.66-3.41,9.07
		c-4.64,1.63-7.33-0.95-8.8-5.13l-0.82-2.33L191.25,69.8L191.25,69.8z"/>
</g>
</svg>
