<?xml version="1.0" encoding="UTF-8"?>
<svg id="Capa_1" data-name="Capa 1" xmlns="http://www.w3.org/2000/svg" viewBox="0 0 846.96 211.74">
  <defs>
    <style>
      .cls-1 {
        fill: #df6437;
        stroke-width: 0px;
      }
    </style>
  </defs>
  <g>
    <path class="cls-1" d="m48.69,184.6v-12.18c0-5.91,3.48-9.65,9.44-9.65,4.11,0,8.44,1.42,9.49,5.8h.11c.37-3.27,3.06-5.12,6.28-5.33l6.43-.32c4.17-.21,5.22-.9,5.91-2v5.59c-.79.79-3.59,1.16-5.43,1.27l-5.85.32c-5.17.37-5.48,3.22-5.48,5.59v6.28h16.77v4.64h-37.65Zm17.09-4.64v-4.59c0-2.74,0-7.75-7.28-7.75-3.69,0-6.01,2.48-6.01,6.8v5.54h13.29Z"/>
    <path class="cls-1" d="m48.69,157.44v-19.46h4.11v14.82h11.81v-13.97h4.11v13.97h13.5v-15.45h4.11v20.09h-37.65Z"/>
    <path class="cls-1" d="m48.69,136.41v-4.85l32.32-7.38v-.11l-32.32-7.38v-4.85l37.65,9.49v5.91l-37.65,9.18Z"/>
    <path class="cls-1" d="m48.69,109.1v-4.64h37.65v4.64h-37.65Z"/>
    <path class="cls-1" d="m58.44,82.57c-3.96,0-6.7,1.42-6.7,5.85,0,3.9,2.11,6.22,6.12,6.22,10.6,0,4.27-17.77,18.03-17.77,8.7,0,11.18,6.38,11.18,11.71,0,8.81-4.53,11.39-12.55,11.39v-4.64c4.22,0,8.75-.26,8.75-7.07,0-3.69-2.64-6.54-6.64-6.54-10.65,0-4.48,17.77-18.3,17.77-3.48,0-10.39-1.48-10.39-11.02,0-7.17,3.59-10.44,10.49-10.55v4.64Z"/>
    <path class="cls-1" d="m86.34,60.96v4.64h-33.54v9.44h-4.11v-23.57h4.11v9.49h33.54Z"/>
    <path class="cls-1" d="m48.69,43.72v-6.22l37.65-10.12v4.85l-10.34,2.69v12.02l10.34,2.8v4.85l-37.65-10.86Zm23.52,2.27v-10.12l-18.19,4.8v.11l18.19,5.22Z"/>
  </g>
  <g>
    <path class="cls-1" d="m232.15,28.92c-1.41-1.89-3.66-2.99-6.2-2.99h-103.25c-4.39,0-7.7,3.31-7.7,7.7s3.32,7.7,7.72,7.7l88.38-.2-94.73,132.5-.42.68-.06.11c-.59,1.16-.89,2.4-.89,3.67,0,.91.14,1.77.4,2.59l1.09,2.11c1.41,1.9,3.66,3.01,6.21,3.01h103.25c4.39,0,7.7-3.26,7.7-7.59s-3.31-7.59-7.7-7.59h-88.43L231.85,38.39c1.49-1.73,1.8-3.53,1.8-4.75,0-.9-.13-1.76-.4-2.57"/>
    <path class="cls-1" d="m402.59,170.63h-103.25c-4.39,0-7.7,3.26-7.7,7.59s3.31,7.59,7.7,7.59h103.25c4.39,0,7.7-3.26,7.7-7.59s-3.31-7.59-7.7-7.59Z"/>
    <path class="cls-1" d="m299.34,113.57h92.84c4.39,0,7.7-3.31,7.7-7.7s-3.31-7.7-7.7-7.7h-92.84c-4.39,0-7.7,3.31-7.7,7.7s3.31,7.7,7.7,7.7Z"/>
    <path class="cls-1" d="m402.59,25.93h-103.25c-4.39,0-7.7,3.26-7.7,7.59s3.31,7.59,7.7,7.59h103.25c4.39,0,7.7-3.26,7.7-7.59s-3.31-7.59-7.7-7.59Z"/>
    <path class="cls-1" d="m468.53,31.57h0c-.17.66-.25,1.36-.25,2.07,0,1.27.3,2.51.89,3.67l.28.54,51.77,65.64h-45.23c-4.39,0-7.7,3.21-7.7,7.47v67.14c0,4.39,3.26,7.7,7.59,7.7s7.59-3.31,7.59-7.7v-59.43h44.16c1.75,0,3.55-.06,5.36-.19l50.4,64.16c1.45,2.02,3.74,3.17,6.29,3.17,4.26,0,7.47-3.31,7.47-7.7,0-1.26-.29-2.48-.87-3.64l-.28-.56-45.85-58.19c5.47-1.41,10.39-3.32,14.67-5.67,14.69-8.06,22.14-20.8,22.14-37.86s-7.45-29.8-22.14-37.86c-10.12-5.57-22.64-8.39-37.19-8.39h-51.63c-2.55,0-4.81,1.11-6.21,3.01m101.76,43.24c0,11.2-4.67,19.2-14.31,24.48-4.68,2.69-10.56,4.62-17.49,5.72l-48.21-61.27h36.09c11.86,0,21.93,2.24,29.92,6.65,9.42,5.22,14,13.21,14,24.43Z"/>
    <path class="cls-1" d="m775.07,49.32h0c-15.85-15.52-35.31-23.38-57.85-23.38-14.79,0-28.35,3.64-40.29,10.83-11.93,7.17-21.32,16.99-27.91,29.17-6.55,12.11-9.88,25.55-9.88,39.94s3.32,27.83,9.88,39.94c6.59,12.19,15.99,22.01,27.91,29.17,11.95,7.18,25.5,10.83,40.29,10.83,22.54,0,42-7.87,57.85-23.38,15.88-15.55,23.94-34.58,23.94-56.55s-8.05-41-23.94-56.55Zm-57.85,121.31c-18.35,0-33.07-6.09-45.03-18.61-12.03-12.6-17.88-27.69-17.88-46.15s5.85-33.55,17.88-46.15c11.95-12.52,26.68-18.61,45.03-18.61s34.19,6.21,47.26,18.99c13.02,12.74,19.35,27.71,19.35,45.77s-6.33,33.04-19.35,45.77c-13.06,12.78-28.52,18.99-47.26,18.99Zm48.39-17.83h0Z"/>
  </g>
</svg>