<svg width="20" height="21" viewBox="0 0 20 21" fill="none" xmlns="http://www.w3.org/2000/svg">
<path fill-rule="evenodd" clip-rule="evenodd" d="M13.8 14.7H11.8V16.7H13.8V14.7ZM11 9.49998H9V11.5H11V9.49998ZM13.8 12.1H11.8V14.1H13.8V12.1ZM16.5 9.49998H14.5V11.5H16.5V9.49998ZM11 12.1H9V14.1H11V12.1ZM13.8 9.49998H11.8V11.5H13.8V9.49998ZM16.5 12.1H14.5V14.1H16.5V12.1ZM5.5 14.7H3.5V16.7H5.5V14.7ZM5.5 12.1H3.5V14.1H5.5V12.1ZM16 2.59998V3.49998C16.3 3.79998 16.6 4.19998 16.6 4.69998C16.6 5.59998 15.9 6.29998 15 6.29998C14.1 6.29998 13.4 5.59998 13.4 4.69998C13.4 4.19998 13.6 3.79998 14 3.49998V2.59998H6.3V3.49998C6.6 3.79998 6.9 4.19998 6.9 4.69998C6.9 5.59998 6.2 6.29998 5.3 6.29998C4.4 6.29998 3.7 5.59998 3.7 4.69998C3.7 4.19998 3.9 3.79998 4.3 3.49998V2.59998H0.5V19.9H19.5V2.59998H16ZM17.8 18.2H2.2V7.39998H17.7V18.2H17.8ZM8.3 9.49998H6.3V11.5H8.3V9.49998ZM8.3 14.7H6.3V16.7H8.3V14.7ZM11 14.7H9V16.7H11V14.7ZM8.3 12.1H6.3V14.1H8.3V12.1ZM5.2 5.59998C5.6 5.59998 6 5.29998 6 4.79998V1.89998C6 1.49998 5.6 1.09998 5.2 1.09998C4.8 1.09998 4.4 1.49998 4.4 1.89998V4.79998C4.4 5.29998 4.8 5.59998 5.2 5.59998ZM14.9 5.59998C15.3 5.59998 15.7 5.19998 15.7 4.79998V1.89998C15.7 1.49998 15.3 1.09998 14.9 1.09998C14.5 1.09998 14.1 1.49998 14.1 1.89998V4.79998C14.1 5.29998 14.5 5.59998 14.9 5.59998Z" fill="#4D7B19"/>
</svg>
