<?xml version="1.0" encoding="utf-8"?>
<!-- Generator: Adobe Illustrator 16.0.0, SVG Export Plug-In . SVG Version: 6.00 Build 0)  -->
<!DOCTYPE svg PUBLIC "-//W3C//DTD SVG 1.1//EN" "http://www.w3.org/Graphics/SVG/1.1/DTD/svg11.dtd">
<svg version="1.1" id="Layer_1" xmlns="http://www.w3.org/2000/svg" xmlns:xlink="http://www.w3.org/1999/xlink" x="0px" y="0px"
	 width="24px" height="24px" viewBox="-3 -3 24 24" enable-background="new -3 -3 24 24" xml:space="preserve">
<path fill="#FFFFFF" d="M14.984,2.939h-3.906V-2H6.923v4.939H3.016L9,10.188L14.984,2.939z M10.438,19.064
	c-0.073-0.195-0.115-0.406-0.138-0.595h-2.6c-0.023,0.188-0.065,0.399-0.139,0.595c-0.153,0.394-0.399,0.7-0.876,0.703V20h4.627
	v-0.232C10.835,19.765,10.59,19.458,10.438,19.064z M14.125,10.57H3.875c-0.172,0-0.31,0.14-0.31,0.312v6.733
	c0,0.17,0.138,0.312,0.31,0.312h10.25c0.172,0,0.309-0.143,0.309-0.312v-6.733C14.434,10.709,14.297,10.57,14.125,10.57z
	 M12.93,16.42H5.071v-4.346h7.858V16.42L12.93,16.42z"/>
</svg>
