<?xml version="1.0" encoding="utf-8"?>
<!-- Generator: Adobe Illustrator 16.0.0, SVG Export Plug-In . SVG Version: 6.00 Build 0)  -->
<!DOCTYPE svg PUBLIC "-//W3C//DTD SVG 1.1//EN" "http://www.w3.org/Graphics/SVG/1.1/DTD/svg11.dtd">
<svg version="1.1" id="Layer_1" xmlns="http://www.w3.org/2000/svg" xmlns:xlink="http://www.w3.org/1999/xlink" x="0px" y="0px"
	 width="24px" height="24px" viewBox="-3 -3 24 24" enable-background="new -3 -3 24 24" xml:space="preserve">
<path fill="#FFFFFF" d="M18.154,1.492l1.766-1.771l-1.638-1.638L16.517-0.15L14.666-2v5.371h5.371L18.154,1.492z M20.037,14.631
	h-5.371V20l1.875-1.876l1.768,1.767l1.643-1.637l-1.772-1.773L20.037,14.631z M-0.155,16.513l-1.769,1.766l1.641,1.638l1.767-1.768
	L3.332,20v-5.369h-5.366L-0.155,16.513z M3.332,3.371V-2L1.458-0.12l-1.77-1.77l-1.642,1.64l1.77,1.77l-1.85,1.851H3.332z
	 M15.711,11.262V6.86c0-1.824-1.473-3.303-3.297-3.303h-6.88c-1.821,0-3.3,1.479-3.3,3.303v4.402c0,1.824,1.479,3.303,3.3,3.303
	h6.878C14.238,14.565,15.711,13.086,15.711,11.262z"/>
</svg>
