<?xml version="1.0" encoding="utf-8"?>
<!-- Generator: Adobe Illustrator 16.0.0, SVG Export Plug-In . SVG Version: 6.00 Build 0)  -->
<!DOCTYPE svg PUBLIC "-//W3C//DTD SVG 1.1//EN" "http://www.w3.org/Graphics/SVG/1.1/DTD/svg11.dtd">
<svg version="1.1" id="Layer_1" xmlns="http://www.w3.org/2000/svg" xmlns:xlink="http://www.w3.org/1999/xlink" x="0px" y="0px"
	 width="24px" height="24px" viewBox="0 0 24 24" enable-background="new 0 0 24 24" xml:space="preserve">
<path fill="#FFFFFF" d="M17.25,5.314l1.49,1.493L20.346,5.2l1.686,1.683V2H17.15l1.705,1.709L17.25,5.314z M20.322,18.83
	l-1.607-1.61l-1.49,1.494l1.607,1.606L17.15,22h4.881v-4.881L20.322,18.83z M6.752,18.684l-1.492-1.49l-1.609,1.605l-1.682-1.682V22
	h4.882l-1.707-1.706L6.752,18.684z M5.283,6.782l1.492-1.491L5.169,3.683L6.851,2H1.969v4.883l1.708-1.708L5.283,6.782z
	 M18.105,14.057v-4.002c0-1.658-1.344-3.002-3.002-3.002h-6.25c-1.658,0-3.002,1.344-3.002,3.002v4.002
	c0,1.658,1.344,3.002,3.002,3.002h6.25C16.762,17.059,18.105,15.715,18.105,14.057z"/>
</svg>
