<?xml version="1.0" encoding="utf-8"?>
<!-- Generator: Adobe Illustrator 27.8.1, SVG Export Plug-In . SVG Version: 6.00 Build 0)  -->
<svg version="1.1" id="Layer_1" xmlns="http://www.w3.org/2000/svg" xmlns:xlink="http://www.w3.org/1999/xlink" x="0px" y="0px"
	 viewBox="0 0 300 328.1" style="enable-background:new 0 0 300 328.1;" xml:space="preserve">
<style type="text/css">
	.st0{fill:none;}
	.st1{fill:#FFFFFF;}
</style>
<rect x="-107.3" y="118.1" class="st0" width="118.2" height="158"/>
<g>
	<path class="st1" d="M221.9,8.5H78.1c-19.7,0-35.7,16-35.7,35.7v240.5c0,19.7,16,35.7,35.7,35.7h143.7c19.7,0,35.7-16,35.7-35.7
		V44.1C257.5,24.4,241.5,8.5,221.9,8.5z M251.8,283.7c-0.1,12-5.8,21.2-16.1,27.5c-5.4,3.3-11.2,4.7-17.5,4.6
		c-46.3-0.1-92.6,0.1-138.9-0.1c-12.1-0.1-21.3-6.3-27.4-16.8c-3.1-5.4-4.2-11.2-4.2-17.5c0.1-78.6,0-157.3,0.1-235.9
		c0-11.8,5.8-20.9,15.8-27.3c5.4-3.4,11.4-4.7,17.8-4.7c46.6,0.1,93.1,0,139.7,0.1c7.5,0,14,3.1,19.6,8c6.3,5.5,9.7,12.6,11.1,20.7
		c0.1,0.8,0.1,1.7,0.1,2.6c0,39.9,0,79.8,0,119.6C251.9,204.3,252.1,244,251.8,283.7z"/>
	<path class="st1" d="M174.7,125.5C174.7,125.5,174.7,125.4,174.7,125.5c-1.1-1.5-2.3-2.9-3.4-4.4c-0.1-0.2-0.2-0.2-0.4-0.1
		c-0.1,0.1-0.2,0.1-0.3,0.2c-6,3.9-12.6,5.9-19.8,6.1c-3.9,0.1-7.7-0.4-11.4-1.5c-5.1-1.5-9.7-4-13.8-7.4c-0.5-0.4-0.4-0.4-0.9,0
		c-1.1,1.1-2.2,2.2-3.3,3.3c-0.1,0.1-0.2,0.2-0.3,0.3c-0.1,0.1-0.1,0.2,0,0.3c0.1,0.1,0.2,0.1,0.2,0.2c7.2,6.1,15.4,9.5,24.8,10.4
		c3.4,0.3,6.9,0.2,10.3-0.3c6.4-1,12.3-3.3,17.7-6.8C174.4,125.8,174.6,125.7,174.7,125.5z"/>
	<path class="st1" d="M159.6,165.1c-1.1-6.3-7.1-11.1-14.1-10c-5.9,0.9-10.3,5.9-10.4,11.9c-0.1,3.9,0,7.7,0,11.6
		c0,0.5,0,0.5,0.5,0.5c1.4,0,2.7,0,4.1,0c1,0,0.9,0.1,0.9-0.9c0-3.8,0-7.6,0-11.5c0-3.7,3.4-7.4,8.1-6.6c3.7,0.6,5.7,3.8,5.7,6.8
		c0,1.8,0,3.6,0,5.5c0,0,0,0,0,0c0,0.4,0,0.9,0,1.3c0,1.6,0,3.2,0,4.9c0,0.2-0.1,0.5,0.3,0.5c1.6,0,3.2,0,4.8,0
		c0.3,0,0.4-0.1,0.3-0.4c0-0.1,0-0.2,0-0.3c0-3.6,0-7.2,0-10.9C159.8,166.7,159.7,165.9,159.6,165.1z"/>
	<path class="st1" d="M149.9,73.5c-8.7,0-15.7,7-15.8,15.7c0,8.7,7.1,15.8,15.7,15.8c8.7,0,15.7-7,15.7-15.7
		C165.6,80.6,158.6,73.5,149.9,73.5z M149.9,99.1c-5.5,0-9.9-4.4-9.9-9.9c0-5.4,4.5-9.9,9.9-9.9c5.4,0,9.9,4.4,9.9,9.9
		C159.8,94.7,155.3,99.1,149.9,99.1z"/>
	<path class="st1" d="M168.7,66.2c-10.1-8.8-28.2-10-40.2,2.4c-12.1,12.5-10.9,32.6,2.5,43.6c13.2,10.8,31.5,8,41.2-3.2
		c-0.1-0.2-0.2-0.2-0.4-0.3c-1.3-0.9-2.5-1.8-3.8-2.7c-0.6-0.4-0.5-0.4-0.9,0.1c-4.2,4.2-9.3,6.6-15.2,7.1c-4.2,0.3-8.2-0.4-12-2.2
		c-9.6-4.5-15.2-14.7-13.6-25.2c1-7,4.5-12.5,10.4-16.4c5.1-3.4,10.7-4.7,16.7-3.8c3.5,0.5,6.7,1.7,9.7,3.6c0.4,0.2,0.6,0.2,1,0
		c1.2-0.8,2.5-1.6,3.7-2.3C168.1,66.6,168.4,66.4,168.7,66.2z"/>
	<path class="st1" d="M106.3,167.3c0,6.8,5.5,12.3,12.3,12.3c6.8,0,12.3-5.5,12.3-12.3c0-7-5.8-12.3-12.3-12.3
		C111.8,155,106.3,160.5,106.3,167.3z M125.9,167.2c0,4-3.1,7.2-6.9,7.4c-4.1,0.2-7.5-3-7.6-6.9c-0.1-3.9,3-7.4,6.8-7.5
		C122.4,159.9,125.7,163,125.9,167.2z"/>
	<path class="st1" d="M189.6,155c-3.6,0.6-6.3,2.6-8.1,5.8c-1.6,2.9-1.9,6-1.3,9.2c0.6,3.4,2.4,6.1,5.4,7.9c1.8,1.1,3.7,1.6,5.8,1.7
		c2.5,0.2,4.9-0.3,7.1-1.6c1.5-0.9,2.7-2,3.6-3.4c0.1-0.2,0.3-0.4,0-0.6c-1.1-0.8-2.3-1.7-3.4-2.6c-0.1,0.1-0.1,0.1-0.2,0.2
		c-2.1,2.7-4.8,3.6-8.1,2.9c-2.7-0.6-4.6-2.6-5-5.1c-0.1-0.7-0.2-0.7,0.6-0.7c3.9,0,7.9,0,11.8,0c1.5,0,3.1,0,4.6,0
		c0.5,0,0.5,0,0.6-0.5c0.2-2.5-0.2-4.9-1.2-7.1c-1.1-2.6-2.9-4.5-5.6-5.5C194,154.8,191.8,154.6,189.6,155z M197.3,164.1
		c0,0.1,0,0.2,0,0.3c0,0.2-0.1,0.3-0.3,0.3c-0.2,0-0.4,0-0.5,0c-1.7,0-3.4,0-5.1,0c0,0,0,0,0,0c-1.8,0-3.6,0-5.5,0
		c-0.5,0-0.6,0-0.4-0.6c0.6-2.6,2.8-4.5,5.5-4.6c1-0.1,1.9,0,2.8,0.4C195.8,160.7,196.9,162.1,197.3,164.1z"/>
	<path class="st1" d="M222.2,179.3c2.2-0.5,4.1-1.6,5.7-3.2c0.4-0.4,0.4-0.4,0-0.8c-0.9-1.1-1.8-2.2-2.7-3.3
		c-0.1-0.1-0.2-0.3-0.3-0.3c-3.3,3.8-8.2,3.3-10.9,0.7c-2.8-2.8-2.8-7.2-0.1-10c2.5-2.6,7.3-3.5,11,0.5c0.2-0.1,0.3-0.3,0.4-0.4
		c0.8-1,1.6-2,2.4-3c0.5-0.6,0.5-0.6-0.1-1.1c-3.2-2.8-6.8-3.9-11-3c-6.5,1.3-10.9,7.7-9.7,14.3C208.3,176.5,215.2,181,222.2,179.3z
		"/>
	<path class="st1" d="M168.3,73.5c1.5,1.9,2.6,3.9,3.6,6.1c1.7,4.1,2.4,8.3,1.9,12.7c-0.4,2.9-1.2,5.6-2.6,8.1
		c-0.3,0.5-0.3,0.4,0.2,0.8c1.3,0.9,2.6,1.9,3.8,2.8c0.1,0.1,0.3,0.3,0.5,0.2c0-0.1,0.1-0.1,0.1-0.2c3.3-5.7,4.5-11.9,3.7-18.5
		c-0.4-3.4-1.4-6.7-3-9.8c-0.2-0.4-0.2-0.5,0.2-0.7c2.1-1.3,4.1-2.6,6.2-3.8c0.1-0.1,0.2-0.2,0.5-0.2c3.3,6,4.9,12.5,4.7,19.4
		c-0.4,10.7-4.6,19.6-12.3,27c1.2,1.5,2.4,3,3.6,4.5c1.2-1,2.2-2.1,3.2-3.1c6.1-6.8,9.8-14.8,11-23.9c0.5-3.5,0.5-7,0.1-10.6
		c-0.5-3.8-1.4-7.5-2.8-11.1c-1.4-3.5-3.1-6.8-5.3-9.8c-0.3-0.5-0.3-0.5-0.8-0.2c-5.4,3.3-10.8,6.7-16.2,10
		C168.5,73.2,168.3,73.3,168.3,73.5z"/>
	<path class="st1" d="M172.5,159.3c1.2,0,2.4,0,3.6,0c0.5,0,0.5,0,0.5-0.5c0-1,0-2,0-3c0-0.5,0-0.5-0.5-0.5c-1.2,0-2.4,0-3.6,0
		c-0.5,0-0.5,0-0.5-0.5c0-1.2,0-2.5,0-3.7c0-0.5,0-0.5-0.5-0.5c-1.5,0-2.9,0-4.4,0c-0.5,0-0.5,0-0.5,0.5c0,1,0,2,0,3
		c0,0.4,0.2,0.9-0.1,1.1c-0.3,0.3-0.7,0.1-1.1,0.1c-0.5,0-1,0-1.4,0c-0.5,0-0.5,0-0.5,0.5c0,1,0,2,0,3c0,0.5,0,0.5,0.6,0.5
		c0.7,0,1.4,0,2,0c0.5,0,0.5,0,0.5,0.6c0,2,0,4,0,6.1c0,0,0,0,0,0c0,1.9,0,3.9,0,5.8c0,1.3,0.2,2.5,0.6,3.7c0.8,2.3,2.3,3.6,4.7,4.1
		c1.3,0.3,2.7,0.2,4,0c0.3,0,0.4-0.2,0.4-0.5c0-1.2,0-2.4,0-3.6c0-0.4,0-0.4-0.5-0.4c-0.6,0.1-1.1,0-1.7,0c-1.1-0.1-1.7-0.6-2-1.7
		c-0.1-0.5-0.2-1-0.2-1.6c0-4,0-7.9,0-11.9C171.9,159.3,171.9,159.3,172.5,159.3z"/>
	<path class="st1" d="M52.4,197.5c0,0.4,0,0.8,0,1.2c0,29.2,0,58.4,0,87.6c0,0.6,0,1.2,0.1,1.8c1.5,6.7,4.5,12.5,10,16.9
		c4.6,3.7,9.7,6.1,15.6,6.1c47.8,0,95.7,0,143.5,0c0.9,0,1.7,0,2.6-0.1c6.9-1.4,12.7-4.6,17.1-10.2c3.6-4.6,5.9-9.6,5.9-15.5
		c0-28.4,0-56.9,0-85.3c0-0.8,0-1.7,0-2.3C182.3,234.5,117.4,234.6,52.4,197.5z M90.9,275.5h-4.5v-23.6h4.5V275.5z M110.1,272.8
		c-0.7,1-1.7,1.7-3,2.3c-1.3,0.6-2.9,0.9-4.8,0.9c-0.5,0-1-0.1-1.7-0.2c-0.6-0.1-1.3-0.3-1.9-0.5c-0.7-0.2-1.3-0.4-1.9-0.6
		c-0.6-0.2-1.1-0.5-1.5-0.7l1-3.6c0.5,0.2,1,0.5,1.7,0.7c0.7,0.3,1.4,0.5,2.1,0.6c0.7,0.2,1.4,0.3,2.1,0.3c1,0,1.8-0.1,2.4-0.3
		c0.6-0.2,1.1-0.5,1.4-0.8c0.3-0.4,0.5-0.8,0.5-1.4c0-0.5-0.2-1-0.7-1.4c-0.4-0.4-1-0.8-1.7-1.2c-0.7-0.4-1.4-0.8-2.1-1.2
		c-0.8-0.5-1.7-1-2.5-1.5c-0.8-0.5-1.6-1.1-2.3-1.8c-0.7-0.6-1.2-1.3-1.7-2.1c-0.4-0.7-0.6-1.6-0.6-2.4c0-1.2,0.3-2.3,1-3.2
		c0.6-0.9,1.6-1.7,2.8-2.3c1.2-0.6,2.7-0.8,4.4-0.8c1.2,0,2.3,0.2,3.5,0.6c1.2,0.4,2.2,0.8,3.1,1.2l-1.5,3.6c-0.5-0.2-1-0.5-1.5-0.7
		c-0.5-0.2-1.1-0.4-1.7-0.6c-0.6-0.1-1.2-0.2-1.9-0.2c-1,0-1.9,0.2-2.5,0.6c-0.7,0.4-1,1-1,1.8c0,0.6,0.2,1.1,0.6,1.5
		c0.4,0.4,1,0.8,1.7,1.2c0.7,0.4,1.4,0.8,2.2,1.3c0.8,0.5,1.7,1,2.5,1.5s1.6,1,2.3,1.6c0.7,0.6,1.2,1.2,1.7,2
		c0.4,0.8,0.6,1.6,0.6,2.6C111.2,270.7,110.8,271.8,110.1,272.8z M134.9,269.9c-1,1.8-2.3,3.3-4,4.3c-1.7,1.1-3.7,1.6-6.1,1.7
		c-2.4,0-4.5-0.5-6.2-1.6c-1.7-1.1-3-2.6-3.9-4.4c-0.9-1.8-1.3-3.9-1.3-6.1c0-2.4,0.5-4.6,1.5-6.4c1-1.9,2.3-3.3,4.1-4.4
		c1.7-1.1,3.7-1.6,6-1.7c2.5,0,4.6,0.5,6.3,1.6c1.7,1.1,3,2.6,3.9,4.4c0.9,1.8,1.3,3.9,1.3,6.1C136.3,266,135.8,268.1,134.9,269.9z
		 M213,255.9h3v19.6h-4.5v-14.7l-3.9,1.5l-1.7-3.3L213,255.9z M186.6,260.3c0.8-1.5,2-2.7,3.4-3.6c1.5-0.9,3.1-1.3,5-1.3
		c1.9,0,3.5,0.4,5,1.3c1.4,0.9,2.6,2.1,3.4,3.6c0.8,1.5,1.2,3.3,1.2,5.2c0,2-0.4,3.8-1.2,5.4c-0.8,1.6-2,2.8-3.4,3.7
		c-1.5,0.9-3.1,1.3-5,1.3c-1.9,0-3.5-0.4-5-1.3s-2.6-2.1-3.4-3.7c-0.8-1.6-1.3-3.3-1.3-5.3C185.4,263.6,185.8,261.9,186.6,260.3z
		 M165.6,260.3c0.8-1.5,2-2.7,3.4-3.6c1.5-0.9,3.1-1.3,5-1.3c1.9,0,3.5,0.4,5,1.3c1.4,0.9,2.6,2.1,3.4,3.6c0.8,1.5,1.2,3.3,1.2,5.2
		c0,2-0.4,3.8-1.2,5.4c-0.8,1.6-2,2.8-3.4,3.7c-1.5,0.9-3.1,1.3-5,1.3c-1.9,0-3.5-0.4-5-1.3c-1.4-0.9-2.6-2.1-3.4-3.7
		c-0.8-1.6-1.3-3.3-1.3-5.3C164.4,263.6,164.8,261.9,165.6,260.3z M158.3,256.5c1.4,0.7,2.4,1.7,3.2,3.1c0.8,1.4,1.2,3.1,1.2,5.1
		c0,1.6-0.3,3.1-0.8,4.4c-0.6,1.3-1.3,2.5-2.3,3.5c-1,1-2,1.9-3.2,2.6c-1.2,0.8-2.4,1.3-3.7,1.8c-1.3,0.4-2.4,0.7-3.5,0.9l-0.6-3.7
		c0.9-0.3,1.8-0.6,2.8-0.9c0.9-0.3,1.8-0.8,2.7-1.2c0.9-0.5,1.6-1.1,2.3-1.7c0.4-0.4,0.7-0.8,1-1.2c-0.2,0.1-0.5,0.3-0.7,0.4
		c-0.8,0.3-1.7,0.5-2.8,0.5c-1.5,0-2.8-0.3-3.9-1c-1.1-0.6-2-1.5-2.7-2.6c-0.7-1.1-1-2.3-1-3.6c0-1.5,0.3-2.7,1-3.8
		c0.6-1.1,1.5-1.9,2.6-2.5c1.1-0.6,2.4-0.9,3.8-0.9C155.4,255.5,156.9,255.8,158.3,256.5z"/>
	<path class="st1" d="M128.5,256.2c-1-0.7-2.2-1.1-3.7-1.1c-1.2,0-2.4,0.4-3.4,1.1c-1.1,0.7-1.9,1.7-2.5,3c-0.6,1.3-1,2.8-1,4.6
		c0,1.6,0.3,3.1,0.8,4.3c0.6,1.3,1.3,2.3,2.4,3c1,0.7,2.2,1.1,3.7,1.1c1.3,0,2.4-0.3,3.4-0.9c1-0.6,1.9-1.6,2.5-2.9
		c0.6-1.3,1-2.9,1-4.8c0-1.6-0.3-3.1-0.8-4.3C130.3,258,129.5,257,128.5,256.2z"/>
	<path class="st1" d="M152,265.8c0.5,0.4,1.2,0.5,1.9,0.5c0.8,0,1.5-0.1,2.3-0.3s1.4-0.5,2-0.9c0.1-0.1,0.2-0.2,0.3-0.2
		c0-1.3-0.2-2.4-0.6-3.2c-0.4-0.8-0.9-1.5-1.7-1.9c-0.7-0.4-1.5-0.6-2.4-0.6c-0.7,0-1.3,0.1-1.9,0.4c-0.5,0.3-1,0.7-1.3,1.2
		c-0.3,0.5-0.5,1.1-0.5,1.7c0,0.7,0.2,1.3,0.5,1.9C151,264.9,151.5,265.4,152,265.8z"/>
	<path class="st1" d="M171.2,271.2c0.8,0.6,1.8,0.8,2.8,0.8c1.1,0,2-0.3,2.9-0.8c0.8-0.6,1.5-1.3,2-2.3c0.5-0.9,0.7-2,0.7-3.3
		c0-1.2-0.2-2.4-0.7-3.3c-0.5-1-1.1-1.7-2-2.3c-0.8-0.6-1.8-0.8-2.9-0.8c-1.1,0-2,0.3-2.8,0.8c-0.8,0.5-1.5,1.3-2,2.2
		c-0.5,0.9-0.7,2-0.7,3.2c0,1.3,0.2,2.4,0.7,3.4C169.7,269.9,170.4,270.7,171.2,271.2z"/>
	<path class="st1" d="M192.2,271.2c0.8,0.6,1.8,0.8,2.8,0.8c1.1,0,2-0.3,2.9-0.8c0.8-0.6,1.5-1.3,2-2.3c0.5-0.9,0.7-2,0.7-3.3
		c0-1.2-0.2-2.4-0.7-3.3c-0.5-1-1.1-1.7-2-2.3c-0.8-0.6-1.8-0.8-2.9-0.8c-1.1,0-2,0.3-2.8,0.8s-1.5,1.3-2,2.2
		c-0.5,0.9-0.7,2-0.7,3.2c0,1.3,0.2,2.4,0.7,3.4C190.7,269.9,191.4,270.7,192.2,271.2z"/>
	<path class="st1" d="M74.8,155.1c1.7,0,3.1-1.4,3.1-3.1c0-1.8-1.3-3.1-3.1-3.2c-1.7,0-3.1,1.4-3.1,3.1
		C71.6,153.8,73,155.2,74.8,155.1z"/>
	<path class="st1" d="M96.9,179.4c2.4-0.5,4.5-1.6,6.3-3.3c0.4-0.3,0.4-0.4,0.1-0.7c-1-1.2-2-2.4-3-3.7c-3.4,3.9-8.2,3.2-10.7,0.9
		c-2.8-2.6-3.1-6.9-0.7-9.8c1.3-1.5,2.9-2.4,4.9-2.6c2.6-0.2,4.7,0.8,6.4,2.7c1-1.2,1.9-2.3,2.8-3.5c0.5-0.6,0.5-0.6-0.1-1.1
		c-3.2-2.8-6.9-3.9-11-3c-6.9,1.4-11.3,8.5-9.4,15.3C84.3,176.8,90.5,180.6,96.9,179.4z"/>
	<path class="st1" d="M77.3,158.4c0-0.5,0-0.5-0.5-0.5c-1.4,0-2.7,0-4.1,0c-0.5,0-0.5,0-0.5,0.6c0,0.1,0,0.2,0,0.3
		c0,3.2,0,6.4,0,9.6c0,0,0,0,0,0c0,1.3,0,2.5,0,3.8c0,2.1,0,4.1,0,6.2c0,0.3,0,0.5,0.4,0.5c1.4,0,2.9,0,4.3,0c0.3,0,0.4-0.1,0.4-0.4
		c0-0.1,0-0.3,0-0.4c0-4.3,0-8.6,0-12.8C77.3,162.9,77.3,160.6,77.3,158.4z"/>
	<path class="st1" d="M108.8,104.7c1.8,4.8,4.4,9.1,7.7,13c0.4,0.5,0.4,0.4,0.8,0c1.1-1.1,2.2-2.2,3.3-3.3c0.5-0.5,0.4-0.4,0.1-0.9
		c-6.5-8-9.4-17-8.7-27.3c0.3-4,1.2-7.8,2.7-11.5c0.8-2,1.8-3.9,2.9-5.7c0.1-0.2,0.3-0.4,0-0.7c-1.4-1.1-2.9-2.2-4.3-3.2
		c-0.1,0.1-0.1,0.1-0.1,0.1c-0.1,0.1-0.1,0.1-0.2,0.2c-5.5,8.6-7.7,17.9-6.8,28.1C106.6,97.4,107.4,101.1,108.8,104.7z"/>
	<path class="st1" d="M129.8,56.9c7.5-4.6,15.7-6.5,24.4-5.5c3.8,0.4,7.4,1.4,10.9,2.9c3.9,1.7,7.5,4,10.6,6.9
		c0.5,0.4,0.4,0.5,0.9,0.1c1.4-0.9,2.8-1.7,4.1-2.6c0.1-0.1,0.3-0.1,0.4-0.3c-14.8-15.4-38.8-17-55.3-5.9c1.1,1.5,2.2,2.9,3.3,4.4
		C129.4,57.3,129.6,57,129.8,56.9z"/>
	<path class="st1" d="M121,64.5c1.2-1.4,2.5-2.7,3.8-3.8c0.2-0.2,0.2-0.4,0-0.6c-1-1-2-2-2.9-2.9c-0.3-0.3-0.6-0.6-0.9-0.9
		c-1.4,1.2-2.7,2.5-3.9,3.8c-0.2,0.2-0.2,0.4,0,0.5C118.4,61.9,119.7,63.1,121,64.5z"/>
</g>
</svg>
