<svg fill="none" height="58" viewBox="0 0 59 58" width="59" xmlns="http://www.w3.org/2000/svg"><g fill="#002e19"><path clip-rule="evenodd" d="m47.66 5.40851v2.69608c.9043.8987 1.8086 2.09691 1.8086 3.59481 0 2.6961-2.1101 4.793-4.823 4.793s-4.823-2.0969-4.823-4.793c0-1.4979.6029-2.69611 1.8087-3.59481v-2.69608h-23.2106v2.69608c.9043.8987 1.8086 2.09691 1.8086 3.59481 0 2.6961-2.11 4.793-4.8229 4.793s-4.823-2.0969-4.823-4.793c0-1.4979.6029-2.69611 1.8086-3.59481v-2.69608h-11.454531v51.82469h57.272731v-51.82469zm5.4258 46.73209h-47.02393v-32.353h46.72253v32.353zm-37.9809-37.7451c1.2058 0 2.4115-.8987 2.4115-2.3966v-8.68734c0-1.19826-1.2057-2.396521-2.4115-2.396521-1.2057 0-2.4114 1.198261-2.4114 2.396521v8.68734c0 1.4979 1.2057 2.3966 2.4114 2.3966zm29.2393 0c1.2057 0 2.4115-1.1983 2.4115-2.3966v-8.68734c0-1.19826-1.2058-2.396521-2.4115-2.396521-1.2058 0-2.4115 1.198261-2.4115 2.396521v8.68734c0 1.4979 1.2057 2.3966 2.4115 2.3966z" fill-rule="evenodd"/><path d="m30.6252 44.6423h-3.013c-.3374 0-.6172-.0766-.8395-.23-.2147-.161-.3642-.3641-.4485-.6095l-.989-2.921h-6.371l-.989 2.921c-.0767.2147-.2262.4102-.4485.5865-.2224.1687-.4945.253-.8165.253h-3.036l6.486-16.7555h3.979zm-10.764-6.4055h4.577l-1.541-4.5885c-.0997-.2913-.2185-.6325-.3565-1.0235-.1304-.3986-.2607-.828-.391-1.288-.1227.4677-.2492.9009-.3795 1.2995-.1304.3987-.253.7437-.368 1.035zm12.128 6.4055v-11.9255h2.208c.2223 0 .4063.0499.552.1495.1533.0997.2606.2492.322.4485l.207.69c.23-.2146.4676-.414.713-.598.2453-.184.506-.3373.782-.46.2836-.1303.5865-.23.9085-.299.3296-.0766.6861-.115 1.0695-.115.6516 0 1.2266.115 1.725.345.506.2224.9315.5367 1.2765.943.345.3987.6056.8779.782 1.4375.1763.552.2645 1.1539.2645 1.8055v7.5785h-3.565v-7.5785c0-.5826-.1342-1.035-.4025-1.357-.2684-.3296-.6632-.4945-1.1845-.4945-.391 0-.759.0844-1.104.253-.345.1687-.6747.3949-.989.6785v8.4985zm6.601-15.9505c.184 0 .3335-.046.4485-.138.115-.0996.1725-.3066.1725-.621h2.162c0 .483-.069.92-.207 1.311-.1304.3834-.3144.713-.552.989-.2377.2684-.5175.4754-.8395.621-.322.1457-.6709.2185-1.0465.2185-.2837 0-.5482-.0421-.7935-.1265-.2454-.092-.4754-.1916-.69-.299-.207-.1073-.3987-.2031-.575-.2875-.1687-.092-.3182-.138-.4485-.138-.184 0-.3297.0537-.437.161-.1074.0997-.161.3067-.161.621h-2.185c0-.483.069-.9161.207-1.2995.138-.391.3258-.7245.5635-1.0005.2376-.276.5175-.4868.8395-.6325.322-.1533.667-.23 1.035-.23.2836 0 .5481.046.7935.138.253.0844.483.1802.69.2875.207.1074.3948.207.5635.299.1763.0844.3296.1265.46.1265z"/></g></svg>