<svg fill="none" height="58" viewBox="0 0 59 58" width="59" xmlns="http://www.w3.org/2000/svg"><g fill="#002e19"><path d="m24.3883 31.2906c-.115.184-.2376.322-.368.414-.1226.092-.2836.138-.483.138-.1763 0-.368-.0537-.575-.161-.1993-.115-.4293-.2415-.69-.3795-.253-.138-.5443-.2607-.874-.368-.3296-.115-.7053-.1725-1.127-.1725-.7283 0-1.2726.1572-1.633.4715-.3526.3067-.529.7245-.529 1.2535 0 .3373.1074.6172.322.8395.2147.2223.4945.414.8395.575.3527.161.7514.3105 1.196.4485.4524.1303.9124.2798 1.38.4485.4677.161.9239.3527 1.3685.575.4524.2223.851.506 1.196.851.3527.345.6364.7667.851 1.265.2147.4907.322 1.0848.322 1.7825 0 .7743-.1341 1.4988-.4025 2.1735-.2683.6747-.6593 1.265-1.173 1.771-.506.4983-1.1346.8932-1.886 1.1845-.7436.2837-1.5908.4255-2.5415.4255-.5213 0-1.0541-.0537-1.5985-.161-.5366-.1073-1.058-.2568-1.564-.4485-.506-.1993-.9813-.4332-1.426-.7015-.4446-.2683-.8318-.5673-1.1615-.897l1.15-1.817c.0844-.138.2032-.2492.3565-.3335.1534-.0843.3182-.1265.4945-.1265.23 0 .46.0728.69.2185.2377.1457.5022.3067.7935.483.299.1763.6402.3373 1.0235.483.3834.1457.8357.2185 1.357.2185.7054 0 1.2535-.1533 1.6445-.46.391-.3143.5865-.8088.5865-1.4835 0-.391-.1073-.7092-.322-.9545-.2146-.2453-.4983-.4485-.851-.6095-.345-.161-.7398-.3028-1.1845-.4255-.4446-.1227-.9008-.2568-1.3685-.4025-.4676-.1533-.9238-.3373-1.3685-.552-.4446-.2223-.8433-.5098-1.196-.8625-.345-.3603-.6248-.805-.8395-1.334-.2146-.5367-.322-1.196-.322-1.978 0-.6287.1265-1.242.3795-1.84s.6249-1.1308 1.1155-1.5985c.4907-.4677 1.0925-.8395 1.8055-1.1155.713-.2837 1.5295-.4255 2.4495-.4255.5137 0 1.012.0422 1.495.1265.4907.0767.9545.1955 1.3915.3565.437.1533.8434.3412 1.219.5635.3834.2147.7245.46 1.0235.736zm3.1278 13.3515v-11.9255h2.208c.2224 0 .4064.0498.552.1495.1534.0997.2607.2492.322.4485l.1955.644c.1994-.207.4064-.3948.621-.5635.2147-.1763.4447-.3258.69-.4485.253-.1303.5214-.23.805-.299.2914-.0767.6095-.115.9545-.115.7207 0 1.3149.1878 1.7825.5635.4754.368.8357.8625 1.081 1.4835.1994-.368.4409-.6823.7245-.943.2914-.2607.6019-.4715.9315-.6325.3374-.161.69-.2798 1.058-.3565.3757-.0767.7475-.115 1.1155-.115.6824 0 1.288.1035 1.817.3105.529.1993.9699.4945 1.3225.8855.3604.3833.6325.8587.8165 1.426.184.5597.276 1.196.276 1.909v7.5785h-3.565v-7.5785c0-1.2343-.529-1.8515-1.587-1.8515-.483 0-.8855.161-1.2075.483-.3143.3143-.4715.7705-.4715 1.3685v7.5785h-3.565v-7.5785c0-.6823-.1341-1.1615-.4025-1.4375-.2683-.276-.6631-.414-1.1845-.414-.322 0-.6286.0728-.92.2185-.2836.1457-.552.3412-.805.5865v8.625z"/><path clip-rule="evenodd" d="m47.6673 5.40851v2.69608c.9043.8987 1.8087 2.09691 1.8087 3.59481 0 2.6961-2.1101 4.793-4.823 4.793s-4.823-2.0969-4.823-4.793c0-1.4979.6029-2.69611 1.8086-3.59481v-2.69608h-23.2105v2.69608c.9043.8987 1.8086 2.09691 1.8086 3.59481 0 2.6961-2.11 4.793-4.8229 4.793-2.713 0-4.823-2.0969-4.823-4.793 0-1.4979.6029-2.69611 1.8086-3.59481v-2.69608h-11.454545v51.82469h57.272745v-51.82469zm5.4259 46.73209h-47.02394v-32.353h46.72244v32.353zm-37.9809-37.7451c1.2058 0 2.4115-.8987 2.4115-2.3966v-8.68734c0-1.19826-1.2057-2.396521-2.4115-2.396521-1.2057 0-2.4115 1.198261-2.4115 2.396521v8.68734c0 1.4979 1.2058 2.3966 2.4115 2.3966zm29.2393 0c1.2057 0 2.4114-1.1983 2.4114-2.3966v-8.68734c0-1.19826-1.2057-2.396521-2.4114-2.396521-1.2058 0-2.4115 1.198261-2.4115 2.396521v8.68734c0 1.4979 1.2057 2.3966 2.4115 2.3966z" fill-rule="evenodd"/></g></svg>