<?xml version="1.0" encoding="UTF-8"?>
<svg id="Capa_1" data-name="Capa 1" xmlns="http://www.w3.org/2000/svg" viewBox="0 0 50 50">
  <defs>
    <style>
      .cls-1 {
        fill: #fff;
        stroke-width: 0px;
      }
    </style>
  </defs>
  <path class="cls-1" d="m34.03,16.1H15.93c-1.79,0-3.24,1.45-3.24,3.24v11.32c0,1.79,1.45,3.24,3.24,3.24h18.1c1.79,0,3.24-1.45,3.24-3.24v-11.32c0-1.79-1.45-3.24-3.24-3.24Zm-6.14,9.68l-5.03,2.52c-.58.29-1.26-.13-1.26-.78v-5.03c0-.65.68-1.07,1.26-.78l5.03,2.52c.64.32.64,1.24,0,1.56Z"/>
  <path class="cls-1" d="m25,46.58c-11.9,0-21.58-9.68-21.58-21.58S13.1,3.42,25,3.42s21.58,9.68,21.58,21.58h0c0,11.9-9.68,21.58-21.58,21.58Zm0-42C13.74,4.58,4.58,13.74,4.58,25s9.16,20.42,20.42,20.42,20.42-9.16,20.42-20.42S36.26,4.58,25,4.58Z"/>
</svg>