<?xml version="1.0" encoding="UTF-8"?>
<svg id="Capa_1" data-name="Capa 1" xmlns="http://www.w3.org/2000/svg" viewBox="0 0 50 50">
  <defs>
    <style>
      .cls-1 {
        fill: #fff;
        stroke-width: 0px;
      }
    </style>
  </defs>
  <path class="cls-1" d="m30.66,14.03h-11.34c-2.92,0-5.29,2.37-5.29,5.29v11.34c0,2.92,2.37,5.29,5.29,5.29h11.34c2.92,0,5.29-2.37,5.29-5.29v-11.34c0-2.92-2.37-5.29-5.29-5.29Zm3.4,16.26c0,2.09-1.69,3.78-3.78,3.78h-10.59c-2.09,0-3.78-1.69-3.78-3.78v-10.59c0-2.09,1.69-3.78,3.78-3.78h10.59c2.09,0,3.78,1.69,3.78,3.78v10.59Z"/>
  <path class="cls-1" d="m25,19.33c-3.13,0-5.67,2.54-5.67,5.67s2.54,5.67,5.67,5.67,5.67-2.54,5.67-5.67-2.54-5.67-5.67-5.67Zm0,9.45c-2.08,0-3.78-1.7-3.78-3.78s1.7-3.78,3.78-3.78,3.78,1.7,3.78,3.78-1.7,3.78-3.78,3.78Z"/>
  <circle class="cls-1" cx="31.05" cy="18.95" r="1.13"/>
  <path class="cls-1" d="m25,46.48c-11.85,0-21.48-9.64-21.48-21.48S13.15,3.52,25,3.52s21.48,9.64,21.48,21.48h0c0,11.85-9.64,21.48-21.48,21.48Zm0-41.81C13.79,4.67,4.67,13.79,4.67,25s9.12,20.33,20.33,20.33,20.33-9.12,20.33-20.33S36.21,4.67,25,4.67Z"/>
</svg>