<?xml version="1.0" encoding="UTF-8"?>
<svg id="Capa_1" data-name="Capa 1" xmlns="http://www.w3.org/2000/svg" viewBox="0 0 50 50">
  <defs>
    <style>
      .cls-1 {
        fill: #fff;
        stroke-width: 0px;
      }
    </style>
  </defs>
  <path class="cls-1" d="m25,45.39c-11.24,0-20.39-9.15-20.39-20.39S13.76,4.61,25,4.61s20.39,9.15,20.39,20.39h0c0,11.24-9.15,20.39-20.39,20.39Zm0-39.69C14.36,5.71,5.71,14.36,5.71,25s8.66,19.29,19.29,19.29,19.29-8.66,19.29-19.29S35.64,5.71,25,5.71Z"/>
  <path class="cls-1" d="m27.86,23.18l8.03-8.59h-3.05l-6.3,6.74-4.82-6.74h-8.34l8.44,11.79-8.44,9.03h3.05l6.71-7.18,5.14,7.18h8.34l-8.76-12.23Zm-10.19-6.38h2.91l11.74,16.4h-2.91l-11.74-16.4Z"/>
</svg>