<svg width="55" height="55" viewBox="0 0 55 55" fill="none" xmlns="http://www.w3.org/2000/svg">
<circle cx="27.5" cy="27.4999" r="18.8476" fill="#78B92F"/>
<path d="M37.9626 25.7679C39.2959 26.5377 39.2959 28.4622 37.9626 29.232L23.7687 37.4268C22.4354 38.1966 20.7687 37.2343 20.7687 35.6947V19.3051C20.7687 17.7655 22.4354 16.8032 23.7687 17.573L37.9626 25.7679Z" fill="white"/>
<path opacity="0.8" fill-rule="evenodd" clip-rule="evenodd" d="M27.5 49.8433C39.8398 49.8433 49.8431 39.8399 49.8431 27.5001C49.8431 15.1603 39.8398 5.15698 27.5 5.15698C15.1602 5.15698 5.15686 15.1603 5.15686 27.5001C5.15686 39.8399 15.1602 49.8433 27.5 49.8433Z" stroke="#78B92F"/>
<path opacity="0.4" fill-rule="evenodd" clip-rule="evenodd" d="M27.5 54C42.1355 54 54 42.1355 54 27.5C54 12.8645 42.1355 1 27.5 1C12.8645 1 1 12.8645 1 27.5C1 42.1355 12.8645 54 27.5 54Z" stroke="#78B92F"/>
</svg>
