<svg width="201" height="322" viewBox="0 0 201 322" fill="none" xmlns="http://www.w3.org/2000/svg">
<path d="M200.572 18.11C200.572 19.725 199.446 20.999 197.831 20.999H183.678C182.067 20.999 180.574 19.728 180.574 18.11V3.963C180.574 2.349 182.065 1 183.678 1H197.831C199.447 1 200.572 2.349 200.572 3.963V18.11Z" fill="#ECECEC" stroke="#BDBDBD" stroke-width="0.8333"/>
<path d="M70.539 221C76.0618 221 80.539 216.523 80.539 211C80.539 205.477 76.0618 201 70.539 201C65.0162 201 60.539 205.477 60.539 211C60.539 216.523 65.0162 221 70.539 221Z" fill="#ECECEC" stroke="#BDBDBD" stroke-width="0.8333"/>
<path d="M10.521 321.333C16.32 321.333 21.021 316.632 21.021 310.833C21.021 305.034 16.32 300.333 10.521 300.333C4.72201 300.333 0.0209961 305.034 0.0209961 310.833C0.0209961 316.632 4.72201 321.333 10.521 321.333Z" fill="#4D7B19"/>
<path d="M10.521 315.032C12.8401 315.032 14.72 313.152 14.72 310.833C14.72 308.514 12.8401 306.634 10.521 306.634C8.20198 306.634 6.32202 308.514 6.32202 310.833C6.32202 313.152 8.20198 315.032 10.521 315.032Z" fill="white"/>
<path d="M141.056 117.849C141.056 119.587 139.645 120.998 137.907 120.998H123.21C121.472 120.998 120.059 119.585 120.059 117.849V103.149C120.059 101.41 121.472 100 123.21 100H137.906C139.644 100 141.055 101.409 141.055 103.149V117.849H141.056Z" fill="#4D7B19"/>
<path d="M129.569 117.681C129.141 117.681 128.73 117.513 128.423 117.209L123.777 112.621C123.132 111.989 123.13 110.957 123.76 110.313C124.393 109.672 125.427 109.667 126.068 110.299L129.273 113.462L135.725 103.277C136.206 102.515 137.214 102.289 137.976 102.771C138.74 103.252 138.962 104.259 138.484 105.021L130.946 116.917C130.682 117.335 130.245 117.61 129.755 117.665C129.692 117.678 129.632 117.681 129.569 117.681Z" fill="white"/>
</svg>
