<?xml version="1.0" encoding="utf-8"?>
<!-- Generator: Adobe Illustrator 16.0.0, SVG Export Plug-In . SVG Version: 6.00 Build 0)  -->
<!DOCTYPE svg PUBLIC "-//W3C//DTD SVG 1.1//EN" "http://www.w3.org/Graphics/SVG/1.1/DTD/svg11.dtd">
<svg version="1.1" id="Capa_1" xmlns="http://www.w3.org/2000/svg" xmlns:xlink="http://www.w3.org/1999/xlink" x="0px" y="0px"
	 width="998.082px" height="440.666px" viewBox="0 0 998.082 440.666" enable-background="new 0 0 998.082 440.666"
	 xml:space="preserve">
<g>
	<g>
		<path fill="#80BA28" d="M677.934,27.175l5.605-5.605c0.391-0.391,0.391-1.023,0-1.414c-0.391-0.391-1.023-0.391-1.414,0
			l-5.604,5.604l-5.605-5.604c-0.391-0.391-1.023-0.391-1.414,0c-0.391,0.391-0.391,1.023,0,1.414l5.605,5.605l-5.605,5.605
			c-0.391,0.391-0.391,1.021,0,1.414c0.195,0.195,0.451,0.293,0.707,0.293s0.512-0.098,0.707-0.293l5.604-5.605l5.605,5.605
			c0.195,0.195,0.451,0.293,0.707,0.293s0.512-0.098,0.707-0.293c0.391-0.391,0.391-1.023,0-1.414L677.934,27.175z"/>
	</g>
</g>
<line fill="none" stroke="#7BBE43" stroke-width="1.2282" stroke-miterlimit="10" x1="117.09" y1="292.679" x2="9.516" y2="50.523"/>
<g>
	<g>
		
			<polyline fill="none" stroke="#FFFFFF" stroke-width="2.4565" stroke-linecap="round" stroke-linejoin="round" stroke-miterlimit="10" points="
			86.764,203.737 43.572,106.51 86.767,9.279 		"/>
	</g>
</g>
<line fill="none" stroke="#7BBE43" stroke-width="1.2279" stroke-miterlimit="10" x1="135.521" y1="292.593" x2="243.063" y2="50.511"/>
<g>
	<g>
		
			<polyline fill="none" stroke="#FFFFFF" stroke-width="2.4558" stroke-linecap="round" stroke-linejoin="round" stroke-miterlimit="10" points="
			165.837,203.68 209.017,106.48 165.835,9.279 		"/>
	</g>
</g>
<line fill="none" stroke="#7BBE43" stroke-width="1.2282" stroke-miterlimit="10" x1="350.397" y1="216.26" x2="271.83" y2="39.402"/>
<g>
	<g>
		
			<polyline fill="none" stroke="#FFFFFF" stroke-width="2.4565" stroke-linecap="round" stroke-linejoin="round" stroke-miterlimit="10" points="
			328.249,151.302 296.703,80.292 328.251,9.279 		"/>
	</g>
</g>
<line fill="none" stroke="#7BBE43" stroke-width="1.2279" stroke-miterlimit="10" x1="363.858" y1="216.197" x2="442.401" y2="39.393"/>
<g>
	<g>
		
			<polyline fill="none" stroke="#FFFFFF" stroke-width="2.4558" stroke-linecap="round" stroke-linejoin="round" stroke-miterlimit="10" points="
			386,151.26 417.536,80.27 385.999,9.279 		"/>
	</g>
</g>
<line fill="none" stroke="#7BBE43" stroke-width="1.2282" stroke-miterlimit="10" x1="523.926" y1="161.35" x2="466.202" y2="31.411"/>
<g>
	<g>
		
			<polyline fill="none" stroke="#FFFFFF" stroke-width="2.4565" stroke-linecap="round" stroke-linejoin="round" stroke-miterlimit="10" points="
			507.653,113.624 484.477,61.453 507.655,9.279 		"/>
	</g>
</g>
<line fill="none" stroke="#7BBE43" stroke-width="1.2279" stroke-miterlimit="10" x1="533.817" y1="161.304" x2="591.521" y2="31.404"/>
<g>
	<g>
		
			<polyline fill="none" stroke="#FFFFFF" stroke-width="2.4558" stroke-linecap="round" stroke-linejoin="round" stroke-miterlimit="10" points="
			550.084,113.594 573.254,61.437 550.083,9.279 		"/>
	</g>
</g>
<line fill="none" stroke="#7BBE43" stroke-width="0.7269" stroke-miterlimit="10" x1="526.638" y1="350.382" x2="492.476" y2="273.48"/>
<g>
	<g>
		
			<polyline fill="none" stroke="#FFFFFF" stroke-width="1.4538" stroke-linecap="round" stroke-linejoin="round" stroke-miterlimit="10" points="
			517.008,322.137 503.291,291.26 517.009,260.382 		"/>
	</g>
</g>
<line fill="none" stroke="#7BBE43" stroke-width="0.7267" stroke-miterlimit="10" x1="532.492" y1="350.354" x2="566.643" y2="273.476"/>
<g>
	<g>
		
			<polyline fill="none" stroke="#FFFFFF" stroke-width="1.4534" stroke-linecap="round" stroke-linejoin="round" stroke-miterlimit="10" points="
			542.119,322.118 555.832,291.251 542.118,260.382 		"/>
	</g>
</g>
<path fill="#ECECEC" stroke="#BDBDBD" stroke-width="0.8333" stroke-miterlimit="10" d="M777.572,359.546
	c0,1.615-1.126,2.889-2.741,2.889h-14.153c-1.611,0-3.104-1.271-3.104-2.889v-14.147c0-1.614,1.491-2.963,3.104-2.963h14.153
	c1.616,0,2.741,1.349,2.741,2.963V359.546z"/>
<circle fill="#ECECEC" stroke="#BDBDBD" stroke-width="0.8333" stroke-miterlimit="10" cx="707.539" cy="170.327" r="10"/>
<circle fill="#80B929" cx="677.521" cy="78.833" r="10.5"/>
<circle fill="#FFFFFF" cx="677.521" cy="78.833" r="4.199"/>
<path fill="#80B929" d="M748.056,267.731c0,1.738-1.411,3.149-3.149,3.149H730.21c-1.738,0-3.151-1.413-3.151-3.149v-14.7
	c0-1.739,1.413-3.149,3.151-3.149h14.696c1.738,0,3.149,1.409,3.149,3.149V267.731z"/>
<path fill="#FFFFFF" d="M736.569,267.563c-0.428,0-0.839-0.168-1.146-0.472l-4.646-4.588c-0.645-0.632-0.647-1.664-0.017-2.308
	c0.633-0.641,1.667-0.646,2.308-0.014l3.205,3.163l6.452-10.185c0.481-0.762,1.489-0.988,2.251-0.506
	c0.764,0.481,0.986,1.488,0.508,2.25l-7.538,11.896c-0.264,0.418-0.701,0.693-1.191,0.748
	C736.692,267.56,736.632,267.563,736.569,267.563z"/>
</svg>
