<?xml version="1.0" encoding="utf-8"?>
<!-- Generator: Adobe Illustrator 25.3.1, SVG Export Plug-In . SVG Version: 6.00 Build 0)  -->
<svg version="1.1" id="Layer_1" xmlns="http://www.w3.org/2000/svg" xmlns:xlink="http://www.w3.org/1999/xlink" x="0px" y="0px"
	 viewBox="0 0 20 21" style="enable-background:new 0 0 20 21;" xml:space="preserve">
<style type="text/css">
	.st0{fill:#78B92F;}
</style>
<g id="Layer_1_1_">
</g>
<path class="st0" d="M13.6,1.5H6.4c-0.7,0-1.2,0.6-1.2,1.2v14.5c0,0.7,0.6,1.2,1.2,1.2h7.1c0.7,0,1.2-0.6,1.2-1.2V2.8
	C14.8,2.1,14.2,1.5,13.6,1.5z M9.2,2.6h1.6v0.5H9.2V2.6z M10,17.8c-0.4,0-0.8-0.4-0.8-0.8c0-0.4,0.4-0.8,0.8-0.8
	c0.4,0,0.8,0.4,0.8,0.8C10.8,17.5,10.4,17.8,10,17.8z M13.9,15.8H6.1V4.2h7.8V15.8z"/>
</svg>
