<?xml version="1.0" encoding="UTF-8"?>
<svg id="Capa_1" data-name="Capa 1" xmlns="http://www.w3.org/2000/svg" viewBox="0 0 100 120">
  <defs>
    <style>
      .cls-1 {
        fill: #fff;
        stroke-width: 0px;
      }
    </style>
  </defs>
  <g>
    <path class="cls-1" d="m26.58,119.29v-5.38h-1.7v-.72h4.1v.72h-1.71v5.38h-.68Z"/>
    <path class="cls-1" d="m29.66,119.29v-6.1h2.29c.48,0,.83.06,1.06.17s.41.3.56.57c.15.26.22.57.22.92,0,.46-.12.83-.37,1.12-.25.29-.61.47-1.08.54.19.11.34.22.44.34.2.23.38.49.54.78l.9,1.66h-.86l-.69-1.27c-.27-.5-.47-.83-.6-1-.14-.17-.27-.29-.4-.35s-.31-.09-.53-.09h-.79v2.71h-.68Zm.68-3.41h1.47c.32,0,.56-.04.73-.11.17-.07.3-.19.4-.35.1-.16.15-.35.15-.56,0-.31-.09-.55-.28-.73-.19-.18-.46-.26-.83-.26h-1.63v2.02Z"/>
    <path class="cls-1" d="m34.55,117.45v-.75h1.95v.75h-1.95Z"/>
    <path class="cls-1" d="m40.95,117.15l.69.2c-.15.69-.42,1.2-.8,1.53-.38.34-.84.51-1.39.51-.48,0-.89-.11-1.23-.34-.34-.23-.62-.59-.83-1.09s-.32-1.09-.32-1.77.11-1.24.32-1.71c.22-.47.51-.82.88-1.05s.78-.36,1.24-.36c.5,0,.93.15,1.29.45.36.3.61.74.75,1.32l-.67.19c-.23-.85-.69-1.27-1.38-1.27-.34,0-.64.09-.9.26-.25.17-.45.44-.6.8-.15.36-.23.82-.23,1.37,0,.84.15,1.46.46,1.88.3.42.71.63,1.21.63.37,0,.69-.13.97-.39s.45-.65.54-1.17Z"/>
    <path class="cls-1" d="m42.3,116.31c0-1.04.24-1.84.71-2.4.47-.56,1.06-.84,1.77-.84.46,0,.87.12,1.25.37.38.25.67.61.89,1.09s.33,1.04.33,1.7c0,.9-.21,1.64-.64,2.21-.47.63-1.08.94-1.84.94s-1.38-.32-1.84-.97c-.42-.58-.63-1.29-.63-2.11Zm.71.01c0,.75.17,1.34.51,1.75.34.42.76.62,1.25.62s.92-.21,1.26-.63c.34-.42.51-1.04.51-1.85,0-.52-.09-.99-.26-1.41-.13-.32-.34-.57-.61-.76-.27-.19-.57-.29-.89-.29-.52,0-.94.21-1.27.62s-.5,1.06-.5,1.93Z"/>
    <path class="cls-1" d="m47.78,117.45v-.75h1.95v.75h-1.95Z"/>
    <path class="cls-1" d="m52.64,119.29h-.64v-4.77c-.15.17-.34.34-.59.51-.25.17-.47.3-.68.39v-.72c.35-.19.66-.43.93-.71s.46-.55.57-.82h.41v6.13Z"/>
    <path class="cls-1" d="m55.24,115.97c-.25-.11-.45-.27-.57-.48-.13-.21-.19-.46-.19-.77,0-.46.14-.84.42-1.13.28-.29.64-.44,1.06-.44s.79.15,1.07.45.43.68.43,1.15c0,.29-.06.54-.19.75-.13.2-.32.36-.57.48.31.12.55.31.72.58.17.27.25.6.25.99,0,.54-.16.99-.49,1.33s-.73.51-1.21.51-.89-.17-1.22-.51-.49-.79-.49-1.35c0-.41.09-.74.26-1.01.17-.27.41-.44.72-.54Zm-.33,1.55c0,.37.1.68.31.91s.46.34.74.34.54-.11.74-.33c.2-.22.3-.52.3-.89s-.1-.68-.31-.91c-.21-.23-.46-.34-.75-.34s-.53.11-.74.34-.3.52-.3.88Zm.21-2.82c0,.3.08.54.24.71.16.18.36.27.6.27s.43-.09.59-.26c.16-.17.24-.4.24-.68s-.08-.52-.25-.7c-.17-.18-.37-.27-.59-.27s-.43.09-.59.27c-.16.18-.25.4-.25.66Z"/>
    <path class="cls-1" d="m58.22,117.45v-.75h1.95v.75h-1.95Z"/>
    <path class="cls-1" d="m61.66,115.97c-.25-.11-.45-.27-.57-.48-.13-.21-.19-.46-.19-.77,0-.46.14-.84.42-1.13.28-.29.64-.44,1.06-.44s.79.15,1.07.45.43.68.43,1.15c0,.29-.06.54-.19.75-.13.2-.32.36-.57.48.31.12.55.31.72.58.17.27.25.6.25.99,0,.54-.16.99-.49,1.33s-.73.51-1.21.51-.89-.17-1.22-.51-.49-.79-.49-1.35c0-.41.09-.74.26-1.01.17-.27.41-.44.72-.54Zm-.33,1.55c0,.37.1.68.31.91s.46.34.74.34.54-.11.74-.33c.2-.22.3-.52.3-.89s-.1-.68-.31-.91c-.21-.23-.46-.34-.75-.34s-.53.11-.74.34-.3.52-.3.88Zm.21-2.82c0,.3.08.54.24.71.16.18.36.27.6.27s.43-.09.59-.26c.16-.17.24-.4.24-.68s-.08-.52-.25-.7c-.17-.18-.37-.27-.59-.27s-.43.09-.59.27c-.16.18-.25.4-.25.66Z"/>
    <path class="cls-1" d="m66.73,119.29v-1.46h-2.24v-.69l2.36-3.95h.52v3.95h.7v.69h-.7v1.46h-.64Zm0-2.15v-2.75l-1.62,2.75h1.62Z"/>
    <path class="cls-1" d="m72.01,114.67l-.63.06c-.06-.31-.15-.53-.27-.67-.17-.19-.37-.29-.61-.29-.37,0-.67.22-.89.67-.19.38-.29.95-.29,1.7.15-.27.33-.47.55-.61s.45-.21.7-.21c.41,0,.77.18,1.07.54.31.36.46.84.46,1.44,0,.41-.08.78-.23,1.11s-.35.58-.59.73c-.24.16-.51.24-.8.24-.52,0-.95-.23-1.29-.68-.34-.46-.51-1.21-.51-2.28,0-1.18.17-2.02.52-2.52s.79-.75,1.33-.75c.39,0,.72.13.99.39.26.26.43.63.48,1.13Zm-2.59,2.64c0,.44.11.8.32,1.06.22.27.46.4.75.4.25,0,.47-.13.67-.38.2-.25.29-.6.29-1.04s-.1-.77-.29-1.01c-.19-.24-.43-.36-.71-.36s-.52.12-.72.36c-.2.24-.31.56-.31.96Z"/>
    <path class="cls-1" d="m75.12,119.29h-.64v-4.77c-.15.17-.34.34-.59.51-.25.17-.47.3-.68.39v-.72c.35-.19.66-.43.93-.71.27-.28.46-.55.57-.82h.41v6.13Z"/>
  </g>
  <g>
    <path class="cls-1" d="m72.87,2.24c5.97,0,10.8,4.84,10.8,10.8v78.02c0,5.97-4.83,10.8-10.8,10.8H27.13c-5.97,0-10.8-4.83-10.8-10.8V13.05c0-5.97,4.83-10.8,10.8-10.8h45.75ZM27.13,100.23h45.75c5.05,0,9.17-4.11,9.17-9.17v-28.17c-9.29,5.8-20.25,9.15-32,9.15s-22.78-3.37-32.08-9.2v28.22c0,5.06,4.11,9.17,9.17,9.17M72.87.61H27.13c-6.85,0-12.43,5.58-12.43,12.44v78.02c0,6.85,5.58,12.43,12.43,12.43h45.75c6.86,0,12.43-5.58,12.43-12.43V13.05c0-6.86-5.58-12.44-12.43-12.44M27.13,98.6c-4.15,0-7.53-3.38-7.53-7.53v-25.35c9.27,5.22,19.73,7.96,30.45,7.96s21.12-2.73,30.37-7.92v25.3c0,4.15-3.38,7.53-7.53,7.53H27.13Z"/>
    <path class="cls-1" d="m50.01,32.51c-2.87,0-5.2-2.34-5.2-5.2,0-2.87,2.34-5.2,5.2-5.2,2.87,0,5.2,2.34,5.2,5.2,0,2.87-2.34,5.2-5.2,5.2m0-8.47c-1.81,0-3.28,1.47-3.28,3.27,0,1.81,1.47,3.28,3.27,3.28,1.81,0,3.28-1.47,3.28-3.27,0-1.81-1.47-3.28-3.27-3.28"/>
    <path class="cls-1" d="m40.47,35.5c-1.89-2.21-3.04-5.07-3.04-8.2,0-2.49.73-4.82,1.99-6.77l-1.54-1.16c-1.5,2.28-2.37,5-2.37,7.93,0,3.66,1.36,7.01,3.6,9.56l1.36-1.36Z"/>
    <path class="cls-1" d="m39.11,17.76l1.36,1.36c.42-.49.87-.94,1.36-1.36l-1.36-1.36c-.48.42-.94.88-1.36,1.36"/>
    <path class="cls-1" d="m50.05,12.79c-2.94,0-5.68.88-7.97,2.39l1.16,1.54c1.97-1.27,4.3-2,6.81-2,3.28,0,6.34,1.24,8.67,3.46l1.68-1.04c-2.72-2.78-6.39-4.34-10.35-4.34"/>
    <path class="cls-1" d="m55.84,32.7c-1.45,1.56-3.51,2.53-5.8,2.53-4.37,0-7.92-3.56-7.92-7.93,0-4.37,3.56-7.92,7.93-7.92,1.62,0,3.17.5,4.46,1.38l1.76-1.09c-1.73-1.42-3.92-2.22-6.22-2.22-5.43,0-9.85,4.41-9.85,9.84,0,5.43,4.41,9.85,9.84,9.85,2.93,0,5.57-1.28,7.37-3.32l-1.57-1.13Z"/>
    <path class="cls-1" d="m57.05,37.78c-2.01,1.35-4.42,2.14-7.02,2.13-3.13,0-5.99-1.15-8.19-3.05l-1.37,1.36c2.55,2.24,5.9,3.61,9.56,3.61,3.05,0,5.87-.94,8.21-2.55l-1.19-1.51Z"/>
    <path class="cls-1" d="m61.69,18.59l-5.63,3.48s1.9,2.2,1.9,5.25c0,1.39-.36,2.69-.99,3.83l1.57,1.13c.86-1.46,1.35-3.15,1.35-4.96,0-1.62-.4-3.21-1.15-4.63l2.35-1.45c1.03,1.86,1.56,3.95,1.56,6.09,0,3.66-1.58,6.96-4.08,9.27l1.19,1.51c2.95-2.66,4.81-6.5,4.81-10.78,0-5.17-2.87-8.74-2.87-8.74"/>
    <path class="cls-1" d="m39.68,49.05c-2.25,0-4.08,1.82-4.08,4.06,0,2.24,1.83,4.06,4.07,4.07,2.25,0,4.08-1.82,4.08-4.06,0-2.24-1.83-4.07-4.08-4.07m0,6.46c-1.33,0-2.4-1.08-2.4-2.4,0-1.32,1.08-2.39,2.41-2.39,1.33,0,2.4,1.08,2.4,2.4,0,1.32-1.08,2.39-2.41,2.39"/>
    <path class="cls-1" d="m26.04,56.93h-1.7s0-6.95,0-6.95h1.7s0,6.95,0,6.95Zm-.85-7.83c-.58,0-1.03-.45-1.03-1.03,0-.58.46-1.03,1.03-1.03s1.03.45,1.03,1.03c0,.58-.46,1.03-1.03,1.03"/>
    <path class="cls-1" d="m49.2,49.03c-2.25,0-4.08,1.82-4.08,4.06v3.9h1.8s0-4.03,0-4.03c0-1.25,1.02-2.27,2.28-2.27,1.24,0,2.25,1,2.28,2.22v4.08s1.8,0,1.8,0v-3.9c0-2.24-1.82-4.07-4.07-4.07"/>
    <path class="cls-1" d="m58.75,55.65h0s-.27.02-.37.02c-.73,0-1.08-.18-1.08-1.22v-3.97s1.52,0,1.52,0v-1.33s-1.52,0-1.52,0v-1.56s-1.8,0-1.8,0v1.56h-1.03s0,1.32,0,1.32h1.03s0,3.74,0,3.74c0,.54.04,1.33.38,1.96.38.69,1.04,1.04,1.98,1.04.45,0,.88-.09.88-.09v-1.46Z"/>
    <path class="cls-1" d="m31.71,57.19c-2.26,0-4.1-1.84-4.09-4.09,0-2.25,1.84-4.08,4.1-4.08,1.91,0,2.98,1.28,2.98,1.28l-1.09,1.35s-.67-.92-1.89-.92c-1.32,0-2.39,1.06-2.39,2.37,0,1.31,1.07,2.38,2.38,2.38s1.9-.94,1.9-.94l1.1,1.34s-1.09,1.3-3,1.3"/>
    <path class="cls-1" d="m72.92,57.19c-2.26,0-4.1-1.84-4.09-4.09,0-2.25,1.84-4.08,4.1-4.08,1.91,0,2.98,1.28,2.98,1.28l-1.09,1.35s-.67-.92-1.89-.92c-1.32,0-2.39,1.06-2.39,2.37,0,1.31,1.07,2.38,2.38,2.38s1.91-.94,1.91-.94l1.09,1.34s-1.09,1.3-3,1.3"/>
    <path class="cls-1" d="m63.76,48.99c-2.39,0-3.83,1.98-3.83,4.13,0,2.4,1.67,4.08,4.07,4.08s3.34-1.8,3.34-1.8l-1.23-.92s-.63,1.11-2.08,1.11c-1.28,0-2.25-.8-2.33-2h5.81s.03-.37.03-.5c0-1.76-.87-4.09-3.78-4.09m-1.99,3.27c.14-1.03.99-1.72,2.01-1.72,1.07,0,1.85.67,1.95,1.72h-3.95Z"/>
    <path class="cls-1" d="m50.91,83.05c-.33,0-.61.11-.84.32-.23.21-.34.47-.34.77,0,.36.11.65.34.89.23.24.51.36.86.36.58,0,1.08-.15,1.5-.46,0-.63-.15-1.1-.42-1.41-.27-.31-.64-.46-1.1-.46Z"/>
    <path class="cls-1" d="m58.45,83.35c-.28-.18-.59-.27-.93-.27s-.65.09-.92.27c-.28.18-.49.42-.65.73-.16.31-.23.66-.23,1.05s.08.78.23,1.1c.15.33.37.59.65.77.28.18.59.28.93.28s.66-.09.93-.27c.28-.18.49-.43.65-.75.16-.32.23-.68.23-1.08s-.08-.76-.24-1.08c-.16-.32-.38-.57-.65-.75Z"/>
    <path class="cls-1" d="m42.6,82.11c-.34-.23-.73-.35-1.18-.35-.41,0-.78.12-1.13.35-.34.23-.62.56-.83.99-.21.43-.31.92-.31,1.48s.09,1.01.27,1.43c.18.42.44.74.78.97.34.23.73.35,1.18.35.42,0,.81-.1,1.15-.31.34-.21.62-.52.82-.95.2-.43.3-.95.3-1.56,0-.53-.09-1-.27-1.42-.18-.42-.44-.74-.78-.97Z"/>
    <path class="cls-1" d="m50.04,72.05c-11.78,0-22.78-3.37-32.08-9.2v28.22c0,5.06,4.11,9.16,9.17,9.16h45.75c5.05,0,9.17-4.11,9.17-9.16v-28.17c-9.29,5.8-20.25,9.15-32,9.15Zm-19.74,16.35h-1.46v-7.7h1.46v7.7Zm6.32-.87c-.22.32-.55.57-.99.75-.43.18-.95.27-1.56.27-.32,0-.71-.07-1.18-.21s-.84-.29-1.09-.45l.33-1.19c.28.14.6.27.95.38.36.11.68.16.97.16.45,0,.8-.07,1.03-.22.23-.14.35-.35.35-.62,0-.19-.09-.36-.28-.52-.19-.15-.47-.34-.86-.55l-.34-.2c-.51-.3-.91-.56-1.21-.78-.3-.22-.56-.48-.77-.78-.22-.3-.32-.63-.32-1,0-.39.11-.75.32-1.06.21-.31.52-.56.91-.74s.87-.27,1.42-.27c.65,0,1.37.19,2.17.58l-.49,1.18c-.31-.15-.59-.27-.84-.35-.25-.08-.53-.12-.82-.12-.34,0-.62.07-.83.2-.21.13-.32.33-.32.58,0,.22.08.4.25.55s.45.33.83.56l.36.2.33.19c.45.26.8.48,1.06.67.26.19.49.43.66.7.18.28.27.6.27.97,0,.42-.11.78-.33,1.1Zm8.09-.93c-.32.61-.76,1.08-1.33,1.43-.57.34-1.23.52-1.98.54-.78,0-1.45-.18-2.02-.53-.57-.35-1-.83-1.3-1.43s-.45-1.27-.45-2.02.16-1.47.47-2.08c.31-.61.76-1.09,1.33-1.44.57-.35,1.23-.53,1.97-.54.78,0,1.45.18,2.03.53s1.01.83,1.31,1.43c.3.6.45,1.28.45,2.03,0,.79-.16,1.48-.48,2.09Zm8.39.43c-.46.62-1.03,1.12-1.71,1.48-.68.36-1.35.59-2.02.67l-.2-1.21c1.41-.39,2.36-.94,2.85-1.68-.36.17-.74.26-1.13.26-.47,0-.89-.11-1.27-.32s-.67-.49-.89-.85c-.22-.35-.32-.75-.32-1.18,0-.46.11-.87.32-1.22.21-.35.5-.63.87-.83.37-.2.79-.3,1.26-.3.57,0,1.08.12,1.52.35.44.23.79.57,1.04,1.02.25.45.37,1,.37,1.64,0,.83-.23,1.56-.69,2.18Zm7.15-.12c-.27.52-.65.92-1.13,1.21-.48.29-1.02.44-1.61.44s-1.13-.15-1.61-.44c-.48-.29-.86-.69-1.13-1.21-.27-.51-.41-1.09-.41-1.73s.14-1.2.41-1.71c.27-.51.65-.9,1.13-1.19.48-.29,1.02-.43,1.63-.43s1.13.14,1.61.42c.48.28.85.68,1.12,1.18.27.51.4,1.07.4,1.7s-.14,1.23-.41,1.75Zm6.86,0c-.27.52-.65.92-1.13,1.21-.48.29-1.02.44-1.61.44s-1.13-.15-1.61-.44c-.48-.29-.86-.69-1.13-1.21-.27-.51-.41-1.09-.41-1.73s.14-1.2.41-1.71c.27-.51.65-.9,1.13-1.19.48-.29,1.02-.43,1.63-.43s1.13.14,1.61.42c.48.28.85.68,1.12,1.18.27.51.4,1.07.4,1.7s-.14,1.23-.41,1.75Zm4.12,1.5h-1.47v-4.78l-1.29.5-.55-1.1,2.33-1.03h.99v6.41Z"/>
    <path class="cls-1" d="m65.31,83.35c-.28-.18-.59-.27-.93-.27s-.65.09-.92.27c-.28.18-.49.42-.65.73-.16.31-.23.66-.23,1.05s.08.78.23,1.1c.15.33.37.59.65.77.28.18.59.28.93.28s.66-.09.93-.27c.28-.18.49-.43.65-.75.15-.32.23-.68.23-1.08s-.08-.76-.24-1.08c-.16-.32-.38-.57-.65-.75Z"/>
  </g>
</svg>