<?xml version="1.0" encoding="UTF-8"?>
<svg id="Layer_1" data-name="Layer 1" xmlns="http://www.w3.org/2000/svg" viewBox="0 0 231.3 328.1">
  <defs>
    <style>
      .cls-1 {
        fill: #fff;
        stroke-width: 0px;
      }
    </style>
  </defs>
  <g>
    <path class="cls-1" d="m62.63,280.94v-12.19h-3.85v-1.63h9.28v1.63h-3.87v12.19h-1.55Z"/>
    <path class="cls-1" d="m69.61,280.94v-13.82h5.19c1.08,0,1.88.13,2.4.39s.94.69,1.27,1.29c.33.6.5,1.3.5,2.09,0,1.04-.28,1.89-.84,2.53-.56.65-1.38,1.06-2.45,1.23.43.25.77.51.99.77.46.53.87,1.12,1.22,1.76l2.04,3.76h-1.95l-1.56-2.87c-.6-1.12-1.06-1.88-1.37-2.27-.31-.39-.61-.65-.89-.79s-.69-.2-1.21-.2h-1.79v6.14h-1.55Zm1.55-7.72h3.33c.73,0,1.28-.08,1.65-.25.38-.17.67-.44.9-.8.22-.36.33-.79.33-1.27,0-.7-.21-1.25-.63-1.64-.42-.4-1.05-.6-1.88-.6h-3.7v4.57Z"/>
    <path class="cls-1" d="m80.67,276.79v-1.71h4.41v1.71h-4.41Z"/>
    <path class="cls-1" d="m95.16,276.1l1.56.46c-.34,1.55-.95,2.71-1.81,3.47-.86.76-1.91,1.15-3.14,1.15-1.08,0-2.01-.26-2.78-.77-.77-.51-1.4-1.33-1.89-2.47s-.74-2.47-.74-4.01.25-2.81.74-3.86c.49-1.05,1.15-1.85,1.99-2.39s1.77-.81,2.81-.81c1.13,0,2.1.34,2.91,1.02.81.68,1.38,1.68,1.71,2.99l-1.52.42c-.52-1.92-1.56-2.87-3.13-2.87-.78,0-1.46.19-2.03.58-.57.39-1.03.99-1.37,1.81-.34.82-.51,1.85-.51,3.1,0,1.89.34,3.31,1.03,4.26.69.95,1.6,1.42,2.75,1.42.84,0,1.57-.29,2.19-.87s1.02-1.46,1.23-2.64Z"/>
    <path class="cls-1" d="m98.22,274.21c0-2.36.54-4.17,1.61-5.43,1.07-1.27,2.4-1.9,4-1.9,1.03,0,1.97.28,2.82.85.85.57,1.52,1.39,2.02,2.46s.74,2.36.74,3.85c0,2.05-.48,3.72-1.44,5-1.06,1.42-2.44,2.13-4.16,2.13s-3.12-.73-4.17-2.19c-.95-1.32-1.43-2.91-1.43-4.78Zm1.6.02c0,1.7.39,3.03,1.16,3.97.78.94,1.72,1.41,2.83,1.41s2.09-.47,2.86-1.42c.77-.95,1.15-2.35,1.15-4.19,0-1.19-.2-2.25-.59-3.19-.31-.72-.76-1.29-1.38-1.72-.61-.43-1.28-.65-2.01-.65-1.17,0-2.13.47-2.89,1.41s-1.13,2.4-1.13,4.38Z"/>
    <path class="cls-1" d="m110.63,276.79v-1.71h4.41v1.71h-4.41Z"/>
    <path class="cls-1" d="m121.62,280.94h-1.44v-10.81c-.33.38-.78.76-1.33,1.15-.56.39-1.07.69-1.54.89v-1.64c.79-.44,1.49-.98,2.1-1.61s1.03-1.25,1.28-1.86h.93v13.87Z"/>
    <path class="cls-1" d="m127.52,273.44c-.57-.25-1.01-.61-1.3-1.08-.29-.47-.44-1.05-.44-1.75,0-1.05.32-1.9.96-2.56.64-.66,1.44-.99,2.4-.99s1.78.34,2.42,1.01.97,1.54.97,2.6c0,.67-.14,1.23-.43,1.69-.29.46-.72.82-1.29,1.08.71.27,1.25.71,1.63,1.31.38.6.57,1.35.57,2.24,0,1.23-.37,2.24-1.1,3.01s-1.65,1.16-2.74,1.16-2.02-.39-2.76-1.16-1.1-1.8-1.1-3.06c0-.92.2-1.69.59-2.29.39-.6.94-1.01,1.63-1.22Zm-.75,3.51c0,.85.23,1.53.7,2.05s1.03.78,1.69.78,1.22-.25,1.68-.75c.46-.5.69-1.17.69-2.02s-.24-1.53-.71-2.05c-.47-.52-1.04-.78-1.7-.78s-1.21.26-1.67.77-.68,1.18-.68,2Zm.48-6.38c0,.68.18,1.22.55,1.62.37.4.82.6,1.36.6s.97-.2,1.34-.59c.37-.4.55-.91.55-1.53s-.19-1.17-.57-1.58c-.38-.41-.83-.62-1.34-.62s-.96.2-1.34.6c-.37.4-.56.9-.56,1.5Z"/>
    <path class="cls-1" d="m134.26,276.79v-1.71h4.41v1.71h-4.41Z"/>
    <path class="cls-1" d="m142.05,273.44c-.57-.25-1.01-.61-1.3-1.08-.29-.47-.44-1.05-.44-1.75,0-1.05.32-1.9.96-2.56.64-.66,1.44-.99,2.4-.99s1.78.34,2.42,1.01.97,1.54.97,2.6c0,.67-.14,1.23-.43,1.69-.29.46-.72.82-1.29,1.08.71.27,1.25.71,1.63,1.31.38.6.57,1.35.57,2.24,0,1.23-.37,2.24-1.1,3.01s-1.65,1.16-2.74,1.16-2.02-.39-2.76-1.16-1.1-1.8-1.1-3.06c0-.92.2-1.69.59-2.29.39-.6.94-1.01,1.63-1.22Zm-.75,3.51c0,.85.23,1.53.7,2.05s1.03.78,1.69.78,1.22-.25,1.68-.75c.46-.5.69-1.17.69-2.02s-.24-1.53-.71-2.05c-.47-.52-1.04-.78-1.7-.78s-1.21.26-1.67.77-.68,1.18-.68,2Zm.48-6.38c0,.68.18,1.22.55,1.62.37.4.82.6,1.36.6s.97-.2,1.34-.59c.37-.4.55-.91.55-1.53s-.19-1.17-.57-1.58c-.38-.41-.83-.62-1.34-.62s-.96.2-1.34.6c-.37.4-.56.9-.56,1.5Z"/>
    <path class="cls-1" d="m153.53,280.94v-3.31h-5.07v-1.56l5.33-8.95h1.18v8.95h1.59v1.56h-1.59v3.31h-1.44Zm0-4.86v-6.23l-3.66,6.23h3.66Z"/>
    <path class="cls-1" d="m165.47,270.5l-1.43.13c-.14-.71-.34-1.21-.6-1.51-.38-.44-.84-.66-1.38-.66-.84,0-1.51.5-2.01,1.51-.43.87-.65,2.15-.66,3.84.33-.6.75-1.06,1.25-1.37s1.03-.47,1.59-.47c.93,0,1.74.41,2.43,1.22.69.81,1.04,1.9,1.04,3.27,0,.92-.17,1.76-.52,2.51s-.79,1.31-1.34,1.66c-.55.36-1.15.54-1.8.54-1.18,0-2.15-.52-2.92-1.55-.77-1.03-1.15-2.75-1.15-5.16,0-2.67.39-4.57,1.18-5.71s1.79-1.7,3.01-1.7c.89,0,1.63.29,2.23.88.6.59.96,1.44,1.09,2.55Zm-5.86,5.97c0,1,.24,1.8.73,2.41.49.61,1.05.91,1.69.91.56,0,1.07-.29,1.51-.86.44-.57.67-1.36.67-2.36s-.22-1.74-.66-2.28c-.44-.54-.98-.81-1.62-.81s-1.17.27-1.63.81c-.46.54-.7,1.26-.7,2.18Z"/>
    <path class="cls-1" d="m172.52,280.94h-1.44v-10.81c-.33.38-.78.76-1.33,1.15-.56.39-1.07.69-1.54.89v-1.64c.79-.44,1.49-.98,2.1-1.61.61-.63,1.03-1.25,1.28-1.86h.93v13.87Z"/>
  </g>
  <g>
    <path class="cls-1" d="m167.43,4.92c13.5,0,24.45,10.95,24.45,24.46v176.62c0,13.5-10.94,24.45-24.45,24.45H63.87c-13.5,0-24.45-10.94-24.45-24.45V29.38c0-13.5,10.94-24.46,24.45-24.46h103.57ZM63.87,226.75h103.57c11.43,0,20.75-9.3,20.75-20.75v-63.77c-21.02,13.14-45.85,20.71-72.44,20.71s-51.57-7.62-72.63-20.82v63.88c0,11.45,9.3,20.75,20.75,20.75M167.43,1.22H63.87c-15.52,0-28.14,12.63-28.14,28.15v176.62c0,15.52,12.63,28.14,28.14,28.14h103.57c15.52,0,28.14-12.63,28.14-28.14V29.38c0-15.53-12.62-28.15-28.14-28.15M63.87,223.05c-9.4,0-17.05-7.65-17.05-17.05v-57.38c20.98,11.81,44.67,18.02,68.93,18.02s47.82-6.18,68.74-17.92v57.28c0,9.4-7.65,17.05-17.06,17.05H63.87Z"/>
    <path class="cls-1" d="m115.66,73.45c-6.49,0-11.77-5.29-11.76-11.78,0-6.49,5.29-11.77,11.78-11.76,6.49,0,11.77,5.29,11.76,11.78,0,6.49-5.29,11.77-11.78,11.76m.01-19.18c-4.09,0-7.41,3.32-7.42,7.41,0,4.09,3.32,7.41,7.41,7.42,4.09,0,7.41-3.32,7.42-7.41,0-4.09-3.32-7.41-7.41-7.42"/>
    <path class="cls-1" d="m94.08,80.22c-4.28-5-6.88-11.48-6.87-18.56,0-5.64,1.66-10.9,4.51-15.33l-3.49-2.63c-3.39,5.17-5.37,11.33-5.38,17.95,0,8.28,3.07,15.86,8.14,21.65l3.09-3.09Z"/>
    <path class="cls-1" d="m90.99,40.05l3.09,3.09c.95-1.1,1.98-2.14,3.08-3.08l-3.09-3.09c-1.09.96-2.12,1.99-3.08,3.08"/>
    <path class="cls-1" d="m115.76,28.79c-6.66,0-12.86,1.99-18.05,5.41l2.63,3.49c4.45-2.87,9.74-4.54,15.42-4.53,7.43,0,14.36,2.81,19.62,7.83l3.81-2.36c-6.15-6.29-14.47-9.83-23.43-9.83"/>
    <path class="cls-1" d="m128.86,73.88c-3.28,3.52-7.95,5.73-13.14,5.73-9.89,0-17.92-8.06-17.92-17.95,0-9.89,8.06-17.93,17.94-17.92,3.66,0,7.17,1.12,10.11,3.13l3.98-2.46c-3.93-3.21-8.87-5.03-14.08-5.03-12.29,0-22.3,9.98-22.31,22.28,0,12.29,9.99,22.3,22.28,22.31,6.64,0,12.6-2.91,16.7-7.52l-3.56-2.56Z"/>
    <path class="cls-1" d="m131.6,85.37c-4.54,3.05-10.01,4.84-15.89,4.83-7.08,0-13.56-2.61-18.55-6.9l-3.09,3.09c5.78,5.08,13.36,8.17,21.64,8.18,6.89,0,13.3-2.13,18.59-5.76l-2.71-3.43Z"/>
    <path class="cls-1" d="m142.12,41.92l-12.74,7.89s4.29,4.99,4.29,11.88c0,3.14-.82,6.1-2.25,8.66l3.55,2.57c1.94-3.3,3.05-7.13,3.05-11.23,0-3.68-.9-7.27-2.61-10.49l5.32-3.29c2.32,4.21,3.53,8.93,3.53,13.79,0,8.29-3.57,15.76-9.24,20.98l2.71,3.43c6.68-6.02,10.89-14.73,10.89-24.4,0-11.71-6.5-19.78-6.5-19.78"/>
    <path class="cls-1" d="m92.29,110.89c-5.09,0-9.23,4.12-9.23,9.2,0,5.07,4.13,9.2,9.22,9.21,5.09,0,9.24-4.12,9.24-9.19,0-5.07-4.13-9.2-9.23-9.21m-.01,14.63c-3,0-5.44-2.44-5.44-5.43,0-2.99,2.44-5.42,5.45-5.42,3,0,5.44,2.44,5.44,5.43,0,2.99-2.45,5.42-5.45,5.42"/>
    <path class="cls-1" d="m61.4,128.72h-3.86s.01-15.72.01-15.72h3.86s-.01,15.72-.01,15.72Zm-1.92-17.73c-1.31,0-2.34-1.03-2.34-2.33,0-1.31,1.03-2.33,2.34-2.33s2.34,1.03,2.34,2.34c0,1.31-1.03,2.33-2.34,2.33"/>
    <path class="cls-1" d="m113.84,110.85c-5.09,0-9.24,4.12-9.24,9.2v8.84h4.07s0-9.12,0-9.12c0-2.83,2.32-5.14,5.16-5.14,2.81,0,5.1,2.25,5.15,5.04v9.23s4.07,0,4.07,0v-8.84c0-5.08-4.13-9.21-9.22-9.21"/>
    <path class="cls-1" d="m135.46,125.82h0s-.6.05-.84.05c-1.66,0-2.45-.42-2.45-2.77v-9s3.45,0,3.45,0v-3s-3.43,0-3.43,0v-3.53s-4.07,0-4.07,0v3.53h-2.34s0,2.98,0,2.98h2.34s0,8.46,0,8.46c0,1.23.09,3.02.87,4.43.85,1.56,2.36,2.35,4.49,2.35,1.03,0,1.99-.19,1.99-.19v-3.31Z"/>
    <path class="cls-1" d="m74.25,129.33c-5.11,0-9.27-4.16-9.27-9.25,0-5.1,4.17-9.24,9.28-9.24,4.33,0,6.74,2.9,6.74,2.9l-2.47,3.05s-1.52-2.08-4.27-2.08c-2.98,0-5.4,2.41-5.4,5.37,0,2.97,2.42,5.38,5.39,5.38s4.31-2.12,4.31-2.12l2.48,3.04s-2.47,2.94-6.8,2.94"/>
    <path class="cls-1" d="m167.54,129.33c-5.11,0-9.27-4.16-9.27-9.25,0-5.1,4.17-9.24,9.28-9.24,4.33,0,6.74,2.9,6.74,2.9l-2.47,3.05s-1.52-2.08-4.27-2.08c-2.98,0-5.4,2.41-5.4,5.37,0,2.97,2.42,5.38,5.39,5.38s4.31-2.12,4.31-2.12l2.48,3.04s-2.47,2.94-6.8,2.94"/>
    <path class="cls-1" d="m146.8,110.76c-5.41,0-8.66,4.48-8.66,9.35,0,5.43,3.78,9.23,9.21,9.23s7.55-4.08,7.55-4.08l-2.78-2.08s-1.42,2.51-4.7,2.51c-2.89,0-5.1-1.81-5.28-4.52h13.15s.06-.84.06-1.14c0-3.97-1.98-9.26-8.55-9.26m-4.51,7.41c.32-2.34,2.23-3.89,4.54-3.89,2.42,0,4.19,1.52,4.41,3.89h-8.95Z"/>
    <path class="cls-1" d="m117.7,187.85c-.75,0-1.38.24-1.9.72-.51.48-.77,1.06-.77,1.74,0,.8.26,1.47.77,2.01.51.54,1.16.81,1.95.81,1.32,0,2.44-.35,3.39-1.05-.02-1.44-.33-2.5-.95-3.19-.62-.69-1.44-1.04-2.49-1.04Z"/>
    <path class="cls-1" d="m134.77,188.55c-.62-.41-1.33-.62-2.12-.62s-1.47.2-2.09.6c-.62.4-1.11.95-1.46,1.65-.35.7-.53,1.5-.53,2.39s.18,1.76.53,2.5c.35.74.84,1.32,1.46,1.74.62.42,1.33.63,2.12.63s1.49-.21,2.12-.62c.62-.41,1.11-.97,1.46-1.69.35-.72.53-1.53.53-2.44s-.18-1.72-.54-2.45c-.36-.73-.85-1.29-1.47-1.71Z"/>
    <path class="cls-1" d="m98.91,185.73c-.77-.53-1.66-.79-2.67-.79-.92,0-1.77.26-2.55.78-.78.52-1.4,1.27-1.87,2.23-.47.97-.71,2.08-.71,3.35s.21,2.29.62,3.24c.41.95,1,1.68,1.76,2.21.76.52,1.65.78,2.68.78.96,0,1.82-.23,2.6-.71.78-.47,1.39-1.19,1.85-2.15.45-.97.68-2.14.68-3.53,0-1.2-.21-2.27-.62-3.21-.41-.94-1-1.68-1.77-2.21Z"/>
    <path class="cls-1" d="m115.74,162.95c-26.68,0-51.57-7.63-72.63-20.82v63.88c0,11.45,9.3,20.75,20.75,20.75h103.57c11.43,0,20.75-9.3,20.75-20.75v-63.77c-21.02,13.14-45.85,20.71-72.44,20.71Zm-44.69,37.01h-3.31v-17.44h3.31v17.44Zm14.3-1.97c-.5.72-1.25,1.28-2.23,1.69-.98.41-2.16.62-3.53.62-.72,0-1.61-.16-2.68-.47s-1.89-.65-2.47-1.01l.74-2.69c.63.33,1.35.61,2.15.86.8.25,1.54.37,2.21.37,1.03,0,1.8-.16,2.33-.49.53-.32.8-.79.8-1.41,0-.43-.21-.82-.63-1.17-.42-.35-1.06-.76-1.94-1.24l-.77-.46c-1.15-.68-2.05-1.27-2.73-1.77-.68-.5-1.26-1.08-1.74-1.76-.49-.67-.73-1.43-.73-2.27,0-.89.24-1.69.72-2.4.48-.71,1.17-1.26,2.06-1.67s1.97-.6,3.22-.6c1.47,0,3.11.44,4.92,1.31l-1.1,2.67c-.7-.34-1.34-.61-1.91-.79-.57-.19-1.19-.28-1.86-.28-.77,0-1.4.15-1.89.45-.49.3-.73.74-.73,1.32,0,.5.19.91.58,1.24s1.01.76,1.89,1.27l.82.46.74.44c1.01.58,1.81,1.09,2.41,1.53.6.44,1.1.97,1.5,1.59.4.62.6,1.35.6,2.19,0,.94-.25,1.77-.76,2.49Zm18.32-2.12c-.72,1.38-1.72,2.45-3.01,3.23-1.29.78-2.78,1.18-4.48,1.22-1.76,0-3.29-.4-4.58-1.19-1.29-.79-2.27-1.87-2.95-3.23s-1.01-2.88-1.01-4.58.35-3.33,1.06-4.72c.71-1.38,1.71-2.47,3.01-3.26,1.3-.79,2.79-1.2,4.46-1.23,1.76,0,3.29.4,4.59,1.19s2.29,1.88,2.96,3.24c.67,1.37,1.01,2.9,1.01,4.59,0,1.78-.36,3.36-1.08,4.73Zm19,.97c-1.04,1.41-2.33,2.53-3.87,3.35-1.54.82-3.06,1.32-4.56,1.51l-.46-2.74c3.18-.87,5.33-2.14,6.46-3.8-.82.39-1.68.59-2.56.59-1.06,0-2.02-.24-2.87-.72s-1.53-1.12-2.01-1.92c-.49-.8-.73-1.69-.73-2.67,0-1.04.24-1.97.72-2.77.48-.8,1.14-1.43,1.97-1.88.84-.45,1.79-.68,2.85-.68,1.3,0,2.45.26,3.45.78,1,.52,1.78,1.29,2.35,2.31.56,1.02.85,2.25.85,3.71,0,1.88-.52,3.53-1.56,4.94Zm16.18-.28c-.62,1.17-1.47,2.09-2.55,2.74-1.09.66-2.3.99-3.65.99s-2.57-.33-3.65-.99c-1.09-.66-1.94-1.57-2.55-2.73-.62-1.16-.92-2.47-.92-3.92s.31-2.73.92-3.87c.62-1.15,1.47-2.04,2.55-2.69,1.09-.65,2.31-.97,3.68-.97s2.57.32,3.65.96c1.09.64,1.93,1.53,2.54,2.68.61,1.15.91,2.43.91,3.85s-.31,2.79-.92,3.96Zm15.54,0c-.62,1.17-1.47,2.09-2.55,2.74-1.09.66-2.3.99-3.65.99s-2.57-.33-3.65-.99c-1.09-.66-1.94-1.57-2.55-2.73-.62-1.16-.92-2.47-.92-3.92s.31-2.73.92-3.87c.62-1.15,1.47-2.04,2.55-2.69,1.09-.65,2.31-.97,3.68-.97s2.57.32,3.65.96c1.09.64,1.93,1.53,2.54,2.68.61,1.15.91,2.43.91,3.85s-.31,2.79-.92,3.96Zm9.33,3.4h-3.33v-10.82l-2.92,1.13-1.26-2.49,5.28-2.33h2.23v14.51Z"/>
    <path class="cls-1" d="m150.31,188.55c-.62-.41-1.33-.62-2.12-.62s-1.47.2-2.09.6c-.62.4-1.11.95-1.46,1.65-.35.7-.53,1.5-.53,2.39s.17,1.76.53,2.5c.35.74.84,1.32,1.46,1.74.62.42,1.33.63,2.12.63s1.49-.21,2.12-.62c.62-.41,1.11-.97,1.46-1.69.35-.72.53-1.53.53-2.44s-.18-1.72-.54-2.45c-.36-.73-.85-1.29-1.47-1.71Z"/>
  </g>
</svg>