<?xml version="1.0" encoding="utf-8"?>
<!-- Generator: Adobe Illustrator 26.0.2, SVG Export Plug-In . SVG Version: 6.00 Build 0)  -->
<svg version="1.1" id="Capa_1" xmlns="http://www.w3.org/2000/svg" xmlns:xlink="http://www.w3.org/1999/xlink" x="0px" y="0px"
	 viewBox="0 0 292.2 85" style="enable-background:new 0 0 292.2 85;" xml:space="preserve">
<style type="text/css">
	.st0{fill:#FFFFFF;}
</style>
<g>
	<path class="st0" d="M94.9,17.5c-0.8-0.2-1.5-0.5-2.1-1c-0.6-0.5-1.1-1-1.4-1.8c-0.3-0.7-0.5-1.6-0.5-2.6c0-0.6,0-1.1,0-1.5
		c0-0.5,0-0.9,0-1.3c0-0.4,0-0.8,0-1.1c0-0.4,0-0.7,0-1.1C91,6,91,5,91,4.3c0-0.7-0.1-1.6-0.1-1.6h3.5c0,0-0.2,2.7-0.3,3.9
		c0,1.2,0,2.4,0,3.7c0,1.3,0.1,2.4,0.3,3.2c0.2,0.8,0.5,1.4,0.8,1.9c0.4,0.4,0.8,0.7,1.3,0.9c0.5,0.1,1.2,0.2,1.9,0.2
		c0.9,0,1.5-0.2,2-0.7c0.5-0.4,0.9-1,1.1-1.7c0.3-0.7,0.4-1.5,0.5-2.5c0.1-0.9,0.1-1.9,0.1-2.9c0-1,0-2,0-3c0-1-0.1-3-0.1-3h2.2
		c0,0-0.1,0.7-0.1,1.3c0,0.5-0.1,1.1-0.1,1.8c0,0.7-0.1,1.5-0.1,2.3c0,0.8,0,1.7,0,2.7c0,2.5-0.5,4.3-1.6,5.4
		c-1.1,1.1-2.7,1.6-4.8,1.6C96.6,17.8,95.7,17.7,94.9,17.5"/>
	<path class="st0" d="M110,8.7c0.4-0.6,0.9-1.1,1.4-1.4c0.5-0.3,1.2-0.5,1.8-0.5c1.1,0,1.9,0.3,2.5,0.9c0.6,0.6,0.9,1.6,0.9,3
		c0,0.7,0,1.4,0,1.9c0,0.6,0,1.1,0,1.7c0,0.5,0,1,0,1.5c0,0.6,0,1.1,0.1,1.6c-0.2,0-0.4-0.1-0.7-0.1h-0.9h-0.9c-0.3,0-0.5,0-0.7,0.1
		c0.1-0.7,0.2-1.6,0.2-2.6c0-1,0-2.2,0-3.5c0-0.9-0.2-1.6-0.5-2c-0.3-0.4-0.7-0.6-1.3-0.6c-0.6,0-1.1,0.3-1.4,0.9
		c-0.3,0.6-0.5,1.3-0.5,2.3v0.9c0,0.9,0,1.7,0,2.5c0,0.8,0.1,1.5,0.1,2.2c-0.2,0-0.4-0.1-0.7-0.1h-0.9h-0.9c-0.3,0-0.5,0-0.7,0.1
		c0.1-0.7,0.1-1.5,0.1-2.2c0-0.8,0-1.6,0-2.5v-0.9c0-0.9,0-1.7,0-2.5c0-0.8-0.1-2.3-0.1-2.3h3.1L110,8.7L110,8.7z"/>
	<path class="st0" d="M119.3,9.4c0-0.8-0.1-2.3-0.1-2.3h3.2c0,0-0.1,1.6-0.2,2.3c0,0.8,0,1.6,0,2.5v0.9c0,0.9,0,1.7,0,2.5
		c0,0.8,0.1,1.5,0.2,2.2c-0.2,0-0.4-0.1-0.7-0.1h-0.9h-0.9c-0.3,0-0.5,0-0.7,0.1c0.1-0.7,0.1-1.5,0.1-2.2c0-0.8,0-1.6,0-2.5v-0.9
		C119.4,11,119.3,10.2,119.3,9.4 M119.6,1.8c0.3-0.3,0.7-0.5,1.2-0.5c0.5,0,0.9,0.2,1.2,0.5c0.3,0.3,0.5,0.7,0.5,1.2
		c0,0.5-0.2,0.9-0.5,1.2c-0.3,0.3-0.7,0.5-1.2,0.5c-0.5,0-0.9-0.2-1.2-0.5c-0.3-0.3-0.5-0.7-0.5-1.2C119.1,2.6,119.3,2.2,119.6,1.8"
		/>
	<path class="st0" d="M130.8,10.9c0.4-1.3,1.3-3.8,1.3-3.8h1.8c0,0-0.5,1.2-0.8,2c-0.3,0.7-0.7,1.5-1.1,2.4
		c-0.4,0.9-0.7,1.8-1.1,2.9c-0.4,1-0.7,2.1-1.1,3.1c-0.2,0-0.4,0-0.6,0h-0.6h-0.6c-0.2,0-0.4,0-0.6,0c-0.3-0.8-0.6-1.7-1-2.7
		c-0.4-1-0.7-2-1.1-2.9c-0.3-1-0.7-1.9-1-2.7c-0.3-0.8-0.7-2.1-0.7-2.1h3.3c0,0,0.8,2.5,1.2,3.8c0.4,1.3,0.8,2.5,1.2,3.8h0
		C130,13.4,130.4,12.2,130.8,10.9"/>
	<path class="st0" d="M140.8,8.8c-0.2-0.6-0.6-1-1.2-1c-0.3,0-0.6,0.1-0.8,0.3c-0.2,0.2-0.4,0.5-0.5,0.8c-0.1,0.3-0.2,0.7-0.3,1.1
		c-0.1,0.4-0.1,0.8-0.1,1.3h3.3C141.2,10.3,141,9.4,140.8,8.8 M138.1,14c0.1,0.5,0.3,0.9,0.5,1.3c0.2,0.4,0.5,0.7,0.9,0.9
		c0.4,0.2,0.8,0.3,1.3,0.3c1,0,1.9-0.3,2.7-1l0.3,0.2l-0.5,1.2c-0.4,0.3-0.8,0.5-1.3,0.7c-0.5,0.2-1.2,0.3-2,0.3
		c-0.7,0-1.4-0.1-2-0.3c-0.6-0.2-1.2-0.5-1.7-1c-0.5-0.4-0.9-1-1.1-1.7c-0.3-0.7-0.4-1.5-0.4-2.4c0-0.9,0.1-1.7,0.4-2.4
		c0.3-0.7,0.6-1.3,1-1.7c0.5-0.4,1-0.8,1.6-1c0.6-0.2,1.3-0.3,2-0.3c1.4,0,2.5,0.4,3.3,1.2c0.7,0.8,1.1,2,1.1,3.5v0.5
		c0,0.1,0,0.2,0,0.3h-6.2C137.9,12.9,137.9,13.5,138.1,14"/>
	<path class="st0" d="M149,9.8c0.4-1,0.8-1.7,1.4-2.2c0.5-0.5,1.2-0.7,1.9-0.7h0.2h0.2l-0.1,3l-0.2,0.2c-0.1-0.1-0.3-0.2-0.5-0.2
		c-0.2-0.1-0.4-0.1-0.6-0.1c-0.6,0-1.2,0.2-1.5,0.6c-0.4,0.4-0.6,0.9-0.6,1.5v0.9c0,0.9,0,1.7,0,2.5c0,0.8,0.1,1.5,0.1,2.2
		c-0.2,0-0.4-0.1-0.7-0.1h-0.9h-0.9c-0.3,0-0.5,0-0.7,0.1c0.1-0.7,0.1-1.5,0.1-2.2c0-0.8,0-1.6,0-2.5v-0.9c0-0.9,0-1.7,0-2.5
		c0-0.8-0.1-2.3-0.1-2.3h3L149,9.8L149,9.8z"/>
	<path class="st0" d="M155,15.5c0.1,0.2,0.3,0.4,0.5,0.6c0.2,0.2,0.4,0.3,0.7,0.4c0.3,0.1,0.6,0.1,1,0.1c0.5,0,0.9-0.1,1.2-0.4
		c0.3-0.3,0.4-0.5,0.4-0.8c0-0.3-0.1-0.6-0.4-0.8c-0.2-0.2-0.5-0.4-0.9-0.5c-0.4-0.2-0.8-0.3-1.2-0.5c-0.4-0.2-0.8-0.4-1.2-0.7
		c-0.4-0.3-0.7-0.6-0.9-1c-0.2-0.4-0.4-0.9-0.4-1.5c0-0.6,0.1-1.1,0.3-1.6c0.2-0.4,0.5-0.8,0.9-1.1c0.4-0.3,0.8-0.5,1.2-0.6
		c0.5-0.1,0.9-0.2,1.4-0.2c0.6,0,1.1,0.1,1.6,0.3c0.5,0.2,1.4,0.8,1.4,0.8l-0.5,1.9h-0.6c0-0.2-0.1-0.4-0.2-0.6
		c-0.1-0.2-0.2-0.4-0.4-0.6c-0.2-0.2-0.4-0.3-0.6-0.5C158,8,157.7,8,157.4,8c-0.4,0-0.8,0.1-1.1,0.3c-0.3,0.2-0.4,0.5-0.4,0.9
		c0,0.3,0.1,0.6,0.4,0.8c0.3,0.2,0.6,0.4,0.9,0.6c0.4,0.2,0.8,0.3,1.2,0.5c0.4,0.2,0.8,0.4,1.2,0.6c0.4,0.2,0.7,0.6,0.9,1
		c0.3,0.4,0.4,0.9,0.4,1.6c0,0.6-0.1,1.2-0.3,1.6c-0.2,0.5-0.6,0.8-0.9,1.1c-0.4,0.3-0.8,0.5-1.3,0.6c-0.5,0.1-1,0.2-1.6,0.2
		c-0.6,0-1.2-0.1-1.8-0.3c-0.5-0.2-0.9-0.4-1.2-0.6c0.2-0.7,0.3-1.4,0.3-2.1h0.5C154.8,15.1,154.9,15.3,155,15.5"/>
	<path class="st0" d="M163.1,9.4c0-0.8-0.1-2.3-0.1-2.3h3.2c0,0-0.1,1.6-0.1,2.3c0,0.8,0,1.6,0,2.5v0.9c0,0.9,0,1.7,0,2.5
		c0,0.8,0.1,1.5,0.1,2.2c-0.2,0-0.4-0.1-0.7-0.1h-0.9h-0.9c-0.3,0-0.5,0-0.7,0.1c0.1-0.7,0.1-1.5,0.1-2.2c0-0.8,0-1.6,0-2.5v-0.9
		C163.1,11,163.1,10.2,163.1,9.4 M163.4,1.8c0.3-0.3,0.7-0.5,1.2-0.5c0.5,0,0.9,0.2,1.2,0.5c0.3,0.3,0.5,0.7,0.5,1.2
		c0,0.5-0.2,0.9-0.5,1.2c-0.3,0.3-0.7,0.5-1.2,0.5c-0.5,0-0.9-0.2-1.2-0.5c-0.3-0.3-0.5-0.7-0.5-1.2C162.9,2.6,163,2.2,163.4,1.8"/>
	<path class="st0" d="M171.7,14.4c0.1,0.5,0.2,0.9,0.4,1.2c0.2,0.3,0.4,0.5,0.6,0.7c0.2,0.1,0.4,0.2,0.7,0.2c0.6,0,1.1-0.3,1.5-1
		c0.4-0.7,0.6-1.8,0.6-3.3c0-1.3-0.2-2.3-0.5-2.9c-0.4-0.6-0.8-0.9-1.4-0.9c-0.2,0-0.5,0.1-0.7,0.2c-0.2,0.1-0.4,0.4-0.6,0.7
		c-0.2,0.3-0.3,0.8-0.5,1.3c-0.1,0.5-0.2,1.2-0.2,2C171.5,13.3,171.6,13.9,171.7,14.4 M178.5,17.5h-3.1c0,0,0.2-1.7,0.2-1.7l0,0
		c-0.3,0.7-0.6,1.1-1.1,1.5c-0.5,0.4-1.1,0.5-2,0.5c-0.7,0-1.4-0.1-1.9-0.4c-0.5-0.3-0.9-0.7-1.3-1.2c-0.3-0.5-0.6-1.1-0.7-1.8
		c-0.2-0.7-0.2-1.4-0.2-2.2c0-0.8,0.1-1.5,0.3-2.1c0.2-0.7,0.5-1.2,0.9-1.7c0.4-0.5,0.8-0.9,1.3-1.1c0.5-0.3,1.1-0.4,1.6-0.4
		c0.6,0,1.2,0.2,1.7,0.4c0.5,0.3,0.9,0.7,1.1,1.1h0.1l-0.2-7.2h3.2V17.5z"/>
	<path class="st0" d="M186,12.8c0-0.3,0-0.6,0-0.8c-0.3,0.2-0.6,0.3-1,0.4c-0.3,0.1-0.6,0.2-0.9,0.4c-0.3,0.2-0.5,0.4-0.7,0.7
		c-0.2,0.3-0.3,0.7-0.3,1.3c0,0.5,0.1,0.9,0.3,1.2c0.2,0.3,0.5,0.4,0.9,0.4c0.5,0,0.8-0.2,1.2-0.5c0.3-0.4,0.4-0.9,0.4-1.6
		C186,13.6,186,13.1,186,12.8 M182.8,7.2c0.7-0.3,1.4-0.4,2.1-0.4c0.6,0,1.1,0.1,1.6,0.2c0.5,0.1,0.9,0.3,1.3,0.6
		c0.3,0.3,0.6,0.6,0.8,1.1c0.2,0.4,0.3,1,0.3,1.6c0,0.9,0,1.8,0,2.5c0,0.8,0,1.6,0,2.3c0,0.3,0,0.6,0.1,0.8c0.1,0.2,0.1,0.3,0.2,0.4
		c0.1,0.1,0.2,0.2,0.4,0.2c0.2,0,0.4,0.1,0.6,0.1v0.5c-0.4,0.2-0.8,0.3-1.1,0.4c-0.3,0.1-0.6,0.1-0.9,0.1c-0.5,0-1-0.1-1.3-0.4
		c-0.3-0.3-0.6-0.6-0.8-1.1c-0.3,0.5-0.7,0.8-1.1,1.1c-0.4,0.3-1,0.4-1.7,0.4c-0.5,0-1-0.1-1.4-0.2c-0.4-0.1-0.7-0.4-1-0.6
		c-0.3-0.3-0.4-0.6-0.6-0.9c-0.1-0.3-0.2-0.7-0.2-1c0-0.5,0.1-0.9,0.2-1.2c0.2-0.3,0.4-0.6,0.6-0.9c0.3-0.2,0.6-0.5,1-0.6
		c0.4-0.1,0.8-0.3,1.3-0.4c0.6-0.2,1.1-0.3,1.4-0.4c0.3-0.1,0.6-0.2,0.8-0.3c0.2-0.1,0.3-0.2,0.3-0.4c0-0.1,0.1-0.3,0.1-0.5
		c0-0.5-0.2-1-0.5-1.3c-0.4-0.4-0.9-0.5-1.5-0.5c-0.2,0-0.5,0-0.8,0.1c-0.3,0.1-0.5,0.2-0.8,0.3c-0.2,0.1-0.4,0.2-0.6,0.4
		c-0.2,0.1-0.3,0.3-0.4,0.4h-0.2l-0.3-1.3C181.5,7.9,182.1,7.5,182.8,7.2"/>
	<path class="st0" d="M194.5,14.4c0.1,0.5,0.2,0.9,0.4,1.2c0.2,0.3,0.4,0.5,0.6,0.7c0.2,0.1,0.5,0.2,0.7,0.2c0.6,0,1.1-0.3,1.5-1
		c0.4-0.7,0.6-1.8,0.6-3.3c0-1.3-0.2-2.3-0.5-2.9c-0.4-0.6-0.8-0.9-1.4-0.9c-0.2,0-0.5,0.1-0.7,0.2c-0.2,0.1-0.4,0.3-0.6,0.7
		c-0.2,0.3-0.3,0.8-0.5,1.3c-0.1,0.5-0.2,1.2-0.2,2C194.3,13.3,194.4,13.9,194.5,14.4 M201.2,14c0,1.2,0.1,3.8,0.1,3.8h-3.1
		c0,0,0.2-2,0.2-2l0,0c-0.3,0.6-0.6,1.1-1.1,1.5c-0.5,0.4-1.1,0.5-2,0.5c-0.7,0-1.4-0.1-1.9-0.4c-0.5-0.3-0.9-0.7-1.3-1.2
		c-0.3-0.5-0.6-1.1-0.7-1.8c-0.2-0.7-0.2-1.4-0.2-2.2c0-0.8,0.1-1.5,0.3-2.1c0.2-0.7,0.5-1.2,0.9-1.7c0.4-0.5,0.8-0.9,1.3-1.1
		c0.5-0.3,1.1-0.4,1.6-0.4c0.6,0,1.2,0.2,1.7,0.4c0.5,0.3,0.9,0.7,1.1,1.1h0.1c0-1.3,0-2.5,0-3.7c0-1.1-0.1-2.3-0.1-3.6
		c0.2,0,0.4,0.1,0.7,0.1c0.3,0,0.6,0,0.9,0c0.3,0,0.6,0,0.9,0c0.3,0,0.5,0,0.7-0.1c-0.1,1.2-0.1,2.4-0.1,3.6c0,1.2,0,2.5,0,3.9v1.4
		C201.1,11.5,201.1,12.8,201.2,14"/>
	<path class="st0" d="M160.7,80.5c0.1,0.5,0.3,0.9,0.5,1.2c0.2,0.3,0.4,0.5,0.7,0.7c0.2,0.1,0.5,0.2,0.8,0.2c0.7,0,1.2-0.3,1.6-1
		c0.4-0.7,0.6-1.8,0.6-3.3c0-1.3-0.2-2.3-0.6-2.9c-0.4-0.6-0.9-0.9-1.5-0.9c-0.3,0-0.5,0.1-0.8,0.2c-0.2,0.1-0.5,0.3-0.7,0.7
		c-0.2,0.3-0.4,0.7-0.5,1.3c-0.1,0.5-0.2,1.2-0.2,2C160.6,79.4,160.6,80,160.7,80.5 M168.3,83.5h-3.4c0,0,0.2-1.6,0.2-1.7l0,0
		c-0.3,0.6-0.7,1.1-1.2,1.5c-0.5,0.3-1.2,0.5-2.2,0.5c-0.8,0-1.5-0.1-2.1-0.4c-0.6-0.3-1-0.7-1.4-1.2c-0.4-0.5-0.6-1.1-0.8-1.7
		c-0.2-0.7-0.3-1.4-0.3-2.1c0-0.8,0.1-1.5,0.4-2.1c0.2-0.6,0.6-1.2,1-1.7c0.4-0.5,0.9-0.8,1.5-1.1c0.6-0.3,1.2-0.4,1.8-0.4
		c0.7,0,1.4,0.2,1.9,0.4c0.6,0.3,1,0.7,1.3,1.1h0c0-1.3-0.2-7.1-0.2-7.1h3.6V83.5z"/>
	<path class="st0" d="M177.2,75c-0.3-0.6-0.7-1-1.3-1c-0.4,0-0.6,0.1-0.9,0.3c-0.3,0.2-0.4,0.5-0.6,0.8c-0.1,0.3-0.2,0.7-0.3,1.1
		c-0.1,0.4-0.1,0.8-0.1,1.2h3.7C177.6,76.4,177.4,75.6,177.2,75 M174.1,80c0.1,0.5,0.3,0.9,0.6,1.3c0.3,0.4,0.6,0.6,1,0.8
		c0.4,0.2,0.9,0.3,1.4,0.3c1.1,0,2.1-0.3,2.9-1l0.3,0.2l-0.5,1.2c-0.4,0.3-0.9,0.5-1.4,0.6c-0.6,0.2-1.3,0.2-2.2,0.2
		c-0.8,0-1.5-0.1-2.2-0.3c-0.7-0.2-1.3-0.5-1.9-1c-0.5-0.4-1-1-1.3-1.7c-0.3-0.7-0.5-1.5-0.5-2.4c0-0.9,0.1-1.7,0.4-2.4
		c0.3-0.7,0.7-1.2,1.2-1.7c0.5-0.4,1.1-0.8,1.8-1c0.7-0.2,1.4-0.3,2.2-0.3c1.6,0,2.8,0.4,3.6,1.2c0.8,0.8,1.3,2,1.3,3.5v0.4
		c0,0.1,0,0.2,0,0.3h-6.8C173.9,79,174,79.5,174.1,80"/>
	<path class="st0" d="M203,82c-0.1,0.3-0.2,0.6-0.2,0.9c-1.3,0.6-2.9,0.9-4.9,0.9c-1.4,0-2.6-0.2-3.7-0.5c-1.1-0.4-2-0.8-2.8-1.5
		c-0.8-0.6-1.3-1.4-1.7-2.2c-0.4-0.9-0.6-1.8-0.6-2.8c0-1.5,0.3-2.7,0.8-3.7c0.5-1,1.2-1.9,2.1-2.5c0.9-0.6,1.9-1.1,3-1.4
		c1.2-0.3,2.4-0.4,3.6-0.4c0.4,0,0.9,0,1.3,0.1c0.5,0.1,0.9,0.1,1.3,0.2c0.4,0.1,0.8,0.2,1.2,0.3c0.4,0.1,0.7,0.3,1,0.4
		c-0.2,0.4-0.3,0.7-0.4,1.1c-0.1,0.4-0.2,0.7-0.2,1.1h-0.3c-0.6-0.7-1.2-1.2-1.9-1.5c-0.6-0.3-1.4-0.4-2.3-0.4
		c-0.6,0-1.3,0.1-1.9,0.4c-0.6,0.3-1.2,0.6-1.8,1.2c-0.5,0.5-1,1.2-1.3,2c-0.3,0.8-0.5,1.8-0.5,2.9c0,1.1,0.2,2,0.5,2.8
		c0.3,0.8,0.8,1.4,1.3,1.9c0.5,0.5,1.1,0.8,1.8,1.1c0.7,0.2,1.4,0.3,2.1,0.3c0.4,0,0.8,0,1.2-0.1c0.4-0.1,0.8-0.2,1.2-0.3
		c0.4-0.1,0.7-0.3,1.1-0.5c0.4-0.2,0.7-0.4,0.9-0.6l0.3,0.2C203.2,81.4,203.1,81.7,203,82"/>
	<path class="st0" d="M212.7,75c-0.3-0.7-0.9-1-1.7-1c-0.7,0-1.3,0.4-1.7,1.1c-0.4,0.8-0.6,2-0.6,3.6c0,0.6,0,1.1,0.1,1.7
		c0.1,0.5,0.2,0.9,0.4,1.3c0.2,0.4,0.4,0.7,0.7,0.9c0.3,0.2,0.7,0.3,1.1,0.3c1.5,0,2.3-1.7,2.3-5C213.2,76.7,213.1,75.7,212.7,75
		 M205.6,76.2c0.3-0.7,0.8-1.3,1.3-1.8c0.5-0.5,1.2-0.8,1.9-1.1c0.7-0.2,1.4-0.4,2.2-0.4c1.9,0,3.3,0.5,4.3,1.4
		c1,0.9,1.5,2.2,1.5,3.8c0,0.9-0.1,1.6-0.4,2.3c-0.3,0.7-0.7,1.3-1.2,1.8c-0.5,0.5-1.1,0.8-1.9,1.1c-0.7,0.2-1.5,0.4-2.4,0.4
		c-0.7,0-1.4-0.1-2.1-0.2c-0.7-0.2-1.3-0.5-1.9-0.9c-0.6-0.4-1-0.9-1.3-1.6c-0.3-0.7-0.5-1.4-0.5-2.4
		C205.1,77.8,205.2,76.9,205.6,76.2"/>
	<path class="st0" d="M219.3,71.1c0-1.2-0.1-3.5-0.1-3.5h3.6c0,0-0.1,2.4-0.2,3.5c0,1.2-0.1,2.4-0.1,3.8v1.4c0,1.4,0,2.7,0.1,3.8
		c0,1.2,0.2,3.5,0.2,3.5h-3.6c0,0,0.1-2.3,0.1-3.5c0-1.1,0-2.4,0-3.8v-1.4C219.3,73.5,219.3,72.2,219.3,71.1"/>
	<path class="st0" d="M232.7,75c-0.3-0.7-0.9-1-1.7-1c-0.7,0-1.3,0.4-1.7,1.1c-0.4,0.8-0.6,2-0.6,3.6c0,0.6,0,1.1,0.1,1.7
		c0.1,0.5,0.2,0.9,0.4,1.3c0.2,0.4,0.4,0.7,0.7,0.9c0.3,0.2,0.7,0.3,1.1,0.3c1.5,0,2.3-1.7,2.3-5C233.3,76.7,233.1,75.7,232.7,75
		 M225.6,76.2c0.3-0.7,0.8-1.3,1.3-1.8c0.5-0.5,1.2-0.8,1.9-1.1c0.7-0.2,1.4-0.4,2.2-0.4c1.9,0,3.3,0.5,4.3,1.4
		c1,0.9,1.5,2.2,1.5,3.8c0,0.9-0.2,1.6-0.4,2.3c-0.3,0.7-0.7,1.3-1.2,1.8c-0.5,0.5-1.1,0.8-1.8,1.1c-0.7,0.2-1.5,0.4-2.4,0.4
		c-0.7,0-1.4-0.1-2.1-0.2c-0.7-0.2-1.3-0.5-1.9-0.9c-0.6-0.4-1-0.9-1.4-1.6c-0.3-0.7-0.5-1.4-0.5-2.4
		C225.1,77.8,225.3,76.9,225.6,76.2"/>
	<path class="st0" d="M242.3,74.9c0.4-0.6,1-1.1,1.6-1.4c0.6-0.3,1.3-0.5,2-0.5c0.7,0,1.3,0.2,1.9,0.5c0.5,0.3,0.9,0.8,1.2,1.5
		c0.5-0.6,1-1.1,1.7-1.5c0.6-0.4,1.3-0.5,2-0.5c1.2,0,2.1,0.3,2.8,0.9c0.6,0.6,1,1.6,1,3c0,0.7,0,1.4,0,1.9c0,0.5,0,1.1,0,1.6
		c0,0.5,0,0.9,0,1.5c0,0.5,0.1,1.5,0.1,1.5h-3.6c0,0,0.2-1.6,0.2-2.6c0-1,0-2.1,0-3.4c0-0.9-0.2-1.6-0.5-2c-0.3-0.4-0.8-0.6-1.4-0.6
		c-0.4,0-0.7,0.1-1,0.2c-0.2,0.2-0.4,0.4-0.6,0.6c-0.1,0.2-0.2,0.5-0.3,0.8c0,0.3-0.1,0.6-0.1,0.8v1.5c0,0.9,0,1.7,0,2.4
		c0,0.8,0.2,2.2,0.2,2.2h-3.6c0,0,0.1-1.4,0.2-2.2c0-0.8,0-1.6,0-2.4v-1.3c0-0.8-0.1-1.5-0.4-2c-0.2-0.5-0.7-0.7-1.4-0.7
		c-0.7,0-1.2,0.3-1.6,0.8c-0.3,0.5-0.5,1.3-0.5,2.3v0.8c0,0.9,0,1.7,0,2.4c0,0.8,0.1,2.2,0.1,2.2h-3.6c0,0,0.1-1.4,0.2-2.2
		c0-0.8,0-1.6,0-2.4V78c0-0.8,0-1.7,0-2.4c0-0.8-0.2-2.3-0.2-2.3h3.5L242.3,74.9L242.3,74.9z"/>
	<path class="st0" d="M262.4,80.2c0.1,0.5,0.2,1,0.3,1.4c0.1,0.4,0.4,0.7,0.6,0.9c0.3,0.2,0.6,0.3,1,0.3c0.7,0,1.2-0.4,1.6-1.1
		c0.4-0.7,0.6-2,0.6-3.7c0-2.4-0.7-3.7-2-3.7c-0.3,0-0.6,0.1-0.9,0.2c-0.3,0.1-0.5,0.4-0.7,0.7c-0.2,0.3-0.3,0.8-0.4,1.3
		c-0.1,0.5-0.2,1.2-0.2,1.9C262.3,79.1,262.4,79.7,262.4,80.2 M259.1,71.1c0-1.2-0.2-3.5-0.2-3.5h3.6c0,0-0.1,2.4-0.1,3.5
		c0,1.2,0,2.4,0,3.8h0c0.3-0.6,0.7-1,1.3-1.3c0.6-0.3,1.2-0.5,1.9-0.5c0.7,0,1.3,0.1,1.9,0.4c0.6,0.3,1.1,0.6,1.5,1.1
		c0.4,0.4,0.7,1,0.9,1.6c0.2,0.6,0.3,1.3,0.3,2c0,1.1-0.2,1.9-0.5,2.7c-0.3,0.7-0.8,1.3-1.3,1.8c-0.5,0.4-1.1,0.8-1.7,1
		c-0.6,0.2-1.3,0.3-1.9,0.3c-0.8,0-1.4-0.1-1.9-0.4c-0.5-0.3-1-0.6-1.3-1c-0.3,0.2-0.7,0.4-1,0.6c-0.3,0.2-0.7,0.4-1,0.6h-0.6
		c0.1-1.2,0.1-2.3,0.2-3.5c0-1.2,0.1-2.4,0.1-3.8v-1.4C259.1,73.5,259.1,72.2,259.1,71.1"/>
	<path class="st0" d="M272.7,75.6c0-0.8-0.2-2.3-0.2-2.3h3.6c0,0-0.1,1.5-0.2,2.3c0,0.8,0,1.6,0,2.4v0.8c0,0.9,0,1.7,0,2.4
		c0,0.8,0.2,2.2,0.2,2.2h-3.6c0,0,0.1-1.4,0.2-2.2c0-0.8,0-1.6,0-2.4V78C272.7,77.2,272.7,76.4,272.7,75.6 M273,68.1
		c0.4-0.3,0.8-0.5,1.3-0.5c0.5,0,1,0.2,1.3,0.5c0.4,0.3,0.6,0.7,0.6,1.2c0,0.5-0.2,0.9-0.6,1.2c-0.4,0.3-0.8,0.5-1.3,0.5
		c-0.5,0-1-0.2-1.3-0.5c-0.4-0.3-0.6-0.7-0.6-1.2C272.4,68.9,272.6,68.5,273,68.1"/>
	<path class="st0" d="M284.8,78.9c0-0.3,0-0.6,0-0.8c-0.3,0.2-0.7,0.3-1.1,0.4c-0.4,0.1-0.7,0.2-1.1,0.4c-0.3,0.2-0.6,0.4-0.8,0.7
		c-0.2,0.3-0.3,0.7-0.3,1.2c0,0.5,0.1,0.9,0.4,1.2c0.2,0.3,0.6,0.4,1,0.4c0.5,0,1-0.2,1.3-0.5c0.3-0.4,0.5-0.9,0.5-1.6
		C284.8,79.7,284.8,79.2,284.8,78.9 M281.2,73.4c0.8-0.2,1.5-0.4,2.3-0.4c0.6,0,1.2,0.1,1.8,0.2c0.5,0.1,1,0.3,1.4,0.6
		c0.4,0.3,0.7,0.6,0.9,1.1c0.2,0.4,0.3,1,0.3,1.6c0,0.9,0,1.7,0,2.5c0,0.8,0,1.5,0,2.3c0,0.3,0,0.6,0.1,0.8c0.1,0.2,0.1,0.3,0.3,0.4
		c0.1,0.1,0.3,0.2,0.4,0.2c0.2,0,0.4,0,0.6,0v0.5c-0.4,0.2-0.8,0.3-1.2,0.4c-0.3,0.1-0.7,0.1-1,0.1c-0.6,0-1.1-0.1-1.4-0.4
		c-0.4-0.2-0.6-0.6-0.8-1.1c-0.4,0.4-0.8,0.8-1.3,1.1c-0.5,0.3-1.1,0.4-1.8,0.4c-0.6,0-1.1-0.1-1.6-0.2c-0.4-0.1-0.8-0.3-1.1-0.6
		c-0.3-0.3-0.5-0.6-0.6-0.9c-0.1-0.3-0.2-0.7-0.2-1c0-0.5,0.1-0.9,0.3-1.2c0.2-0.3,0.4-0.6,0.7-0.9c0.3-0.2,0.7-0.4,1.1-0.6
		c0.4-0.2,0.9-0.3,1.5-0.4c0.7-0.1,1.2-0.3,1.6-0.4c0.4-0.1,0.7-0.2,0.9-0.3c0.2-0.1,0.3-0.2,0.4-0.4c0.1-0.1,0.1-0.3,0.1-0.5
		c0-0.5-0.2-0.9-0.6-1.3c-0.4-0.4-1-0.5-1.7-0.5c-0.3,0-0.6,0-0.8,0.1c-0.3,0.1-0.6,0.2-0.8,0.3c-0.3,0.1-0.5,0.2-0.7,0.4
		c-0.2,0.1-0.4,0.3-0.5,0.4h-0.2l-0.3-1.3C279.7,74.1,280.5,73.7,281.2,73.4"/>
	<path class="st0" d="M272.3,58.5c-1.1,0-1.9-0.3-2.6-0.8c-0.7-0.5-1.3-1.3-1.8-2.3c-0.5-1-0.8-2.3-1-3.7c-0.2-1.4-0.3-3-0.3-4.7
		c0-4.6,0.6-8,1.7-10.2c1-2,2.4-3,4.1-3c2,0,3.3,0.9,4.1,2.6c0.9,1.9,1.4,4.7,1.4,8.2C277.9,53.8,276,58.5,272.3,58.5 M284.8,33.8
		c-3-2.9-7.2-4.3-12.6-4.3c-2.2,0-4.3,0.4-6.3,1.1c-2.1,0.7-3.9,1.8-5.5,3.3c-1.6,1.5-2.9,3.3-3.8,5.5c-0.9,2.2-1.4,4.7-1.4,7.6
		c0,2.9,0.5,5.4,1.5,7.4c1,2,2.3,3.6,4,4.9c1.6,1.2,3.5,2.1,5.5,2.7c2,0.5,4,0.8,6.1,0.8c2.5,0,4.8-0.4,6.8-1.1
		c2.1-0.7,3.9-1.9,5.5-3.4c1.5-1.5,2.7-3.3,3.5-5.5c0.8-2.1,1.3-4.5,1.3-7.1C289.3,40.6,287.8,36.7,284.8,33.8 M239.2,54.9
		c-1,1.7-2.3,2.6-3.9,2.6c-0.6,0-1.2-0.2-1.8-0.5c-0.6-0.3-1.1-0.9-1.6-1.7c-0.5-0.8-0.9-1.9-1.2-3.3c-0.3-1.4-0.5-3.2-0.5-5.2
		c0-2.3,0.2-4.3,0.5-5.8c0.4-1.5,0.8-2.7,1.4-3.6c0.5-0.8,1.1-1.4,1.7-1.7c0.6-0.3,1.2-0.5,1.8-0.5c1.5,0,2.7,0.7,3.7,2.3
		c1,1.6,1.6,4.4,1.6,8.1C240.9,50,240.3,53.1,239.2,54.9 M251.9,17.3h-11.5c0,0,0.5,12.5,0.5,15.5c-0.7-0.7-1.5-1.4-2.5-1.9
		c-1.7-1-3.6-1.4-5.8-1.4c-1.9,0-3.7,0.4-5.4,1.3c-1.7,0.8-3.1,2-4.4,3.5c-1.2,1.5-2.2,3.2-2.9,5.2c-0.7,2-1,4.1-1,6.5
		c0,2.3,0.3,4.5,0.7,6.5c0.5,2,1.3,3.8,2.4,5.4c1.1,1.6,2.5,2.8,4.2,3.6c1.7,0.9,3.8,1.3,6.1,1.3c2.7,0,4.9-0.6,6.5-1.7
		c0.8-0.6,1.5-1.2,2.1-2c-0.1,0.5-0.1,0.9-0.1,1.3c-0.1,1-0.8,2.4-0.8,2.4h11.7C251.9,61.8,251.9,17.3,251.9,17.3 M204.5,47.4
		c0,0.9-0.1,2.3-0.1,4.1c0,1.8-0.4,3.2-1.2,4.1c-0.8,0.9-1.8,1.3-3,1.3c-0.9,0-1.7-0.3-2.2-1c-0.6-0.7-0.9-1.7-0.9-3
		c0-1.4,0.2-2.5,0.7-3.2c0.5-0.7,1.1-1.3,1.9-1.7c0.8-0.4,1.8-0.8,2.8-1.1c0.7-0.2,1.4-0.5,2-0.7C204.6,46.6,204.5,47,204.5,47.4
		 M216.2,58c-0.4-0.1-0.6-0.2-0.8-0.4c-0.2-0.2-0.4-0.5-0.5-0.9c-0.1-0.5-0.2-1.2-0.2-2.1c0-2.2,0-4.5,0.1-6.7
		c0.1-2.3,0.1-4.8,0.1-7.4c0-1.9-0.3-3.6-1-5c-0.7-1.4-1.6-2.6-2.8-3.4c-1.2-0.9-2.6-1.5-4.2-1.9c-1.6-0.4-3.3-0.6-5.1-0.6
		c-2.2,0-4.5,0.4-6.7,1.2c-2.2,0.8-4.3,1.9-6.2,3.3l-0.4,0.3l0.1,0.5l0.9,3.7l0.1,0.6h1.5l0.2-0.3c0.3-0.4,0.6-0.7,1.2-1.1
		c0.6-0.4,1.2-0.7,1.9-1c0.7-0.3,1.4-0.6,2.2-0.7c0.7-0.2,1.5-0.3,2.2-0.3c1.8,0,3.2,0.5,4.2,1.4c1,0.9,1.5,2,1.5,3.3
		c0,0.4-0.1,0.8-0.2,1.1c-0.1,0.2-0.3,0.5-0.7,0.7c-0.5,0.3-1.2,0.6-2.3,0.9c-1.1,0.3-2.6,0.7-4.4,1.1c-1.5,0.3-2.9,0.8-4.2,1.3
		c-1.3,0.5-2.4,1.1-3.3,1.9c-1,0.8-1.7,1.7-2.2,2.8c-0.5,1.1-0.8,2.4-0.8,3.9c0,1.1,0.2,2.2,0.6,3.2c0.4,1.1,1,2.1,1.9,2.9
		c0.9,0.9,2,1.5,3.2,2c1.3,0.4,2.8,0.7,4.6,0.7c2.2,0,4-0.4,5.5-1.3c1.1-0.6,2.1-1.5,3-2.4c0.5,1,1.2,1.8,2.1,2.4
		c1.2,0.9,2.7,1.3,4.5,1.3c1.1,0,2.1-0.1,3.1-0.4c0.9-0.3,2.1-0.6,3.4-1.1l0.5-0.2v-2.8h-0.8C217.2,58.1,216.6,58,216.2,58
		 M182.9,56.5c-0.1-1.5-0.1-3-0.1-4.3c0-1.6,0-3.3,0.1-4.8c0.1-1.6,0.1-3.6,0.1-5.6c0-4.2-1-7.4-2.9-9.3c-1.9-2-4.7-2.9-8.2-2.9
		c-2.3,0-4.3,0.5-6.1,1.5c-1.2,0.7-2.3,1.6-3.3,2.6l0.2-3.4l-11.3,0l0,31.6h11.8c0,0-0.4-5-0.5-7.2c-0.1-2.2-0.1-4.6-0.1-7.2v-2.5
		c0-2.7,0.4-4.9,1.3-6.4c0.8-1.4,2-2.1,3.8-2.1c1.5,0,2.6,0.5,3.4,1.6c0.8,1.1,1.3,2.9,1.3,5.3c0,3.7-0.1,7.1-0.1,10.1
		c-0.1,2.9-0.8,8.4-0.8,8.4h11.7C183.3,61.8,183,58.1,182.9,56.5 M139.7,31.9c-1.1,0.9-2.2,2.2-3.1,3.8l0.1-5.4H126v31.6l11.6,0
		c0,0-0.1-0.8-0.1-0.8c-0.2-2-0.4-4.2-0.4-6.4c-0.1-2.2-0.1-4.6-0.1-7.2v-2.5c0-1.5,0.5-2.7,1.5-3.8c1-1.1,2.4-1.6,4.2-1.6
		c0.6,0,1.2,0.1,1.7,0.2c0.5,0.1,1,0.3,1.4,0.6l0.4,0.2l1.3-1.1l0.5-9.7h-2C143.6,29.7,141.4,30.5,139.7,31.9 M102.3,42.6
		c0.1-0.9,0.2-1.8,0.3-2.8c0.2-1.2,0.5-2.2,0.9-3.1c0.4-0.9,0.8-1.6,1.4-2.1c0.5-0.5,1.2-0.7,2-0.7c1.4,0,2.4,0.8,3,2.3
		c0.6,1.6,1,3.8,1.1,6.4H102.3z M107.1,29.5c-2.3,0-4.5,0.4-6.4,1.1c-2,0.7-3.7,1.8-5.2,3.2c-1.5,1.4-2.6,3.2-3.4,5.3
		c-0.8,2.1-1.2,4.5-1.2,7.3c0,2.8,0.5,5.3,1.4,7.4c0.9,2.1,2.2,3.8,3.8,5.1c1.6,1.4,3.4,2.3,5.5,2.9c2,0.6,4.2,0.9,6.4,0.9
		c2.6,0,4.7-0.3,6.4-0.8c1.6-0.5,4.4-2.1,4.4-2.1l1.8-4.2l-1.8-1.2l-0.4,0.3c-2.3,1.8-4.9,2.6-7.8,2.6c-1.4,0-2.6-0.3-3.6-0.8
		c-1-0.5-1.9-1.3-2.5-2.2c-0.7-1-1.2-2.1-1.5-3.5c-0.3-1.1-0.4-2.4-0.5-3.7h19.1v-2.8c0-4.6-1.2-8.2-3.7-10.8
		C115.3,30.8,111.7,29.5,107.1,29.5 M87.5,57.6c-0.2,0-3.3,0.7-4-1.3c-0.6-1.4-0.4-17.9-0.3-21.6l5.9,0.2v-4.7l-5.9,0.1
		c0.1-2.5,0.8-12.1,0.8-12.1l-1.4-0.9l-10.1,4.2c0,0,0,6.7,0,8.8L68,30.2v4.7l4.7-0.1l0.2,17.5c0,6.9,2.9,10.3,8.8,10.2
		c4.3,0,8-1.7,8-1.7v-4.3C89.6,56.6,88.2,57.4,87.5,57.6 M66.3,30.3h-7.9l-6.5,9.3l-5.4-9.3H33.4c0,0,9.5,14.5,11.2,17.2
		c-1.8,2.4-11.2,14.1-11.2,14.1h7.7c0,0,4.5-6.9,6.5-9.7l5.9,9.7h12.8L54.8,44.3L66.3,30.3z M14.9,55.8V41.6L30,42.1v-6.9l-15.1,0.7
		V23.7l15.3,0.8v-7.2H2.9v44.4h27.4v-6.8L14.9,55.8z"/>
</g>
</svg>
