<?xml version="1.0" encoding="utf-8"?>
<!-- Generator: Adobe Illustrator 26.3.1, SVG Export Plug-In . SVG Version: 6.00 Build 0)  -->
<svg version="1.1" id="Layer_1" xmlns="http://www.w3.org/2000/svg" xmlns:xlink="http://www.w3.org/1999/xlink" x="0px" y="0px"
	 viewBox="0 0 20 21" style="enable-background:new 0 0 20 21;" xml:space="preserve">
<style type="text/css">
	.st0{fill:#666666;}
</style>
<path class="st0" d="M17.7,8h-5.2V2.8c0-1.3-1-2.3-2.3-2.3H9.8c-1.3,0-2.3,1-2.3,2.3V8H2.3C1,8,0,9,0,10.3v0.5C0,12,1,13,2.3,13h5.2
	v5.2c0,1.3,1,2.3,2.3,2.3h0.5c1.3,0,2.3-1,2.3-2.3V13h5.2c1.3,0,2.3-1,2.3-2.3v-0.5C20,9,19,8,17.7,8z"/>
</svg>
