<?xml version="1.0" encoding="UTF-8"?>
<svg id="Layer_1" data-name="Layer 1" xmlns="http://www.w3.org/2000/svg" viewBox="0 0 231.3 328.1">
  <defs>
    <style>
      .cls-1 {
        fill: #fff;
        stroke-width: 0px;
      }
    </style>
  </defs>
  <path class="cls-1" d="m166.68,4.72c13.51,0,24.45,10.96,24.45,24.46v176.65c0,13.51-10.95,24.45-24.45,24.45H63.1c-13.51,0-24.45-10.94-24.45-24.45V29.18c0-13.51,10.94-24.46,24.45-24.46h103.58ZM63.1,226.59h103.58c11.44,0,20.75-9.31,20.75-20.75v-63.78c-21.03,13.14-45.86,20.72-72.45,20.72s-51.58-7.63-72.64-20.83v63.89c0,11.45,9.3,20.75,20.75,20.75M166.68,1.02H63.1c-15.52,0-28.15,12.63-28.15,28.16v176.65c0,15.52,12.63,28.15,28.15,28.15h103.58c15.52,0,28.15-12.63,28.15-28.15V29.18c0-15.53-12.63-28.16-28.15-28.16M63.1,222.89c-9.4,0-17.06-7.65-17.06-17.06v-57.39c20.98,11.81,44.68,18.03,68.94,18.03s47.83-6.18,68.76-17.93v57.29c0,9.4-7.65,17.06-17.06,17.06H63.1Z"/>
  <path class="cls-1" d="m114.9,73.26c-6.49,0-11.77-5.29-11.77-11.78,0-6.49,5.29-11.77,11.78-11.76,6.49,0,11.77,5.29,11.77,11.78,0,6.49-5.29,11.77-11.78,11.76m.01-19.19c-4.09,0-7.42,3.32-7.42,7.41,0,4.09,3.32,7.42,7.41,7.42,4.09,0,7.42-3.32,7.42-7.41,0-4.09-3.32-7.42-7.41-7.42"/>
  <path class="cls-1" d="m93.32,80.03c-4.28-5-6.88-11.48-6.88-18.56,0-5.65,1.66-10.9,4.51-15.33l-3.49-2.63c-3.39,5.17-5.37,11.33-5.38,17.96,0,8.29,3.07,15.86,8.14,21.66l3.09-3.09Z"/>
  <path class="cls-1" d="m90.23,39.85l3.09,3.09c.95-1.1,1.98-2.14,3.08-3.08l-3.09-3.09c-1.09.96-2.12,1.99-3.08,3.08"/>
  <path class="cls-1" d="m115,28.59c-6.66,0-12.86,1.99-18.05,5.41l2.63,3.49c4.45-2.87,9.74-4.54,15.42-4.53,7.44,0,14.37,2.81,19.62,7.83l3.81-2.36c-6.15-6.29-14.47-9.83-23.43-9.84"/>
  <path class="cls-1" d="m128.1,73.69c-3.28,3.52-7.95,5.73-13.14,5.73-9.89,0-17.93-8.06-17.92-17.95,0-9.89,8.06-17.93,17.95-17.92,3.66,0,7.17,1.12,10.11,3.13l3.98-2.46c-3.93-3.21-8.88-5.03-14.08-5.03-12.29,0-22.3,9.99-22.31,22.28,0,12.29,9.99,22.3,22.28,22.31,6.64,0,12.6-2.91,16.7-7.52l-3.56-2.56Z"/>
  <path class="cls-1" d="m130.85,85.19c-4.54,3.05-10.01,4.84-15.89,4.83-7.08,0-13.56-2.61-18.56-6.91l-3.09,3.09c5.79,5.08,13.36,8.17,21.65,8.18,6.9,0,13.3-2.13,18.6-5.76l-2.71-3.43Z"/>
  <path class="cls-1" d="m141.37,41.73l-12.75,7.89s4.29,4.99,4.29,11.88c0,3.14-.82,6.1-2.25,8.67l3.55,2.57c1.94-3.3,3.05-7.14,3.05-11.23,0-3.68-.9-7.27-2.61-10.49l5.32-3.29c2.32,4.21,3.53,8.94,3.53,13.79,0,8.29-3.57,15.77-9.24,20.98l2.71,3.43c6.68-6.02,10.9-14.73,10.9-24.41,0-11.71-6.51-19.78-6.51-19.78"/>
  <path class="cls-1" d="m91.53,110.71c-5.09,0-9.23,4.12-9.24,9.2,0,5.07,4.13,9.2,9.22,9.21,5.09,0,9.24-4.12,9.24-9.19,0-5.07-4.13-9.21-9.23-9.21m-.01,14.63c-3,0-5.44-2.44-5.44-5.43,0-2.99,2.44-5.42,5.45-5.42,3,0,5.44,2.44,5.44,5.43,0,2.99-2.45,5.42-5.45,5.42"/>
  <path class="cls-1" d="m60.63,128.54h-3.86s.01-15.73.01-15.73h3.86s-.01,15.73-.01,15.73Zm-1.92-17.73c-1.31,0-2.34-1.03-2.34-2.33,0-1.31,1.03-2.33,2.34-2.33s2.34,1.03,2.34,2.34c0,1.31-1.03,2.33-2.34,2.33"/>
  <path class="cls-1" d="m113.08,110.67c-5.09,0-9.24,4.12-9.24,9.2v8.84h4.07s0-9.12,0-9.12c0-2.83,2.32-5.14,5.16-5.14,2.81,0,5.1,2.25,5.15,5.04v9.23s4.07,0,4.07,0v-8.84c0-5.08-4.13-9.21-9.22-9.21"/>
  <path class="cls-1" d="m134.71,125.64h0s-.6.05-.84.05c-1.66,0-2.45-.42-2.45-2.77v-9s3.45,0,3.45,0v-3s-3.43,0-3.43,0v-3.53s-4.07,0-4.07,0v3.53h-2.34s0,2.98,0,2.98h2.34s0,8.46,0,8.46c0,1.23.09,3.02.87,4.43.85,1.56,2.36,2.35,4.49,2.35,1.03,0,1.99-.19,1.99-.19v-3.31Z"/>
  <path class="cls-1" d="m73.48,129.15c-5.11,0-9.28-4.16-9.27-9.25,0-5.1,4.17-9.24,9.28-9.24,4.33,0,6.74,2.9,6.74,2.9l-2.47,3.05s-1.52-2.08-4.27-2.08c-2.98,0-5.4,2.41-5.4,5.38,0,2.97,2.42,5.38,5.4,5.38s4.31-2.12,4.31-2.12l2.48,3.04s-2.47,2.94-6.8,2.94"/>
  <path class="cls-1" d="m166.79,129.15c-5.11,0-9.28-4.16-9.27-9.25,0-5.1,4.17-9.24,9.28-9.24,4.33,0,6.74,2.9,6.74,2.9l-2.47,3.05s-1.52-2.08-4.27-2.08c-2.98,0-5.4,2.41-5.4,5.38,0,2.97,2.42,5.38,5.4,5.38s4.31-2.12,4.31-2.12l2.48,3.04s-2.47,2.94-6.8,2.94"/>
  <path class="cls-1" d="m146.04,110.57c-5.41,0-8.67,4.48-8.67,9.35,0,5.43,3.78,9.23,9.21,9.23s7.55-4.08,7.55-4.08l-2.78-2.08s-1.42,2.51-4.7,2.51c-2.89,0-5.1-1.81-5.28-4.52h13.15s.06-.84.06-1.14c0-3.97-1.98-9.26-8.55-9.26m-4.51,7.41c.32-2.34,2.23-3.89,4.54-3.89,2.42,0,4.19,1.52,4.41,3.89h-8.95Z"/>
  <g>
    <path class="cls-1" d="m114.9,73.26c-6.49,0-11.77-5.29-11.77-11.78,0-6.49,5.29-11.77,11.78-11.76,6.49,0,11.77,5.29,11.77,11.78,0,6.49-5.29,11.77-11.78,11.76m.01-19.19c-4.09,0-7.42,3.32-7.42,7.41,0,4.09,3.32,7.42,7.41,7.42,4.09,0,7.42-3.32,7.42-7.41,0-4.09-3.32-7.42-7.41-7.42"/>
    <path class="cls-1" d="m93.32,80.03c-4.28-5-6.88-11.48-6.88-18.56,0-5.65,1.66-10.9,4.51-15.33l-3.49-2.63c-3.39,5.17-5.37,11.33-5.38,17.96,0,8.29,3.07,15.86,8.14,21.66l3.09-3.09Z"/>
    <path class="cls-1" d="m90.23,39.85l3.09,3.09c.95-1.1,1.98-2.14,3.08-3.08l-3.09-3.09c-1.09.96-2.12,1.99-3.08,3.08"/>
    <path class="cls-1" d="m115,28.59c-6.66,0-12.86,1.99-18.05,5.41l2.63,3.49c4.45-2.87,9.74-4.54,15.42-4.53,7.44,0,14.37,2.81,19.62,7.83l3.81-2.36c-6.15-6.29-14.47-9.83-23.43-9.84"/>
    <path class="cls-1" d="m128.1,73.69c-3.28,3.52-7.95,5.73-13.14,5.73-9.89,0-17.93-8.06-17.92-17.95,0-9.89,8.06-17.93,17.95-17.92,3.66,0,7.17,1.12,10.11,3.13l3.98-2.46c-3.93-3.21-8.88-5.03-14.08-5.03-12.29,0-22.3,9.99-22.31,22.28,0,12.29,9.99,22.3,22.28,22.31,6.64,0,12.6-2.91,16.7-7.52l-3.56-2.56Z"/>
    <path class="cls-1" d="m130.85,85.19c-4.54,3.05-10.01,4.84-15.89,4.83-7.08,0-13.56-2.61-18.56-6.91l-3.09,3.09c5.79,5.08,13.36,8.17,21.65,8.18,6.9,0,13.3-2.13,18.6-5.76l-2.71-3.43Z"/>
    <path class="cls-1" d="m141.37,41.73l-12.75,7.89s4.29,4.99,4.29,11.88c0,3.14-.82,6.1-2.25,8.67l3.55,2.57c1.94-3.3,3.05-7.14,3.05-11.23,0-3.68-.9-7.27-2.61-10.49l5.32-3.29c2.32,4.21,3.53,8.94,3.53,13.79,0,8.29-3.57,15.77-9.24,20.98l2.71,3.43c6.68-6.02,10.9-14.73,10.9-24.41,0-11.71-6.51-19.78-6.51-19.78"/>
    <path class="cls-1" d="m91.53,110.71c-5.09,0-9.23,4.12-9.24,9.2,0,5.07,4.13,9.2,9.22,9.21,5.09,0,9.24-4.12,9.24-9.19,0-5.07-4.13-9.21-9.23-9.21m-.01,14.63c-3,0-5.44-2.44-5.44-5.43,0-2.99,2.44-5.42,5.45-5.42,3,0,5.44,2.44,5.44,5.43,0,2.99-2.45,5.42-5.45,5.42"/>
    <path class="cls-1" d="m60.63,128.54h-3.86s.01-15.73.01-15.73h3.86s-.01,15.73-.01,15.73Zm-1.92-17.73c-1.31,0-2.34-1.03-2.34-2.33,0-1.31,1.03-2.33,2.34-2.33s2.34,1.03,2.34,2.34c0,1.31-1.03,2.33-2.34,2.33"/>
    <path class="cls-1" d="m113.08,110.67c-5.09,0-9.24,4.12-9.24,9.2v8.84h4.07s0-9.12,0-9.12c0-2.83,2.32-5.14,5.16-5.14,2.81,0,5.1,2.25,5.15,5.04v9.23s4.07,0,4.07,0v-8.84c0-5.08-4.13-9.21-9.22-9.21"/>
    <path class="cls-1" d="m134.71,125.64h0s-.6.05-.84.05c-1.66,0-2.45-.42-2.45-2.77v-9s3.45,0,3.45,0v-3s-3.43,0-3.43,0v-3.53s-4.07,0-4.07,0v3.53h-2.34s0,2.98,0,2.98h2.34s0,8.46,0,8.46c0,1.23.09,3.02.87,4.43.85,1.56,2.36,2.35,4.49,2.35,1.03,0,1.99-.19,1.99-.19v-3.31Z"/>
    <path class="cls-1" d="m73.48,129.15c-5.11,0-9.28-4.16-9.27-9.25,0-5.1,4.17-9.24,9.28-9.24,4.33,0,6.74,2.9,6.74,2.9l-2.47,3.05s-1.52-2.08-4.27-2.08c-2.98,0-5.4,2.41-5.4,5.38,0,2.97,2.42,5.38,5.4,5.38s4.31-2.12,4.31-2.12l2.48,3.04s-2.47,2.94-6.8,2.94"/>
    <path class="cls-1" d="m166.79,129.15c-5.11,0-9.28-4.16-9.27-9.25,0-5.1,4.17-9.24,9.28-9.24,4.33,0,6.74,2.9,6.74,2.9l-2.47,3.05s-1.52-2.08-4.27-2.08c-2.98,0-5.4,2.41-5.4,5.38,0,2.97,2.42,5.38,5.4,5.38s4.31-2.12,4.31-2.12l2.48,3.04s-2.47,2.94-6.8,2.94"/>
    <path class="cls-1" d="m146.04,110.57c-5.41,0-8.67,4.48-8.67,9.35,0,5.43,3.78,9.23,9.21,9.23s7.55-4.08,7.55-4.08l-2.78-2.08s-1.42,2.51-4.7,2.51c-2.89,0-5.1-1.81-5.28-4.52h13.15s.06-.84.06-1.14c0-3.97-1.98-9.26-8.55-9.26m-4.51,7.41c.32-2.34,2.23-3.89,4.54-3.89,2.42,0,4.19,1.52,4.41,3.89h-8.95Z"/>
  </g>
  <path class="cls-1" d="m74.18,182.97c-.37-.35-.85-.53-1.44-.53s-1.08.18-1.47.54c-.4.36-.65.88-.77,1.57h4.46c-.15-.7-.41-1.23-.78-1.58Z"/>
  <path class="cls-1" d="m64.21,203.71c-.78,0-1.39.3-1.85.89-.45.59-.68,1.36-.68,2.3s.22,1.7.67,2.28c.45.58,1.07.87,1.86.87.38,0,.75-.07,1.11-.22.36-.15.74-.37,1.13-.66v-4.55c-.38-.32-.75-.55-1.1-.69-.35-.14-.73-.21-1.14-.21Z"/>
  <path class="cls-1" d="m127.6,186.71c-.29.29-.43.65-.43,1.06,0,.32.13.6.38.84.26.23.58.35.98.35.85,0,1.63-.35,2.35-1.06v-1.63h-2.16c-.47,0-.85.15-1.13.44Z"/>
  <path class="cls-1" d="m76.61,203.71c-.59,0-1.08.18-1.47.54-.4.36-.65.88-.77,1.57h4.46c-.15-.7-.41-1.23-.78-1.58-.37-.35-.85-.53-1.44-.53Z"/>
  <path class="cls-1" d="m104.48,203.71c-.59,0-1.08.18-1.47.54-.4.36-.65.88-.77,1.57h4.46c-.15-.7-.41-1.23-.78-1.58-.37-.35-.85-.53-1.44-.53Z"/>
  <path class="cls-1" d="m156.25,203.71c-.79,0-1.45.3-1.97.9-.52.6-.78,1.36-.78,2.29s.26,1.68.77,2.27c.51.59,1.17.88,1.98.88s1.45-.3,1.97-.9c.52-.6.78-1.36.78-2.29s-.26-1.68-.77-2.27c-.51-.59-1.17-.88-1.98-.88Z"/>
  <path class="cls-1" d="m156.78,182.44c-.79,0-1.45.3-1.97.9-.52.6-.78,1.36-.78,2.29s.26,1.68.77,2.27c.51.59,1.17.88,1.98.88s1.45-.3,1.97-.9c.52-.6.78-1.36.78-2.29s-.26-1.68-.77-2.27c-.51-.59-1.17-.88-1.98-.88Z"/>
  <path class="cls-1" d="m114.98,162.77c-26.68,0-51.58-7.63-72.64-20.83v63.89c0,11.45,9.3,20.75,20.75,20.75h103.58c11.44,0,20.75-9.3,20.75-20.75v-63.78c-21.03,13.14-45.86,20.72-72.45,20.72Zm41.11,11.62h2.95l-2.09,3.61-1.98-.55,1.12-3.06Zm-41.42,8.27c.46-.85,1.12-1.51,1.98-1.97.86-.46,1.86-.69,3-.69.5,0,1.11.1,1.85.31.73.21,1.35.48,1.85.81l-.81,2.05c-.56-.25-1.06-.43-1.5-.55-.44-.12-.89-.18-1.36-.18-.79,0-1.45.3-1.97.9-.52.6-.78,1.36-.78,2.29s.26,1.68.77,2.27c.51.59,1.17.88,1.98.88.47,0,.92-.06,1.36-.18.44-.12.94-.3,1.5-.55l.81,2.07c-.45.35-1.05.62-1.78.81-.73.19-1.37.29-1.91.29-1.14,0-2.14-.23-3-.68-.86-.45-1.52-1.1-1.98-1.95-.46-.84-.69-1.83-.69-2.96s.23-2.12.69-2.97Zm-5.03-6.64c.31-.31.68-.46,1.12-.46s.84.15,1.15.46c.32.31.47.69.47,1.14s-.16.84-.47,1.14c-.32.31-.7.46-1.15.46s-.81-.15-1.12-.46c-.31-.31-.46-.69-.46-1.14s.15-.84.46-1.14Zm2.57,4.27v10.67h-2.86v-10.67h2.86Zm-12.01.02h1.65v-.81c0-1.25.37-2.22,1.1-2.93.73-.7,1.75-1.06,3.06-1.06.34,0,.72.07,1.14.2.43.13.76.29.99.48l-.81,2.07c-.48-.19-.88-.29-1.19-.29-.48,0-.84.17-1.08.52-.23.34-.35.81-.35,1.4v.42h2.02l.9,2.2h-2.93v8.45h-2.86v-8.45h-1.65v-2.2Zm-32.12,2.35c.43-.85,1.05-1.51,1.86-1.97.81-.46,1.76-.69,2.86-.69s1.97.25,2.71.75c.73.5,1.28,1.17,1.63,2.01.35.84.53,1.79.53,2.83v.88h-7.19c.15.75.47,1.32.96,1.72.49.4,1.24.59,2.25.59.59,0,1.11-.08,1.58-.24.47-.16.97-.4,1.52-.7l.84,2.07c-.54.43-1.13.75-1.76.98-.63.23-1.38.34-2.24.34-2.02,0-3.56-.49-4.61-1.48-1.05-.99-1.57-2.36-1.57-4.1,0-1.13.22-2.12.65-2.97Zm-12.02,4.83c-.54-1.17-.81-2.48-.81-3.95s.3-2.88.89-4.07,1.44-2.11,2.53-2.78c1.09-.67,2.36-1,3.79-1,.53,0,1.17.08,1.94.24.76.16,1.44.4,2.02.73l-.88,2.05-.55-.15c-.57-.18-1.03-.3-1.36-.36-.34-.07-.76-.1-1.25-.1-.79,0-1.5.22-2.13.66-.63.44-1.13,1.07-1.48,1.89-.36.82-.54,1.78-.54,2.88,0,.98.16,1.88.47,2.69.32.81.77,1.46,1.37,1.94.6.48,1.31.71,2.13.71,1.08,0,2.18-.23,3.28-.68l1.08,2.11c-.56.29-1.24.53-2.03.7-.8.18-1.52.26-2.17.26-1.51,0-2.8-.34-3.87-1.01-1.07-.67-1.88-1.59-2.42-2.76Zm13.26,24.73h-1.5l-.66-.97c-.94.82-1.96,1.23-3.08,1.23-1.66,0-2.97-.5-3.93-1.51-.96-1-1.44-2.36-1.44-4.08,0-1.11.22-2.1.65-2.95.43-.85,1.06-1.51,1.88-1.98.82-.47,1.8-.7,2.93-.7.35,0,.73.06,1.12.19.4.12.78.3,1.14.52v-5.04l2.88-.24v15.53Zm12.21-4.49h-7.19c.15.75.47,1.32.96,1.72.49.4,1.24.59,2.25.59.59,0,1.11-.08,1.58-.24.47-.16.97-.4,1.52-.7l.84,2.07c-.54.43-1.13.75-1.76.98-.63.23-1.38.34-2.24.34-2.02,0-3.56-.49-4.61-1.48-1.05-.99-1.57-2.36-1.57-4.1,0-1.13.22-2.12.65-2.97.43-.85,1.05-1.51,1.86-1.97.81-.46,1.76-.69,2.86-.69s1.97.25,2.71.75c.73.5,1.28,1.17,1.63,2.01.35.84.53,1.79.53,2.83v.88Zm2.74-24.63c-.71.35-1.37.8-1.99,1.34v6.51h-2.86v-10.67h1.5l.95,1.78c.51-.45,1.11-.86,1.8-1.23.69-.37,1.3-.55,1.83-.55l.57,2.29c-.48,0-1.08.18-1.79.53Zm2.23-2.79h1.43v-2.53l2.84-.51v3.04h1.94l.88,2.2h-2.82v4.53c0,.57.14,1.03.41,1.39.27.35.66.53,1.15.53.38,0,.77-.1,1.17-.29l.84,2.07c-.22.18-.55.33-.98.46-.43.13-.82.2-1.18.2-1.33,0-2.38-.34-3.12-1.01-.75-.67-1.12-1.62-1.12-2.84v-5.04h-1.43v-2.2Zm10.92,30.22c-.43.62-1.07,1.1-1.91,1.45-.84.35-1.85.53-3.02.53-.62,0-1.38-.14-2.3-.41-.92-.27-1.62-.56-2.12-.87l.64-2.31c.54.28,1.16.52,1.85.74.69.21,1.32.32,1.89.32.88,0,1.55-.14,2-.42.45-.28.68-.68.68-1.21,0-.37-.18-.7-.54-1-.36-.3-.91-.66-1.66-1.07l-.66-.4c-.98-.59-1.76-1.09-2.34-1.52-.58-.43-1.08-.93-1.5-1.51-.42-.58-.63-1.23-.63-1.95,0-.76.21-1.45.62-2.06.41-.61,1-1.08,1.77-1.43.77-.34,1.69-.52,2.76-.52,1.26,0,2.67.37,4.22,1.12l-.95,2.29c-.6-.29-1.15-.52-1.64-.68-.49-.16-1.02-.24-1.59-.24-.66,0-1.2.13-1.62.38-.42.26-.63.63-.63,1.13,0,.43.17.78.49,1.07.33.29.87.65,1.62,1.09l.7.4.64.37c.87.5,1.55.93,2.07,1.31.51.37.94.83,1.29,1.36.34.54.52,1.16.52,1.88,0,.81-.22,1.52-.65,2.13Zm1.31-19.58h-2.86v-10.67h2.86v10.67Zm-.3-12.65c-.32.31-.7.46-1.15.46s-.81-.15-1.12-.46c-.31-.31-.46-.69-.46-1.14s.15-.84.46-1.14c.31-.31.68-.46,1.12-.46s.84.15,1.15.46c.32.31.47.69.47,1.14s-.16.84-.47,1.14Zm10.96,29.43h-7.19c.15.75.47,1.32.96,1.72.49.4,1.24.59,2.25.59.59,0,1.11-.08,1.58-.24.47-.16.97-.4,1.52-.7l.84,2.07c-.54.43-1.13.75-1.76.98-.63.23-1.38.34-2.24.34-2.02,0-3.56-.49-4.61-1.48-1.05-.99-1.57-2.36-1.57-4.1,0-1.13.22-2.12.65-2.97.43-.85,1.05-1.51,1.86-1.97.81-.46,1.76-.69,2.86-.69s1.97.25,2.71.75c.73.5,1.28,1.17,1.63,2.01.35.84.53,1.79.53,2.83v.88Zm6.61-3.36c-.71.35-1.37.8-1.99,1.34v6.51h-2.86v-10.67h1.5l.95,1.78c.51-.45,1.11-.86,1.8-1.23.69-.37,1.3-.55,1.83-.55l.57,2.29c-.48,0-1.08.18-1.79.53Zm8.63,7.85h-2.46l-3.94-10.23,2.79-.84,2.46,6.86,2.33-6.47h3.01l-4.2,10.67Zm8.49,0h-2.86v-10.67h2.86v10.67Zm-.3-12.65c-.32.31-.7.46-1.15.46s-.81-.15-1.12-.46c-.31-.31-.46-.69-.46-1.14s.15-.84.46-1.14c.31-.31.68-.46,1.12-.46s.84.15,1.15.46c.32.31.47.69.47,1.14s-.16.84-.47,1.14Zm.91-8.62h-1.87l-.48-1.14c-.89.94-1.83,1.41-2.82,1.41-1.28,0-2.24-.31-2.88-.93-.65-.62-.97-1.46-.97-2.52s.37-1.92,1.1-2.52c.73-.59,1.72-.89,2.95-.89h2.09c-.01-.54-.17-.96-.47-1.26-.3-.3-.71-.45-1.24-.45-.48,0-1.02.07-1.61.21-.59.14-1.09.3-1.5.49l-.77-2.38c.38-.25.99-.47,1.83-.67.84-.2,1.5-.3,2-.3.85,0,1.63.17,2.33.51s1.26.81,1.68,1.41c.42.6.63,1.28.63,2.02v7.02Zm4.86,18.21c.51.59,1.17.88,1.98.88.47,0,.92-.06,1.36-.18.44-.12.94-.3,1.5-.55l.81,2.07c-.45.35-1.05.62-1.78.81-.73.19-1.37.29-1.91.29-1.14,0-2.14-.23-3-.68s-1.52-1.1-1.98-1.95c-.46-.84-.69-1.83-.69-2.96s.23-2.12.69-2.97c.46-.85,1.12-1.51,1.98-1.97s1.86-.69,3-.69c.5,0,1.11.1,1.85.31.73.21,1.35.48,1.85.81l-.81,2.05c-.56-.25-1.06-.43-1.5-.55-.44-.12-.89-.18-1.36-.18-.79,0-1.45.3-1.97.9-.52.6-.78,1.36-.78,2.29s.26,1.68.77,2.27Zm.53-21.27c.51.59,1.17.88,1.98.88.47,0,.92-.06,1.36-.18.44-.12.94-.3,1.5-.55l.81,2.07c-.45.35-1.05.62-1.78.81-.73.19-1.37.29-1.91.29-1.14,0-2.14-.23-3-.68s-1.52-1.1-1.98-1.95c-.46-.84-.69-1.83-.69-2.96s.23-2.12.69-2.97c.46-.85,1.12-1.51,1.98-1.97s1.86-.69,3-.69c.5,0,1.11.1,1.85.31.73.21,1.35.48,1.85.81l-.81,2.05c-.56-.25-1.06-.43-1.5-.55-.44-.12-.89-.18-1.36-.18-.79,0-1.45.3-1.97.9-.52.6-.78,1.36-.78,2.29s.26,1.68.77,2.27Zm9.65,24.33h-2.86v-10.67h2.86v10.67Zm-.3-12.65c-.32.31-.7.46-1.15.46s-.81-.15-1.12-.46c-.31-.31-.46-.69-.46-1.14s.15-.84.46-1.14c.31-.31.68-.46,1.12-.46s.84.15,1.15.46c.32.31.47.69.47,1.14s-.16.84-.47,1.14Zm.82-8.62h-2.86v-10.67h2.86v10.67Zm-.3-12.65c-.32.31-.7.46-1.15.46s-.81-.15-1.12-.46c-.31-.31-.46-.69-.46-1.14s.15-.84.46-1.14c.31-.31.68-.46,1.12-.46s.84.15,1.15.46c.32.31.47.69.47,1.14s-.16.84-.47,1.14Zm12.22,31.52c-.47.85-1.13,1.51-1.99,1.97-.86.46-1.86.69-3,.69s-2.14-.23-3-.68-1.52-1.1-1.99-1.95c-.47-.84-.7-1.83-.7-2.96s.23-2.12.7-2.97c.47-.85,1.13-1.51,1.99-1.97s1.86-.69,3-.69,2.14.23,3,.68c.86.45,1.52,1.1,1.99,1.95.47.84.7,1.83.7,2.96s-.23,2.12-.7,2.97Zm.53-21.27c-.47.85-1.13,1.51-1.99,1.97-.86.46-1.86.69-3,.69s-2.14-.23-3-.68-1.52-1.1-1.99-1.95c-.47-.84-.7-1.83-.7-2.96s.23-2.12.7-2.97c.47-.85,1.13-1.51,1.99-1.97s1.86-.69,3-.69,2.14.23,3,.68c.86.45,1.52,1.1,1.99,1.95.47.84.7,1.83.7,2.96s-.23,2.12-.7,2.97Zm8.31,23.06c-.76.58-1.86.87-3.3.87-.54,0-1.18-.1-1.91-.29s-1.33-.46-1.78-.81l.86-1.94c1.08.48,2.02.73,2.79.73.44,0,.84-.08,1.21-.24.37-.16.55-.39.55-.68,0-.57-.62-1.05-1.87-1.43-1.01-.34-1.85-.77-2.53-1.3-.67-.53-1.01-1.19-1.01-2,0-1.01.37-1.81,1.12-2.39.75-.58,1.76-.87,3.04-.87.5,0,1.11.1,1.83.31.72.21,1.33.48,1.83.81l-.86,1.91c-.56-.25-1.05-.43-1.48-.55-.43-.12-.88-.18-1.35-.18-.37,0-.67.09-.91.27-.24.18-.36.4-.36.65,0,.19.14.36.43.52.29.15.7.33,1.24.52,1.04.38,1.91.87,2.6,1.45.69.59,1.03,1.31,1.03,2.16,0,1.07-.38,1.9-1.14,2.47Zm4.27-20.66h-2.86v-6.55c0-.66-.14-1.17-.41-1.54-.27-.37-.65-.55-1.13-.55s-.97.11-1.41.34c-.44.23-.92.53-1.45.91v7.39h-2.86v-10.67h1.87l.48,1.14c.66-.47,1.36-.84,2.11-1.1.75-.26,1.41-.4,2-.4,1.35,0,2.29.38,2.84,1.14.54.76.81,1.83.81,3.19v6.69Z"/>
  <g>
    <path class="cls-1" d="m64.95,280.94v-12.64h1.41l5.45,9.94v-9.94h1.31v12.64h-1.41l-5.44-9.95v9.95h-1.32Z"/>
    <path class="cls-1" d="m78.1,280.94v-11.15h-3.41v-1.49h8.22v1.49h-3.43v11.15h-1.37Z"/>
    <path class="cls-1" d="m91.64,276.51l1.38.42c-.3,1.42-.84,2.48-1.6,3.18-.76.7-1.69,1.05-2.78,1.05-.96,0-1.78-.23-2.46-.7-.68-.47-1.24-1.22-1.67-2.26s-.65-2.26-.65-3.67.22-2.57.65-3.53c.43-.96,1.02-1.69,1.76-2.18s1.57-.74,2.49-.74c1,0,1.86.31,2.58.93.72.62,1.22,1.54,1.51,2.74l-1.35.39c-.46-1.75-1.38-2.63-2.77-2.63-.69,0-1.29.18-1.8.53-.51.35-.91.9-1.21,1.65-.3.75-.45,1.69-.45,2.84,0,1.73.3,3.03.91,3.9.61.87,1.42,1.3,2.43,1.3.75,0,1.39-.27,1.94-.8s.91-1.34,1.09-2.42Z"/>
    <path class="cls-1" d="m98.22,277.63l1.34-.14c.1.8.34,1.4.7,1.8.36.39.79.59,1.27.59.6,0,1.12-.28,1.56-.83.44-.56.66-1.31.66-2.28,0-.9-.21-1.6-.63-2.1-.42-.5-.95-.75-1.59-.75-.39,0-.75.11-1.08.32-.34.22-.6.52-.8.9l-1.2-.19,1.01-6.5h5.15v1.48h-4.14l-.55,3.4c.62-.53,1.27-.8,1.96-.8.87,0,1.62.37,2.26,1.11.64.74.96,1.74.96,2.99s-.32,2.3-.96,3.18c-.64.88-1.5,1.32-2.58,1.32-.9,0-1.65-.31-2.27-.94-.62-.62-.97-1.49-1.06-2.59Z"/>
    <path class="cls-1" d="m106.46,278.02l1.22-.14c.2,1.33.77,2,1.72,2,.43,0,.81-.15,1.16-.44.35-.29.64-.81.88-1.55.24-.74.36-1.61.36-2.6v-.31c-.26.51-.62.92-1.07,1.22s-.91.45-1.37.45c-.85,0-1.57-.37-2.19-1.11s-.92-1.75-.92-3.03.32-2.36.95-3.13c.63-.76,1.41-1.14,2.31-1.14.64,0,1.24.21,1.8.64.56.43.99,1.05,1.29,1.88.3.83.46,2.02.46,3.58,0,1.74-.16,3.08-.49,4.04s-.77,1.66-1.33,2.1c-.56.44-1.19.66-1.88.66-.79,0-1.45-.27-1.97-.81-.53-.54-.84-1.31-.95-2.33Zm5.22-5.58c0-.9-.2-1.61-.6-2.13-.4-.52-.87-.78-1.39-.78s-1.04.28-1.46.83c-.43.55-.64,1.29-.64,2.21,0,.83.2,1.49.61,1.98.41.49.9.74,1.47.74s1.04-.25,1.43-.74c.39-.5.59-1.2.59-2.11Z"/>
    <path class="cls-1" d="m114.33,274.71c0-2.12.29-3.73.86-4.82.57-1.09,1.42-1.64,2.53-1.64.99,0,1.77.44,2.34,1.33.69,1.07,1.03,2.78,1.03,5.13,0,2.11-.28,3.71-.85,4.81-.57,1.1-1.41,1.64-2.53,1.64-.99,0-1.8-.48-2.43-1.45-.63-.97-.94-2.63-.94-5Zm1.3,0c0,2.05.2,3.43.59,4.13.39.7.9,1.05,1.52,1.05.58,0,1.07-.35,1.46-1.06.39-.71.59-2.08.59-4.12s-.2-3.44-.59-4.13c-.39-.7-.91-1.04-1.53-1.04-.58,0-1.06.35-1.45,1.06-.39.71-.58,2.08-.58,4.12Z"/>
    <path class="cls-1" d="m128.97,271.39l-1.27.12c-.12-.65-.3-1.11-.53-1.38-.34-.4-.75-.6-1.22-.6-.74,0-1.33.46-1.78,1.38-.38.79-.58,1.97-.59,3.52.29-.55.66-.97,1.1-1.25s.91-.43,1.41-.43c.82,0,1.54.37,2.15,1.12.61.74.92,1.74.92,2.99,0,.84-.15,1.61-.46,2.3s-.7,1.19-1.19,1.52c-.48.33-1.01.49-1.6.49-1.05,0-1.91-.47-2.59-1.41-.68-.94-1.02-2.51-1.02-4.72,0-2.44.35-4.18,1.04-5.22s1.58-1.56,2.67-1.56c.79,0,1.45.27,1.98.8.53.54.85,1.31.97,2.33Zm-5.19,5.46c0,.91.22,1.65.65,2.2.43.55.93.83,1.5.83.5,0,.95-.26,1.34-.78.39-.52.59-1.24.59-2.16s-.2-1.59-.59-2.09c-.39-.49-.87-.74-1.43-.74s-1.03.25-1.44.74c-.41.49-.62,1.16-.62,2Z"/>
    <path class="cls-1" d="m131.19,273.56v-1.77h1.45v1.77h-1.45Zm0,7.39v-1.77h1.45v1.77h-1.45Z"/>
    <path class="cls-1" d="m141.17,279.45v1.49h-6.85c-.02-.6.17-1.28.55-2.03.38-.75,1.08-1.63,2.1-2.65,1.19-1.18,1.97-2.1,2.34-2.75.37-.65.55-1.25.55-1.81,0-.64-.19-1.17-.56-1.57-.38-.41-.84-.61-1.39-.61-.59,0-1.08.22-1.46.66-.38.44-.57,1.07-.57,1.89l-1.31-.16c.09-1.21.44-2.13,1.03-2.74.59-.61,1.38-.92,2.35-.92,1.06,0,1.86.36,2.4,1.07s.81,1.52.81,2.43c0,.8-.21,1.58-.64,2.31-.43.74-1.23,1.72-2.42,2.95-.76.78-1.25,1.31-1.47,1.59-.22.28-.4.56-.54.85h5.09Z"/>
    <path class="cls-1" d="m142.51,274.71c0-2.12.29-3.73.86-4.82.57-1.09,1.42-1.64,2.53-1.64.99,0,1.77.44,2.34,1.33.69,1.07,1.03,2.78,1.03,5.13,0,2.11-.28,3.71-.85,4.81-.57,1.1-1.41,1.64-2.53,1.64-.99,0-1.8-.48-2.43-1.45-.63-.97-.94-2.63-.94-5Zm1.3,0c0,2.05.2,3.43.59,4.13.39.7.9,1.05,1.52,1.05.58,0,1.07-.35,1.46-1.06.39-.71.59-2.08.59-4.12s-.2-3.44-.59-4.13c-.39-.7-.91-1.04-1.53-1.04-.58,0-1.06.35-1.45,1.06-.39.71-.58,2.08-.58,4.12Z"/>
    <path class="cls-1" d="m155.36,280.94h-1.28v-9.89c-.29.34-.69.7-1.18,1.06-.49.36-.95.63-1.36.81v-1.5c.7-.4,1.32-.89,1.86-1.47.54-.58.92-1.15,1.13-1.7h.83v12.69Z"/>
    <path class="cls-1" d="m165.32,279.45v1.49h-6.85c-.02-.6.17-1.28.55-2.03.38-.75,1.08-1.63,2.1-2.65,1.19-1.18,1.97-2.1,2.34-2.75.37-.65.55-1.25.55-1.81,0-.64-.19-1.17-.56-1.57-.38-.41-.84-.61-1.39-.61-.59,0-1.08.22-1.46.66-.38.44-.57,1.07-.57,1.89l-1.31-.16c.09-1.21.44-2.13,1.03-2.74.59-.61,1.38-.92,2.35-.92,1.06,0,1.86.36,2.4,1.07s.81,1.52.81,2.43c0,.8-.21,1.58-.64,2.31-.43.74-1.23,1.72-2.42,2.95-.76.78-1.25,1.31-1.47,1.59-.22.28-.4.56-.54.85h5.09Z"/>
    <path class="cls-1" d="m50.62,297.7l1.38.42c-.3,1.42-.84,2.48-1.6,3.18-.76.7-1.69,1.05-2.78,1.05-.96,0-1.78-.23-2.46-.7-.68-.47-1.24-1.22-1.67-2.26s-.65-2.26-.65-3.67.22-2.57.65-3.53c.43-.96,1.02-1.69,1.76-2.18.74-.49,1.57-.74,2.49-.74,1,0,1.86.31,2.58.93.72.62,1.22,1.54,1.51,2.74l-1.35.39c-.46-1.75-1.38-2.63-2.77-2.63-.69,0-1.29.18-1.8.53-.51.35-.91.9-1.21,1.65-.3.75-.45,1.69-.45,2.84,0,1.73.3,3.03.91,3.9.61.87,1.42,1.3,2.43,1.3.75,0,1.39-.27,1.94-.8s.91-1.34,1.09-2.42Z"/>
    <path class="cls-1" d="m58.66,299.19l1.31.2c-.22.98-.61,1.71-1.19,2.21-.57.5-1.28.75-2.13.75-1.06,0-1.92-.4-2.58-1.21s-.99-1.97-.99-3.5.33-2.79,1-3.62c.66-.83,1.5-1.25,2.52-1.25s1.78.41,2.43,1.22.97,2,.97,3.54v.41h-5.61c.05,1.03.29,1.81.72,2.33.43.52.94.78,1.55.78.95,0,1.62-.63,1.99-1.88Zm-4.18-2.51h4.19c-.06-.79-.23-1.39-.51-1.78-.41-.57-.93-.85-1.56-.85-.57,0-1.05.24-1.46.71-.4.47-.62,1.11-.66,1.92Z"/>
    <path class="cls-1" d="m61.58,302.13v-9.16h1.15v1.29c.28-.5.61-.88,1.01-1.13.4-.25.86-.37,1.37-.37.4,0,.77.08,1.11.24.34.16.62.37.83.62.21.26.37.59.47,1,.1.41.15,1.03.15,1.88v5.63h-1.27v-5.58c0-.67-.06-1.17-.17-1.48-.11-.31-.29-.55-.54-.72-.24-.17-.53-.25-.85-.25-.61,0-1.09.23-1.46.68-.36.45-.54,1.23-.54,2.34v5.01h-1.27Z"/>
    <path class="cls-1" d="m72.47,300.75l.17,1.37c-.35.09-.67.14-.95.14-.44,0-.8-.09-1.07-.26-.27-.18-.46-.42-.56-.72s-.15-.91-.15-1.82v-5.27h-.93v-1.21h.93v-2.27l1.27-.93v3.2h1.28v1.21h-1.28v5.35c0,.49.04.81.11.96.11.21.31.31.61.31.14,0,.33-.02.56-.06Z"/>
    <path class="cls-1" d="m73.66,302.13v-9.16h1.15v1.39c.29-.64.56-1.07.81-1.28.24-.21.52-.31.82-.31.43,0,.86.17,1.3.5l-.43,1.44c-.32-.22-.62-.34-.92-.34-.27,0-.52.09-.74.28s-.38.45-.47.79c-.16.59-.24,1.22-.24,1.89v4.79h-1.27Z"/>
    <path class="cls-1" d="m78,297.56c0-1.58.33-2.77,1-3.58.66-.8,1.5-1.21,2.52-1.21s1.84.4,2.51,1.21c.67.8,1.01,1.97,1.01,3.48,0,1.64-.33,2.87-.99,3.67-.66.8-1.5,1.21-2.53,1.21s-1.84-.4-2.51-1.21-1-2-1-3.57Zm1.3,0c0,1.19.22,2.07.65,2.65.43.58.97.87,1.6.87.6,0,1.11-.29,1.54-.88.43-.58.64-1.46.64-2.64s-.22-2.06-.65-2.64c-.43-.58-.97-.87-1.6-.87-.6,0-1.12.29-1.54.87-.43.58-.64,1.46-.64,2.63Z"/>
    <path class="cls-1" d="m95.43,302.13v-1.16c-.23.44-.53.78-.89,1.01-.36.23-.75.35-1.17.35-.89,0-1.65-.42-2.3-1.25-.65-.84-.97-2.01-.97-3.53,0-1.04.14-1.92.43-2.65.29-.72.67-1.26,1.15-1.61.48-.35,1.01-.53,1.6-.53.42,0,.81.11,1.17.33.36.22.66.53.89.93v-4.54h1.28v12.64h-1.19Zm-4.03-4.57c0,1.18.21,2.06.62,2.64.41.57.89.86,1.44.86s1.01-.28,1.41-.83c.4-.55.6-1.39.6-2.5,0-1.28-.2-2.22-.6-2.81-.4-.59-.9-.88-1.5-.88-.54,0-1,.28-1.38.85s-.58,1.46-.58,2.67Z"/>
    <path class="cls-1" d="m103.75,299.19l1.31.2c-.22.98-.61,1.71-1.19,2.21s-1.28.75-2.13.75c-1.06,0-1.92-.4-2.58-1.21s-.99-1.97-.99-3.5.33-2.79,1-3.62c.66-.83,1.5-1.25,2.52-1.25s1.78.41,2.43,1.22c.65.82.97,2,.97,3.54v.41h-5.61c.05,1.03.29,1.81.72,2.33.43.52.94.78,1.55.78.95,0,1.62-.63,1.99-1.88Zm-4.18-2.51h4.19c-.06-.79-.23-1.39-.51-1.78-.41-.57-.93-.85-1.56-.85-.57,0-1.05.24-1.46.71-.4.47-.62,1.11-.66,1.92Z"/>
    <path class="cls-1" d="m118.23,297.7l1.38.42c-.3,1.42-.84,2.48-1.6,3.18-.76.7-1.69,1.05-2.78,1.05-.96,0-1.78-.23-2.46-.7-.68-.47-1.24-1.22-1.67-2.26s-.65-2.26-.65-3.67.22-2.57.65-3.53c.43-.96,1.02-1.69,1.76-2.18s1.57-.74,2.49-.74c1,0,1.86.31,2.58.93.72.62,1.22,1.54,1.51,2.74l-1.35.39c-.46-1.75-1.38-2.63-2.77-2.63-.69,0-1.29.18-1.8.53-.51.35-.91.9-1.21,1.65-.3.75-.45,1.69-.45,2.84,0,1.73.3,3.03.91,3.9.61.87,1.42,1.3,2.43,1.3.75,0,1.39-.27,1.94-.8s.91-1.34,1.09-2.42Z"/>
    <path class="cls-1" d="m120.66,297.56c0-1.58.33-2.77,1-3.58.66-.8,1.5-1.21,2.52-1.21s1.84.4,2.51,1.21c.67.8,1.01,1.97,1.01,3.48,0,1.64-.33,2.87-.99,3.67-.66.8-1.5,1.21-2.53,1.21s-1.84-.4-2.51-1.21-1-2-1-3.57Zm1.3,0c0,1.19.22,2.07.65,2.65.43.58.97.87,1.6.87.6,0,1.11-.29,1.54-.88.43-.58.64-1.46.64-2.64s-.22-2.06-.65-2.64c-.43-.58-.97-.87-1.6-.87-.6,0-1.12.29-1.54.87-.43.58-.64,1.46-.64,2.63Z"/>
    <path class="cls-1" d="m129.2,302.13v-9.16h1.15v1.29c.28-.5.61-.88,1.01-1.13.4-.25.86-.37,1.37-.37.4,0,.77.08,1.11.24.34.16.62.37.83.62.21.26.37.59.47,1,.1.41.16,1.03.16,1.88v5.63h-1.27v-5.58c0-.67-.06-1.17-.17-1.48-.11-.31-.29-.55-.54-.72-.24-.17-.53-.25-.85-.25-.61,0-1.09.23-1.46.68-.36.45-.54,1.23-.54,2.34v5.01h-1.27Z"/>
    <path class="cls-1" d="m142.17,298.78l1.25.2c-.14,1.09-.5,1.93-1.08,2.5-.58.57-1.27.86-2.08.86-.98,0-1.79-.4-2.43-1.21-.64-.81-.95-2-.95-3.58s.32-2.79.96-3.58c.64-.8,1.46-1.19,2.47-1.19.78,0,1.43.24,1.96.72.53.48.87,1.21,1.02,2.17l-1.23.22c-.12-.62-.33-1.08-.63-1.39-.3-.31-.66-.46-1.08-.46-.63,0-1.15.28-1.56.83-.41.55-.62,1.44-.62,2.64s.2,2.15.59,2.71.9.84,1.51.84c.48,0,.9-.19,1.24-.56s.56-.95.65-1.73Z"/>
    <path class="cls-1" d="m144.49,291.28v-1.78h1.27v1.78h-1.27Zm0,10.86v-9.16h1.27v9.16h-1.27Z"/>
    <path class="cls-1" d="m147.67,302.13v-12.64h1.27v12.64h-1.27Z"/>
    <path class="cls-1" d="m150.93,291.28v-1.78h1.27v1.78h-1.27Zm0,10.86v-9.16h1.27v9.16h-1.27Z"/>
    <path class="cls-1" d="m159.03,301c-.43.44-.87.78-1.33,1-.46.22-.94.34-1.43.34-.78,0-1.41-.24-1.87-.71s-.7-1.11-.7-1.91c0-.53.11-1,.33-1.41.22-.41.52-.73.9-.96.38-.23.95-.4,1.72-.51,1.03-.15,1.79-.33,2.28-.54v-.4c0-.63-.1-1.07-.33-1.32-.32-.37-.8-.55-1.46-.55-.59,0-1.03.12-1.33.37-.29.25-.51.71-.65,1.38l-1.25-.21c.18-.98.54-1.7,1.08-2.15.54-.45,1.32-.67,2.33-.67.79,0,1.41.15,1.85.44.45.3.73.66.85,1.1.12.44.18,1.07.18,1.91v2.07c0,1.45.03,2.36.08,2.74.05.38.16.74.32,1.1h-1.33c-.13-.32-.22-.69-.26-1.13Zm-.1-3.47c-.47.23-1.16.43-2.08.59-.53.09-.91.2-1.12.31-.21.12-.38.28-.5.5-.12.22-.18.46-.18.75,0,.44.14.79.41,1.05.27.26.64.39,1.12.39s.87-.12,1.24-.35c.37-.24.65-.55.83-.94.18-.39.28-.97.28-1.72v-.57Z"/>
    <path class="cls-1" d="m167.11,298.78l1.25.2c-.14,1.09-.5,1.93-1.08,2.5-.58.57-1.27.86-2.08.86-.98,0-1.79-.4-2.43-1.21-.64-.81-.95-2-.95-3.58s.32-2.79.96-3.58c.64-.8,1.46-1.19,2.47-1.19.78,0,1.43.24,1.96.72.53.48.87,1.21,1.02,2.17l-1.23.22c-.12-.62-.33-1.08-.63-1.39-.3-.31-.66-.46-1.08-.46-.63,0-1.15.28-1.56.83-.41.55-.62,1.44-.62,2.64s.2,2.15.59,2.71.9.84,1.51.84c.48,0,.9-.19,1.24-.56s.56-.95.65-1.73Z"/>
    <path class="cls-1" d="m169.44,291.28v-1.78h1.27v1.78h-1.27Zm0,10.86v-9.16h1.27v9.16h-1.27Z"/>
    <path class="cls-1" d="m172.17,297.56c0-1.58.33-2.77,1-3.58.66-.8,1.5-1.21,2.52-1.21s1.84.4,2.51,1.21c.67.8,1.01,1.97,1.01,3.48,0,1.64-.33,2.87-.99,3.67-.66.8-1.5,1.21-2.53,1.21s-1.84-.4-2.51-1.21-1-2-1-3.57Zm1.3,0c0,1.19.22,2.07.65,2.65.43.58.97.87,1.6.87.6,0,1.11-.29,1.54-.88.43-.58.64-1.46.64-2.64s-.22-2.06-.65-2.64c-.43-.58-.97-.87-1.6-.87-.6,0-1.12.29-1.54.87-.43.58-.64,1.46-.64,2.63Zm1.28-5.71l.94-2.41h1.66l-1.55,2.41h-1.05Z"/>
    <path class="cls-1" d="m180.71,302.13v-9.16h1.15v1.29c.28-.5.61-.88,1.01-1.13.4-.25.86-.37,1.37-.37.4,0,.77.08,1.11.24.34.16.62.37.83.62.21.26.37.59.47,1,.1.41.16,1.03.16,1.88v5.63h-1.27v-5.58c0-.67-.06-1.17-.17-1.48-.11-.31-.29-.55-.54-.72-.24-.17-.53-.25-.85-.25-.61,0-1.09.23-1.46.68-.36.45-.54,1.23-.54,2.34v5.01h-1.27Z"/>
    <path class="cls-1" d="m77.64,326.85l-.14-1.46c.28.09.52.14.72.14.27,0,.49-.05.67-.16.18-.11.32-.28.44-.51.04-.08.21-.59.5-1.52l-2.86-9.17h1.37l1.57,5.3c.2.66.38,1.37.54,2.12.14-.71.32-1.41.52-2.09l1.6-5.33h1.28l-2.85,9.31c-.37,1.21-.67,2.01-.89,2.42-.22.41-.46.7-.73.88-.27.18-.58.27-.93.27-.24,0-.52-.06-.82-.19Z"/>
    <path class="cls-1" d="m83.98,323.53l3-13.06h1.04l-3.01,13.06h-1.03Z"/>
    <path class="cls-1" d="m88.47,318.75c0-1.58.33-2.77,1-3.58.66-.8,1.5-1.21,2.52-1.21s1.84.4,2.51,1.21c.67.8,1.01,1.97,1.01,3.48,0,1.64-.33,2.87-.99,3.67-.66.8-1.5,1.21-2.53,1.21s-1.84-.4-2.51-1.21c-.67-.81-1-2-1-3.57Zm1.3,0c0,1.19.22,2.07.65,2.65.43.58.97.87,1.6.87.6,0,1.11-.29,1.54-.88.43-.58.64-1.46.64-2.64s-.22-2.06-.65-2.64c-.43-.58-.97-.87-1.6-.87-.6,0-1.12.29-1.54.87-.43.58-.64,1.46-.64,2.63Z"/>
    <path class="cls-1" d="m99.28,323.32l4-12.64h1.47l4.24,12.64h-1.57l-1.21-3.83h-4.36l-1.13,3.83h-1.45Zm2.97-5.19h3.53l-1.08-3.5c-.33-1.07-.58-1.95-.73-2.62-.13.81-.32,1.62-.57,2.41l-1.15,3.71Z"/>
    <path class="cls-1" d="m109.9,323.32v-9.16h1.15v1.39c.29-.64.56-1.07.81-1.28.24-.21.52-.31.82-.31.43,0,.86.17,1.3.5l-.43,1.44c-.32-.22-.62-.34-.92-.34-.27,0-.52.09-.74.28-.22.19-.38.45-.47.79-.16.59-.24,1.22-.24,1.89v4.79h-1.27Z"/>
    <path class="cls-1" d="m115.88,323.32h-1.18v-12.64h1.28v4.51c.27-.41.58-.72.92-.93.34-.2.72-.31,1.14-.31.59,0,1.12.18,1.6.53.48.35.86.88,1.15,1.6.29.71.43,1.58.43,2.6,0,1.55-.33,2.75-.98,3.59-.65.84-1.41,1.26-2.28,1.26-.44,0-.83-.11-1.18-.34-.35-.23-.65-.56-.9-1.01v1.15Zm-.02-4.65c0,.95.09,1.66.26,2.13s.42.83.73,1.08c.32.25.67.37,1.05.37.52,0,.99-.29,1.4-.88.41-.59.61-1.47.61-2.64s-.2-2.08-.59-2.65c-.39-.56-.87-.84-1.44-.84-.52,0-.99.29-1.4.88-.41.59-.62,1.44-.62,2.56Z"/>
    <path class="cls-1" d="m122.77,312.47v-1.78h1.27v1.78h-1.27Zm0,10.86v-9.16h1.27v9.16h-1.27Z"/>
    <path class="cls-1" d="m128.81,321.94l.17,1.37c-.35.09-.67.14-.95.14-.44,0-.8-.09-1.07-.26-.27-.18-.46-.42-.56-.72-.1-.3-.15-.91-.15-1.82v-5.27h-.93v-1.21h.93v-2.27l1.27-.93v3.2h1.28v1.21h-1.28v5.35c0,.49.04.81.11.96.11.21.31.31.61.31.14,0,.33-.02.56-.06Z"/>
    <path class="cls-1" d="m130.01,323.32v-9.16h1.15v1.39c.29-.64.56-1.07.81-1.28.24-.21.52-.31.82-.31.43,0,.86.17,1.3.5l-.43,1.44c-.32-.22-.62-.34-.92-.34-.27,0-.52.09-.74.28-.22.19-.38.45-.47.79-.16.59-.24,1.22-.24,1.89v4.79h-1.27Z"/>
    <path class="cls-1" d="m139.72,322.19c-.43.44-.87.78-1.33,1-.46.22-.94.34-1.43.34-.78,0-1.41-.24-1.87-.71s-.7-1.11-.7-1.91c0-.53.11-1,.33-1.41.22-.41.52-.73.9-.96.38-.23.95-.4,1.72-.51,1.03-.15,1.79-.33,2.28-.54v-.4c0-.63-.1-1.07-.33-1.32-.32-.37-.8-.55-1.46-.55-.59,0-1.03.12-1.33.37-.29.25-.51.71-.65,1.38l-1.25-.21c.18-.98.54-1.7,1.08-2.15.54-.45,1.32-.67,2.33-.67.79,0,1.41.15,1.85.44.45.3.73.66.85,1.1.12.44.18,1.07.18,1.91v2.07c0,1.45.03,2.36.08,2.74.05.38.16.74.32,1.1h-1.33c-.13-.32-.22-.69-.26-1.13Zm-.1-3.47c-.47.23-1.16.43-2.08.59-.53.09-.91.2-1.12.31-.21.12-.38.28-.5.5-.12.22-.18.46-.18.75,0,.44.14.79.41,1.05.27.26.64.39,1.12.39s.87-.12,1.24-.35c.37-.24.65-.55.83-.94.18-.39.28-.97.28-1.72v-.57Z"/>
    <path class="cls-1" d="m141.26,326.88l.24-1.32c.25.08.45.12.59.12.27,0,.47-.11.59-.32s.19-.74.19-1.57v-9.62h1.27v9.66c0,1.25-.16,2.1-.48,2.54-.32.45-.79.67-1.4.67-.34,0-.68-.05-1-.16Zm1.61-14.39v-1.8h1.27v1.8h-1.27Z"/>
    <path class="cls-1" d="m151.23,320.37l1.31.2c-.22.98-.61,1.71-1.19,2.21s-1.28.75-2.13.75c-1.06,0-1.92-.4-2.58-1.21s-.99-1.97-.99-3.5.33-2.79,1-3.62c.66-.83,1.5-1.25,2.52-1.25s1.78.41,2.43,1.22c.65.82.97,2,.97,3.54v.41h-5.61c.05,1.03.29,1.81.72,2.33.43.52.94.78,1.55.78.95,0,1.62-.63,1.99-1.88Zm-4.18-2.51h4.19c-.06-.79-.23-1.39-.51-1.78-.41-.57-.93-.85-1.56-.85-.57,0-1.05.24-1.46.71s-.62,1.11-.66,1.92Z"/>
  </g>
</svg>