<?xml version="1.0" encoding="utf-8"?>
<!-- Generator: Adobe Illustrator 16.0.0, SVG Export Plug-In . SVG Version: 6.00 Build 0)  -->
<!DOCTYPE svg PUBLIC "-//W3C//DTD SVG 1.1//EN" "http://www.w3.org/Graphics/SVG/1.1/DTD/svg11.dtd">
<svg version="1.1" id="Layer_1" xmlns="http://www.w3.org/2000/svg" xmlns:xlink="http://www.w3.org/1999/xlink" x="0px" y="0px"
	 width="152px" height="75.25px" viewBox="0 0 152 75.25" enable-background="new 0 0 152 75.25" xml:space="preserve">
<g opacity="0.4">
	
		<image overflow="visible" opacity="0.4" width="162" height="83" xlink:href="2E2C453FD6961665.png"  transform="matrix(1 0 0 1 -4.5601 -3.5601)">
	</image>
	<g>
		<g>
			<path fill="#FFFFFF" d="M37.352,60.948c-7.177-2.216-8.623-8.377-8.18-15.2H39.53c0,4.714,0.189,8.656,5.878,8.656
				c3.478,0,5.18-2.253,5.18-5.599c0-8.866-20.783-9.43-20.783-24.104c0-7.707,3.7-13.868,16.27-13.868
				c10.062,0,15.094,4.505,14.387,14.818H50.407c0-3.695-0.634-7.428-4.81-7.428c-3.329,0-5.327,1.833-5.327,5.245
				c0,9.363,20.823,8.554,20.823,24.038c0,8.55-4.217,12.068-9.355,13.441"/>
			<path fill="#FFFFFF" d="M86.244,26.814c0.074-4.579-0.707-8.591-6.183-8.591c-6.431,0-6.431,8.661-6.431,18.234
				c0,15.414,1.513,18.156,7.393,18.156c1.743,0,3.593-0.387,5.146-0.95V42.723h-5.623V35.15h15.974v24.992
				c-1.11,0.246-2.845,0.526-4.81,0.806H74.034c-9.578-2.393-10.868-9.993-10.868-25.058c0-12.422,0.625-25.058,17.528-25.058
				c10.129,0,16.418,5.668,15.826,15.981"/>
			<path fill="#FFFFFF" d="M116.045,10.833c9.026-0.033,13.942,3.523,14.649,11.439v3.379h-10.062c0-3.589-0.888-7.428-5.063-7.428
				c-3.362,0-5.36,1.833-5.36,5.245c0,8.656,17.79,8.623,20.486,20.799v7.145c-1.109,5.771-4.734,8.377-8.985,9.536h-14.428
				c-7.136-2.216-8.574-8.377-8.13-15.2h10.316c0,4.714,0.223,8.656,5.879,8.656c3.51,0,5.212-2.253,5.212-5.599
				c0-8.866-20.815-9.43-20.815-24.104C99.743,16.995,103.434,10.87,116.045,10.833"/>
			<polyline fill="#FFFFFF" points="0.999,60.915 151.001,60.915 151.001,62.921 0.999,62.921 0.999,60.915 			"/>
			<rect x="130.621" y="1.757" fill="#FFFFFF" width="1.997" height="71.333"/>
		</g>
	</g>
</g>
<g>
</g>
<g>
</g>
<g>
</g>
<g>
</g>
<g>
</g>
<g>
</g>
<g>
</g>
<g>
</g>
<g>
</g>
<g>
</g>
<g>
</g>
<g>
</g>
<g>
</g>
<g>
</g>
<g>
</g>
</svg>
