<?xml version="1.0" encoding="utf-8"?>
<!-- Generator: Adobe Illustrator 22.0.1, SVG Export Plug-In . SVG Version: 6.00 Build 0)  -->
<svg version="1.1" id="Layer_1" xmlns="http://www.w3.org/2000/svg" xmlns:xlink="http://www.w3.org/1999/xlink" x="0px" y="0px"
	 viewBox="0 0 95 108" style="enable-background:new 0 0 95 108;" xml:space="preserve">
<style type="text/css">
	.st0{fill:#FFFFFF;}
	.st1{fill-rule:evenodd;clip-rule:evenodd;fill:#FFFFFF;}
</style>
<g>
	<path class="st0" d="M59.3,90c-2.2-0.7-2.6-2.6-2.5-4.7H60c0,1.4,0.1,2.7,1.8,2.7c1.1,0,1.6-0.7,1.6-1.7c0-2.7-6.4-2.9-6.4-7.4
		c0-2.4,1.1-4.3,5-4.3c3.1,0,4.6,1.4,4.4,4.5h-3.1c0-1.1-0.2-2.3-1.5-2.3c-1,0-1.6,0.6-1.6,1.6c0,2.9,6.4,2.6,6.4,7.4
		c0,2.6-1.3,3.7-2.9,4.1"/>
	<path class="st0" d="M74.3,79.5c0-1.4-0.2-2.6-1.9-2.6c-2,0-2,2.7-2,5.6c0,4.7,0.5,5.6,2.3,5.6c0.5,0,1.1-0.1,1.6-0.3v-3.4h-1.7
		v-2.3h4.9v7.7c-0.3,0.1-0.9,0.2-1.5,0.2h-5.4c-2.9-0.7-3.3-3.1-3.3-7.7c0-3.8,0.2-7.7,5.4-7.7c3.1,0,5,1.7,4.9,4.9"/>
	<path class="st0" d="M83.5,74.6c2.8,0,4.3,1.1,4.5,3.5v1h-3.1c0-1.1-0.3-2.3-1.6-2.3c-1,0-1.6,0.6-1.6,1.6c0,2.7,5.5,2.6,6.3,6.4
		v2.2c-0.3,1.8-1.5,2.6-2.8,2.9h-4.4c-2.2-0.7-2.6-2.6-2.5-4.7h3.2c0,1.4,0.1,2.7,1.8,2.7c1.1,0,1.6-0.7,1.6-1.7
		c0-2.7-6.4-2.9-6.4-7.4C78.5,76.5,79.6,74.7,83.5,74.6"/>
	<polyline class="st0" points="48.2,90 94.2,90 94.2,90.6 48.2,90.6 48.2,90 	"/>
	<rect x="87.9" y="71.9" class="st0" width="0.6" height="21.9"/>
	<path class="st0" d="M37,50.1V38.9l7.5,7.5l17-17c0,0,0,0,0,0c0,0,0,0,0,0C57,25,51,22.4,44.4,22.4c-13.3,0-24.1,10.8-24.1,24.1
		c0,13.3,10.8,24.1,24.1,24.1c13.3,0,24.1-10.8,24.1-24.1c0-3.8-0.9-7.4-2.4-10.6L44.4,57.6"/>
	<polyline class="st0" points="0.8,49.4 9.4,48.6 9.6,50.4 1,51.2 	"/>
	<path class="st0" d="M1.4,55c-0.4-2.1,0.8-2.8,2.2-3L4,53.7C3.2,53.9,2.5,54,2.7,55c0.1,0.6,0.6,0.8,1.1,0.7
		c1.5-0.3,0.9-3.8,3.4-4.3c1.3-0.3,2.5,0.1,2.9,2.2c0.4,1.7-0.2,2.7-2,2.9l-0.4-1.7c0.6-0.1,1.3-0.4,1.1-1.1
		c-0.1-0.6-0.5-0.8-1.1-0.7c-1.6,0.3-0.7,3.8-3.4,4.3C2.3,57.8,1.7,56.3,1.4,55"/>
	<path class="st0" d="M3.5,62.1c1,2.7,3.1,1.9,5.2,1.1c2.1-0.8,4.2-1.6,3.1-4.3c-1-2.7-3.1-1.9-5.2-1.1C4.5,58.6,2.4,59.4,3.5,62.1
		 M4.7,61.6c-0.4-0.9,0.5-1.4,2.6-2.2c2.1-0.8,3-1,3.4-0.1c0.4,0.9-0.5,1.4-2.6,2.2C6,62.3,5,62.6,4.7,61.6z"/>
	<path class="st0" d="M8,66.9c-1.4,0.8-1.3,1.8-0.6,3c1.3,2,3.1,0.9,4.9-0.2c2-1.3,3.6-2.3,2.3-4.3c-1-1.6-2.4-1.3-3.7-0.4
		c-0.9,0.6-1.7,1.6-1,2.7c0.3,0.4,0.7,0.7,1.2,0.9c-1.7,1.1-2.2,1.5-2.6,0.8c-0.1-0.2-0.1-0.4,0-0.6c0.1-0.2,0.2-0.3,0.4-0.4
		 M12,66.1c0.4-0.3,1.3-0.8,1.6-0.2c0.4,0.6-0.4,1.1-0.8,1.4c-0.4,0.3-1.3,0.8-1.6,0.2C10.8,66.9,11.6,66.4,12,66.1z"/>
	<path class="st0" d="M17.4,69.1c-1.3-1.5-2.3-1.1-4.8,0.9c-2,1.7-3.2,2.9-1.8,4.6c1.4,1.7,2.8,0.7,4.8-0.9
		C18.1,71.6,18.7,70.6,17.4,69.1 M16.5,69.9c0.5,0.5,0.1,0.9-1.9,2.5c-1.9,1.6-2.4,1.9-2.8,1.4c-0.4-0.5,0-0.9,1.9-2.5
		C15.6,69.6,16,69.3,16.5,69.9z"/>
	<path class="st0" d="M20.6,72.5c-1.5-1.4-2.5-0.8-4.6,1.5c-1.8,1.9-2.8,3.3-1.2,4.8c1.6,1.5,2.9,0.4,4.6-1.6
		C21.7,74.9,22.1,73.8,20.6,72.5 M19.8,73.4c0.5,0.5,0.2,0.9-1.5,2.7c-1.7,1.9-2.1,2.2-2.6,1.8c-0.5-0.4-0.2-0.9,1.5-2.7
		C19,73.2,19.3,72.9,19.8,73.4z"/>
	<path class="st0" d="M21.8,75.4c0.7,0.1,1.4,0.1,2-0.2l1.3,0.9L20.4,83l-1.5-1l3.7-5.3c-0.6,0.1-1.1,0-1.7,0"/>
	<g>
		<path class="st1" d="M44.9,5.1h-0.5v1.5h0.5c0.4,0,0.6-0.4,0.6-0.8C45.4,5.3,45.2,5.1,44.9,5.1z"/>
		<polygon class="st1" points="66.5,11.6 64.9,13.2 65.8,13.8 66.5,11.6 		"/>
		<path class="st1" d="M75.6,18.8c-0.4-0.5-0.9-0.1-1.9,0.8c-1,0.9-1.4,1.3-1,1.8c0.4,0.5,0.9,0.1,1.9-0.8
			C75.6,19.7,76,19.3,75.6,18.8z"/>
		<path class="st1" d="M44.7,2.5C20.4,2.5,0.8,21.3,0.8,45.6c0,0,8.7,0,8.7,0c0-19.4,15.7-34.3,35.1-34.3
			c19.4,0,35.1,15.7,35.1,35.1v22h8.8v-22C88.6,22.2,68.9,2.5,44.7,2.5z M13.8,26.1c-0.8,1.1-1.6,0.9-2.3,0.3l0.6-0.9
			c0.4,0.3,0.8,0.5,1.1,0c0.2-0.3,0.1-0.6-0.2-0.8c-0.8-0.5-2.1,1.3-3.4,0.4c-0.7-0.5-1-1.1-0.3-2.3c0.6-0.9,1.3-1.1,2.2-0.4
			L11,23.3c-0.3-0.2-0.7-0.4-0.9,0c-0.2,0.3-0.2,0.6,0.1,0.8c0.8,0.6,2-1.3,3.3-0.4C14.7,24.5,14.2,25.4,13.8,26.1z M16,23l-1.4-1.2
			l-3.5-1.2l0.8-0.9l2.2,0.8l-1.1-2.1l0.7-0.9l1.7,3.3l1.4,1.2L16,23z M19.2,19.6c-1,0.9-1.7,0.5-2.3-0.2l0.8-0.7
			c0.3,0.4,0.6,0.7,1.1,0.2c0.3-0.2,0.2-0.6,0-0.8c-0.6-0.7-2.3,0.8-3.4-0.4c-0.6-0.6-0.7-1.3,0.3-2.3c0.8-0.7,1.5-0.7,2.2,0.1
			l-0.8,0.7c-0.3-0.3-0.6-0.5-0.9-0.2c-0.3,0.2-0.3,0.5,0,0.8c0.7,0.7,2.2-0.8,3.4,0.4C20.5,18.2,19.8,19,19.2,19.6z M21.9,17.2
			l-2.6-3.5l-1,0.7l-0.5-0.7l2.8-2.1l0.5,0.7l-1,0.7l2.6,3.5L21.9,17.2z M24.4,15.4l-2.7-4.5l2.5-1.5l0.4,0.7l-1.5,0.9l0.7,1.1
			l1.4-0.8l0.4,0.7l-1.4,0.8l0.8,1.3l1.6-0.9l0.4,0.7L24.4,15.4z M31.4,11.9l-1.6-3.7l0,0l0.7,4.1l-1,0.4L27,9.3h0l1.6,3.7l-1,0.4
			l-2.1-4.8L27.2,8l2.2,2.9h0l-0.6-3.6l1.6-0.7l2.1,4.8L31.4,11.9z M37,10.4c-1.8,0.4-2-0.9-2.3-2.3c-0.3-1.4-0.6-2.6,1.2-3
			c1.1-0.2,1.7,0.3,1.8,1.4l-1,0.2C36.5,6,36.3,5.8,36,5.8c-0.6,0.1-0.6,0.7-0.3,2c0.3,1.3,0.5,1.9,1.1,1.7c0.5-0.1,0.3-0.7,0.3-1.2
			l1.1-0.2C38.4,9.6,38,10.1,37,10.4z M39.4,9.8l-0.5-5.2l2.8-0.3l0.1,0.8L40,5.3l0.1,1.3l1.6-0.2l0.1,0.8l-1.6,0.2l0.2,1.5l1.8-0.2
			l0.1,0.8L39.4,9.8z M45.5,9.5c-0.1-0.3-0.1-0.7-0.1-1c0-0.6,0.1-1.2-0.8-1.2h-0.3l0,2.2l-1.1,0l0-5.2l2,0c0.7,0,1.2,0.5,1.2,1.4
			c0,0.7-0.3,1.2-1,1.3v0c0.2,0,1,0.1,0.9,1c0,0.3,0,1.3,0.1,1.5L45.5,9.5z M51.1,5.6l-1.2-0.1l-0.5,4.3l-1.1-0.1l0.5-4.3l-1.2-0.1
			l0.1-0.9l3.5,0.4L51.1,5.6z M52.4,10.3l-1.1-0.2l1-5.1l1.1,0.2L52.4,10.3z M55.2,8.7l-0.6,2.2l-1.1-0.3l1.4-5l2.6,0.7L57.4,7
			l-1.6-0.4l-0.4,1.3L57,8.3l-0.2,0.8L55.2,8.7z M56.9,11.6l1.8-4.9l1,0.4L57.9,12L56.9,11.6z M60.6,13.2c-1.6-0.8-1.1-2-0.5-3.2
			c0.6-1.3,1.2-2.4,2.8-1.7c1,0.5,1.2,1.2,0.6,2.2l-1-0.5c0.3-0.6,0.3-0.9,0-1.1c-0.6-0.3-0.9,0.2-1.5,1.4c-0.6,1.2-0.8,1.8-0.2,2
			c0.5,0.2,0.7-0.4,0.9-0.8l1,0.5C62.2,13.5,61.5,13.6,60.6,13.2z M65.2,15.7l0.4-1.1l-1.3-0.8l-0.9,0.8L62.5,14l4-3.7l1.2,0.8
			l-1.6,5.2L65.2,15.7z M67,17l2.7-3.4l-1-0.7l0.5-0.7l2.8,2.2L71.5,15l-1-0.8l-2.7,3.4L67,17z M69.4,19l3.6-3.8l0.8,0.8l-3.6,3.8
			L69.4,19z M72.1,21.9c-1.2-1.3-0.2-2.2,0.8-3.2c1-0.9,2-1.8,3.2-0.5c1.2,1.3,0.2,2.2-0.8,3.2C74.3,22.3,73.3,23.2,72.1,21.9z
			 M76.3,27.2L75.4,26l2.4-3.3l0,0l-3.2,2.2L74,24l4.3-3l0.8,1.2L77,25.5v0l3-2l0.6,0.8L76.3,27.2z"/>
	</g>
</g>
<g>
	<path class="st0" d="M25.8,101.8l1,0.3c-0.2,0.9-0.6,1.5-1.2,2c-0.6,0.4-1.3,0.7-2.1,0.7c-0.8,0-1.5-0.2-2.1-0.5
		c-0.5-0.3-0.9-0.8-1.2-1.5c-0.3-0.7-0.4-1.4-0.4-2.1c0-0.8,0.2-1.5,0.5-2.1c0.3-0.6,0.8-1.1,1.3-1.4c0.6-0.3,1.2-0.5,1.9-0.5
		c0.8,0,1.5,0.2,2,0.6c0.5,0.4,0.9,1,1.1,1.7l-1,0.2c-0.2-0.6-0.4-1-0.8-1.3s-0.8-0.4-1.3-0.4c-0.6,0-1.1,0.1-1.5,0.4
		c-0.4,0.3-0.7,0.7-0.9,1.2c-0.2,0.5-0.2,1-0.2,1.5c0,0.7,0.1,1.3,0.3,1.8c0.2,0.5,0.5,0.9,0.9,1.1s0.9,0.4,1.3,0.4
		c0.6,0,1.1-0.2,1.5-0.5C25.4,103,25.7,102.5,25.8,101.8z"/>
	<path class="st0" d="M27.8,100.7c0-1.3,0.4-2.3,1.1-3.1s1.6-1.1,2.7-1.1c0.7,0,1.4,0.2,2,0.5c0.6,0.3,1,0.8,1.3,1.5
		c0.3,0.6,0.5,1.3,0.5,2.1c0,0.8-0.2,1.5-0.5,2.1s-0.8,1.1-1.4,1.4s-1.2,0.5-1.9,0.5c-0.7,0-1.4-0.2-2-0.5c-0.6-0.4-1-0.8-1.3-1.5
		S27.8,101.4,27.8,100.7z M28.9,100.7c0,0.9,0.3,1.7,0.8,2.2c0.5,0.5,1.2,0.8,1.9,0.8c0.8,0,1.4-0.3,1.9-0.8
		c0.5-0.6,0.8-1.3,0.8-2.3c0-0.6-0.1-1.2-0.3-1.7c-0.2-0.5-0.5-0.8-1-1.1c-0.4-0.3-0.9-0.4-1.4-0.4c-0.7,0-1.4,0.3-1.9,0.8
		C29.2,98.7,28.9,99.6,28.9,100.7z"/>
	<path class="st0" d="M40,104.6h-1v-6.2c-0.2,0.2-0.5,0.4-0.9,0.7c-0.4,0.2-0.7,0.4-1,0.5v-0.9c0.5-0.3,1-0.6,1.4-0.9
		s0.7-0.7,0.9-1.1H40V104.6z"/>
	<path class="st0" d="M43.9,100.3c-0.4-0.1-0.7-0.4-0.9-0.6s-0.3-0.6-0.3-1c0-0.6,0.2-1.1,0.6-1.4c0.4-0.4,1-0.6,1.6-0.6
		c0.7,0,1.2,0.2,1.7,0.6s0.6,0.9,0.6,1.5c0,0.4-0.1,0.7-0.3,1c-0.2,0.3-0.5,0.5-0.9,0.6c0.5,0.2,0.9,0.4,1.1,0.8
		c0.3,0.4,0.4,0.8,0.4,1.3c0,0.7-0.2,1.2-0.7,1.7c-0.5,0.5-1.1,0.7-1.9,0.7s-1.4-0.2-1.9-0.7s-0.7-1-0.7-1.7c0-0.5,0.1-0.9,0.4-1.3
		C43.1,100.7,43.5,100.4,43.9,100.3z M43.4,102.3c0,0.3,0.1,0.5,0.2,0.8c0.1,0.3,0.3,0.5,0.6,0.6s0.5,0.2,0.8,0.2
		c0.5,0,0.8-0.1,1.1-0.4s0.5-0.7,0.5-1.1c0-0.5-0.2-0.8-0.5-1.2c-0.3-0.3-0.7-0.5-1.2-0.5c-0.5,0-0.8,0.2-1.1,0.5
		C43.6,101.5,43.4,101.8,43.4,102.3z M43.7,98.7c0,0.4,0.1,0.7,0.4,0.9s0.6,0.4,0.9,0.4c0.4,0,0.7-0.1,0.9-0.4
		c0.2-0.2,0.4-0.5,0.4-0.9c0-0.4-0.1-0.7-0.4-0.9c-0.2-0.2-0.6-0.4-0.9-0.4c-0.4,0-0.7,0.1-0.9,0.4S43.7,98.3,43.7,98.7z"/>
	<path class="st0" d="M48.1,104.7l2.3-8.1h0.8l-2.3,8.1H48.1z"/>
	<path class="st0" d="M53.1,100.3c-0.4-0.1-0.7-0.4-0.9-0.6s-0.3-0.6-0.3-1c0-0.6,0.2-1.1,0.6-1.4c0.4-0.4,1-0.6,1.6-0.6
		c0.7,0,1.2,0.2,1.7,0.6s0.6,0.9,0.6,1.5c0,0.4-0.1,0.7-0.3,1c-0.2,0.3-0.5,0.5-0.9,0.6c0.5,0.2,0.9,0.4,1.1,0.8
		c0.3,0.4,0.4,0.8,0.4,1.3c0,0.7-0.2,1.2-0.7,1.7c-0.5,0.5-1.1,0.7-1.9,0.7c-0.8,0-1.4-0.2-1.9-0.7c-0.5-0.5-0.7-1-0.7-1.7
		c0-0.5,0.1-0.9,0.4-1.3C52.3,100.7,52.6,100.4,53.1,100.3z M52.6,102.3c0,0.3,0.1,0.5,0.2,0.8s0.3,0.5,0.6,0.6s0.5,0.2,0.8,0.2
		c0.5,0,0.8-0.1,1.1-0.4s0.5-0.7,0.5-1.1c0-0.5-0.2-0.8-0.5-1.2s-0.7-0.5-1.2-0.5c-0.5,0-0.8,0.2-1.1,0.5
		C52.7,101.5,52.6,101.8,52.6,102.3z M52.9,98.7c0,0.4,0.1,0.7,0.4,0.9c0.2,0.2,0.6,0.4,0.9,0.4c0.4,0,0.7-0.1,0.9-0.4
		c0.2-0.2,0.4-0.5,0.4-0.9c0-0.4-0.1-0.7-0.4-0.9c-0.2-0.2-0.5-0.4-0.9-0.4c-0.4,0-0.7,0.1-0.9,0.4C53,98,52.9,98.3,52.9,98.7z"/>
	<path class="st0" d="M60.8,104.6v-1.9h-3.4v-0.9l3.6-5.1h0.8v5.1h1.1v0.9h-1.1v1.9H60.8z M60.8,101.8v-3.6l-2.5,3.6H60.8z"/>
	<path class="st0" d="M68.9,98.6l-1,0.1c-0.1-0.4-0.2-0.7-0.4-0.8c-0.3-0.3-0.6-0.4-1-0.4c-0.3,0-0.6,0.1-0.8,0.3
		c-0.3,0.2-0.5,0.5-0.7,1c-0.2,0.4-0.3,1-0.3,1.8c0.2-0.4,0.5-0.6,0.9-0.8c0.3-0.2,0.7-0.3,1.1-0.3c0.6,0,1.2,0.2,1.6,0.7
		s0.7,1.1,0.7,1.8c0,0.5-0.1,1-0.3,1.4c-0.2,0.4-0.5,0.7-0.9,1c-0.4,0.2-0.8,0.3-1.3,0.3c-0.8,0-1.5-0.3-2-0.9
		c-0.5-0.6-0.8-1.6-0.8-2.9c0-1.5,0.3-2.6,0.8-3.3c0.5-0.6,1.2-0.9,2-0.9c0.6,0,1.1,0.2,1.5,0.5C68.6,97.5,68.8,98,68.9,98.6z
		 M64.9,102c0,0.3,0.1,0.7,0.2,1c0.1,0.3,0.3,0.5,0.6,0.7c0.3,0.2,0.5,0.2,0.8,0.2c0.4,0,0.8-0.2,1.1-0.5c0.3-0.3,0.4-0.8,0.4-1.3
		c0-0.5-0.1-1-0.4-1.3s-0.7-0.5-1.1-0.5c-0.4,0-0.8,0.2-1.1,0.5C65.1,101.1,64.9,101.5,64.9,102z"/>
	<path class="st0" d="M73.6,104.6h-1v-6.2c-0.2,0.2-0.5,0.4-0.9,0.7c-0.4,0.2-0.7,0.4-1,0.5v-0.9c0.5-0.3,1-0.6,1.4-0.9
		c0.4-0.4,0.7-0.7,0.9-1.1h0.6V104.6z"/>
</g>
</svg>
