<?xml version="1.0" encoding="utf-8"?>
<!-- Generator: Adobe Illustrator 26.0.3, SVG Export Plug-In . SVG Version: 6.00 Build 0)  -->
<svg version="1.1" id="Capa_1" xmlns="http://www.w3.org/2000/svg" xmlns:xlink="http://www.w3.org/1999/xlink" x="0px" y="0px"
	 viewBox="0 0 151 148" style="enable-background:new 0 0 151 148;" xml:space="preserve">
<style type="text/css">
	.st0{fill:#FFFFFF;}
	.st1{fill-rule:evenodd;clip-rule:evenodd;fill:#FFFFFF;}
</style>
<g>
	<path class="st0" d="M94.3,141.3c-3.5-1.1-4.2-4.1-4-7.4h5c0,2.3,0.1,4.2,2.9,4.2c1.7,0,2.5-1.1,2.5-2.7c0-4.3-10.1-4.6-10.1-11.7
		c0-3.8,1.8-6.8,7.9-6.8c4.9,0,7.4,2.2,7,7.2h-4.9c0-1.8-0.3-3.6-2.3-3.6c-1.6,0-2.6,0.9-2.6,2.6c0,4.6,10.1,4.2,10.1,11.7
		c0,4.2-2.1,5.9-4.6,6.5"/>
	<path class="st0" d="M118.1,124.7c0-2.2-0.3-4.2-3-4.2c-3.1,0-3.1,4.2-3.1,8.9c0,7.5,0.7,8.8,3.6,8.8c0.8,0,1.7-0.2,2.5-0.5v-5.3
		h-2.7v-3.7h7.8v12.2c-0.5,0.1-1.4,0.3-2.3,0.4h-8.6c-4.7-1.2-5.3-4.9-5.3-12.2c0-6,0.3-12.2,8.5-12.2c4.9,0,8,2.8,7.7,7.8"/>
	<path class="st0" d="M132.6,116.9c4.4,0,6.8,1.7,7.1,5.6v1.6h-4.9c0-1.7-0.4-3.6-2.5-3.6c-1.6,0-2.6,0.9-2.6,2.6
		c0,4.2,8.7,4.2,10,10.1v3.5c-0.5,2.8-2.3,4.1-4.4,4.6h-7c-3.5-1.1-4.2-4.1-4-7.4h5c0,2.3,0.1,4.2,2.9,4.2c1.7,0,2.5-1.1,2.5-2.7
		c0-4.3-10.1-4.6-10.1-11.7C124.7,119.9,126.5,116.9,132.6,116.9"/>
	<polyline class="st0" points="76.6,141.3 149.6,141.3 149.6,142.3 76.6,142.3 76.6,141.3 	"/>
	<rect x="139.7" y="112.5" class="st0" width="1" height="34.7"/>
	<path class="st0" d="M58.8,77.9V60.1l11.9,11.9L97.6,45c0,0-0.1,0-0.1-0.1c0,0,0,0,0,0c-6.9-6.8-16.4-11-26.9-11
		c-21.1,0-38.3,17.1-38.3,38.3c0,21.1,17.1,38.3,38.3,38.3c21.1,0,38.3-17.1,38.3-38.3c0-6-1.4-11.7-3.9-16.8L70.7,89.8L58.8,77.9z"
		/>
	<polyline class="st0" points="1.4,76.8 15,75.6 15.2,78.4 1.6,79.6 	"/>
	<path class="st0" d="M2.3,85.7c-0.7-3.4,1.2-4.5,3.6-4.8l0.6,2.8c-1.3,0.3-2.4,0.5-2.1,2c0.2,0.9,0.9,1.3,1.8,1.1
		c2.4-0.5,1.4-6.1,5.4-6.9c2.1-0.4,4,0.2,4.6,3.6c0.6,2.7-0.4,4.3-3.2,4.6l-0.6-2.7c1-0.2,2-0.6,1.8-1.7c-0.2-0.9-0.8-1.3-1.7-1.1
		c-2.5,0.5-1.2,6-5.4,6.9C3.7,90.2,2.8,87.8,2.3,85.7"/>
	<path class="st0" d="M5.6,97c1.7,4.3,4.9,3.1,8.2,1.8c3.4-1.3,6.6-2.5,5-6.8c-1.7-4.3-4.9-3.1-8.2-1.8C7.2,91.4,3.9,92.6,5.6,97
		 M7.5,96.2c-0.6-1.5,0.8-2.2,4.1-3.5c3.3-1.3,4.8-1.6,5.3-0.1c0.6,1.5-0.8,2.2-4.1,3.5C9.6,97.3,8.1,97.7,7.5,96.2z"/>
	<path class="st0" d="M12.7,104.5c-2.1,1.3-2.1,2.8-0.9,4.7c2,3.2,5,1.4,7.7-0.4c3.1-2,5.8-3.6,3.7-6.9c-1.6-2.5-3.8-2-5.9-0.6
		c-1.5,0.9-2.6,2.6-1.6,4.2c0.5,0.7,1.1,1.2,1.9,1.4c-2.6,1.7-3.5,2.4-4.2,1.3c-0.2-0.3-0.2-0.6-0.1-0.9c0.1-0.3,0.4-0.5,0.7-0.7
		 M19.2,103.3c0.7-0.4,2-1.3,2.6-0.3c0.6,0.9-0.6,1.7-1.3,2.2c-0.7,0.4-2,1.2-2.6,0.3C17.2,104.5,18.5,103.7,19.2,103.3z"/>
	<path class="st0" d="M27.7,108.1c-2.1-2.5-3.7-1.8-7.6,1.5c-3.2,2.7-5.1,4.6-2.8,7.3c2.3,2.7,4.5,1.2,7.7-1.5
		C28.8,112,29.8,110.5,27.7,108.1 M26.2,109.3c0.7,0.9,0.1,1.4-3,4c-3.1,2.6-3.8,3-4.4,2.2c-0.7-0.8-0.1-1.4,3-4
		C24.9,108.9,25.5,108.4,26.2,109.3z"/>
	<path class="st0" d="M32.9,113.4c-2.4-2.2-3.9-1.3-7.3,2.4c-2.8,3.1-4.4,5.2-1.8,7.6c2.6,2.4,4.6,0.6,7.4-2.5
		C34.5,117.2,35.2,115.6,32.9,113.4 M31.6,114.9c0.8,0.8,0.3,1.4-2.4,4.4c-2.7,2.9-3.3,3.5-4.1,2.8c-0.8-0.7-0.3-1.4,2.5-4.4
		C30.2,114.7,30.7,114.1,31.6,114.9z"/>
	<path class="st0" d="M34.8,118.1c1.1,0.1,2.2,0.1,3.2-0.2l2,1.4l-7.6,10.8l-2.3-1.6l5.8-8.3c-0.9,0.1-1.8,0.1-2.6,0"/>
	<path class="st1" d="M140.8,107V72.1c0-38.5-31.2-69.8-69.8-69.8C32.5,2.3,1.4,32.2,1.4,70.8c0,0.1,13.8,0.1,13.8,0
		c0-30.8,25-54.5,55.8-54.5c30.8,0,55.8,25,55.8,55.8V107"/>
	<path d="M22,39.7c-1.2,1.8-2.5,1.4-3.6,0.5l1-1.5c0.7,0.4,1.2,0.8,1.8,0c0.3-0.5,0.2-0.9-0.3-1.3c-1.2-0.8-3.3,2-5.3,0.7
		c-1.1-0.7-1.6-1.8-0.4-3.6c0.9-1.4,2.1-1.7,3.4-0.6l-0.9,1.4c-0.5-0.3-1.1-0.6-1.5,0c-0.3,0.5-0.3,0.9,0.2,1.3
		c1.3,0.9,3.2-2.1,5.3-0.7C23.4,37.2,22.7,38.6,22,39.7"/>
	<polygon points="23.2,33 17.7,31.1 18.9,29.7 22.4,31 20.6,27.7 21.7,26.3 24.4,31.6 26.6,33.5 25.4,34.8 	"/>
	<path d="M30.6,29.5C29,31,27.9,30.3,27,29.2l1.3-1.2c0.5,0.6,1,1,1.7,0.4c0.4-0.4,0.4-0.9,0-1.3c-1-1.1-3.7,1.2-5.3-0.6
		c-0.9-1-1.1-2.1,0.4-3.6c1.2-1.2,2.4-1.2,3.5,0.2l-1.2,1.1c-0.4-0.4-0.9-0.8-1.4-0.4c-0.4,0.4-0.5,0.8-0.1,1.3
		c1.1,1.2,3.5-1.3,5.3,0.6C32.6,27.3,31.6,28.6,30.6,29.5"/>
	<polygon points="32.9,16.8 33.7,17.9 32.1,19.1 36.3,24.6 34.9,25.7 30.7,20.1 29.2,21.3 28.4,20.2 	"/>
	<polygon points="38.8,22.8 34.5,15.7 38.4,13.4 39.1,14.5 36.7,15.9 37.7,17.7 40,16.3 40.6,17.4 38.4,18.8 39.7,20.8 42.1,19.4 
		42.8,20.4 	"/>
	<polygon points="44,19.7 40.7,12.1 43.3,11 46.7,15.7 46.7,15.7 45.8,9.9 48.3,8.9 51.5,16.5 50,17.2 47.4,11.3 47.4,11.3 
		48.5,17.8 46.9,18.5 43,13.2 43,13.2 45.5,19.1 	"/>
	<path d="M55.1,11.2C54.6,9,54.2,7,57,6.4c1.7-0.4,2.6,0.4,2.9,2.2l-1.7,0.3c-0.2-1.1-0.5-1.4-1-1.3c-1,0.2-0.9,1.1-0.5,3.2
		c0.5,2.1,0.8,3,1.7,2.8c0.8-0.2,0.5-1.2,0.4-1.8l1.7-0.4c0.5,2.2-0.3,3.1-1.9,3.4C56,15.4,55.6,13.3,55.1,11.2"/>
	<polygon points="62.7,13.9 61.8,5.7 66.3,5.2 66.5,6.5 63.7,6.8 63.9,8.8 66.5,8.5 66.6,9.8 64,10.1 64.3,12.5 67.1,12.2 
		67.3,13.5 	"/>
	<path d="M70.5,10H71c1.3,0,1.2,0.9,1.2,1.9c0,0.5-0.1,1.1,0.2,1.6l1.7,0c-0.2-0.4-0.2-1.9-0.2-2.5c0-1.5-1.1-1.6-1.5-1.6v0
		c1.1-0.2,1.6-1,1.6-2c0-1.4-0.7-2.2-1.9-2.2l-3.2,0l-0.1,8.3l1.7,0L70.5,10z M70.5,6.4h0.8c0.6,0,0.9,0.3,0.9,1.1
		c0,0.5-0.2,1.2-0.9,1.2h-0.8V6.4z"/>
	<polygon points="81.4,5.9 81.3,7.2 79.3,7 78.5,13.9 76.8,13.7 77.6,6.8 75.7,6.6 75.8,5.2 	"/>
	<polygon points="81.6,14.4 83.3,6.2 85,6.6 83.3,14.7 	"/>
	<polygon points="85.1,15.1 87.4,7.1 91.6,8.3 91.2,9.5 88.7,8.8 88.2,10.9 90.5,11.6 90.2,12.8 87.8,12.1 86.8,15.6 	"/>
	<polygon points="90.4,16.7 93.3,8.9 95,9.5 92.1,17.3 	"/>
	<path d="M95.5,14.2c0.9-2,1.8-3.9,4.4-2.7c1.6,0.8,1.8,2,1,3.5l-1.6-0.7c0.5-1,0.5-1.5,0-1.7C98.5,12.3,98,13,97.1,15
		c-0.9,1.9-1.2,2.8-0.3,3.2c0.7,0.3,1.1-0.6,1.4-1.2l1.5,0.7c-1,2-2.1,2.3-3.5,1.6C93.7,18.1,94.6,16.2,95.5,14.2"/>
	<path d="M105.7,16.7L105.7,16.7l-2.6,2.6l1.4,0.9L105.7,16.7z M99.3,20.6l6.4-5.8l1.9,1.2l-2.5,8.2l-1.5-1l0.6-1.8l-2-1.3l-1.4,1.3
		L99.3,20.6z"/>
	<polygon points="114.5,21.1 113.7,22.2 112.1,21 107.8,26.5 106.5,25.4 110.8,19.9 109.2,18.8 110.1,17.7 	"/>
	<polygon points="110.2,28.5 115.9,22.4 117.1,23.6 111.5,29.7 	"/>
	<path d="M114.6,33.1c1.9,2.1,3.5,0.7,5.1-0.7c1.6-1.5,3.2-2.9,1.3-5c-1.9-2.1-3.5-0.7-5.1,0.7C114.3,29.5,112.7,31,114.6,33.1
		 M115.5,32.3c-0.7-0.7-0.1-1.4,1.5-2.9c1.6-1.4,2.4-1.9,3-1.2c0.6,0.7,0.1,1.4-1.5,2.9C117,32.5,116.2,33,115.5,32.3z"/>
	<polygon points="117.7,36.5 124.5,31.8 125.9,33.7 122.4,38.8 122.4,38.8 127.1,35.6 128,36.9 121.2,41.6 119.9,39.7 123.6,34.4 
		123.6,34.4 118.6,37.8 	"/>
</g>
</svg>
