<?xml version="1.0" encoding="utf-8"?>
<!-- Generator: Adobe Illustrator 16.0.0, SVG Export Plug-In . SVG Version: 6.00 Build 0)  -->
<!DOCTYPE svg PUBLIC "-//W3C//DTD SVG 1.1//EN" "http://www.w3.org/Graphics/SVG/1.1/DTD/svg11.dtd">
<svg version="1.1" id="Layer_1" xmlns="http://www.w3.org/2000/svg" xmlns:xlink="http://www.w3.org/1999/xlink" x="0px" y="0px"
	 width="21px" height="21px" viewBox="1.5 1.5 21 21" enable-background="new 1.5 1.5 21 21" xml:space="preserve">
<path fill="#FFFFFF" d="M21.728,18.853l-0.121-0.121l0,0l-4.823-4.825c0.672-1.156,1.059-2.493,1.068-3.924
	c0.025-4.376-3.497-7.948-7.875-7.976c-0.017,0-0.034,0-0.05,0c-4.356,0-7.9,3.518-7.926,7.878
	c-0.029,4.378,3.498,7.948,7.876,7.978c0.017,0,0.034,0,0.05,0c1.456,0,2.818-0.397,3.991-1.077l4.817,4.815l0,0l0.122,0.124
	c0.362,0.36,0.954,0.36,1.318,0l1.55-1.552C22.091,19.808,22.091,19.213,21.728,18.853z M14.088,14.126
	c-1.112,1.104-2.591,1.713-4.16,1.713H9.89c-3.255-0.021-5.887-2.687-5.867-5.943c0.01-1.57,0.629-3.044,1.742-4.15
	C6.88,4.639,8.358,4.031,9.928,4.031h0.04c1.576,0.01,3.056,0.632,4.162,1.754c1.107,1.123,1.715,2.611,1.704,4.188
	C15.823,11.544,15.202,13.016,14.088,14.126z M11.257,5.774H8.826v2.758H6.067v2.43h2.758v2.758h2.431v-2.757h2.761V8.532h-2.761
	V5.774z"/>
</svg>
