<?xml version="1.0" encoding="utf-8"?>
<!-- Generator: Adobe Illustrator 16.0.0, SVG Export Plug-In . SVG Version: 6.00 Build 0)  -->
<!DOCTYPE svg PUBLIC "-//W3C//DTD SVG 1.1//EN" "http://www.w3.org/Graphics/SVG/1.1/DTD/svg11.dtd">
<svg version="1.1" id="Layer_1" xmlns="http://www.w3.org/2000/svg" xmlns:xlink="http://www.w3.org/1999/xlink" x="0px" y="0px"
	 width="21px" height="21px" viewBox="1.5 1.5 21 21" enable-background="new 1.5 1.5 21 21" xml:space="preserve">
<g>
	<path fill="#FFFFFF" d="M21.729,18.856l-0.12-0.121l0,0l-4.824-4.828c0.667-1.16,1.057-2.496,1.063-3.928
		C17.882,5.602,14.351,2.027,9.975,2C9.958,2,9.941,2,9.921,2C5.565,2,2.02,5.519,1.996,9.881c-0.026,4.38,3.5,7.955,7.881,7.983
		c0.016,0,0.031,0,0.043,0c1.462,0,2.823-0.396,3.998-1.079l4.821,4.822h0.003l0.12,0.121c0.363,0.362,0.955,0.362,1.321,0
		l1.549-1.554C22.095,19.811,22.095,19.222,21.729,18.856z M14.088,14.123c-1.115,1.105-2.592,1.718-4.168,1.718H9.884
		c-3.256-0.021-5.893-2.69-5.873-5.948c0.027-3.236,2.673-5.868,5.908-5.871h0.039c1.581,0.011,3.061,0.634,4.168,1.758
		c1.104,1.124,1.715,2.613,1.703,4.19C15.816,11.542,15.206,13.014,14.088,14.123z M6.059,11.101h7.953V8.667H6.059V11.101z"/>
</g>
</svg>
